/* XPM */
static char *_2e5ad1ac3ea4e52f5d8e54bb198fe5a[] = {
/* columns rows colors chars-per-pixel */
"64 64 215 2 ",
"   c #020202",
".  c #0B0C0C",
"X  c #0D1A0B",
"o  c #0D1312",
"O  c #131514",
"+  c #141817",
"@  c #161718",
"#  c #161B1A",
"$  c #1B1D1D",
"%  c #1C221E",
"&  c #1D2222",
"*  c #1F2827",
"=  c #222524",
"-  c #242A25",
";  c #252B2A",
":  c #2A2E2D",
">  c #322F2F",
",  c #2B322E",
"<  c #2B382E",
"1  c #2C3433",
"2  c #2F3837",
"3  c #2E3A39",
"4  c #313535",
"5  c #323B35",
"6  c #353738",
"7  c #353C3B",
"8  c #3A3D3C",
"9  c #403F3F",
"0  c #334133",
"q  c #36403F",
"w  c #3B433C",
"e  c #364241",
"r  c #3B4443",
"t  c #3D4846",
"y  c #3E4748",
"u  c #3E4B4A",
"i  c #434444",
"p  c #424A44",
"a  c #474748",
"s  c #434C4B",
"d  c #494D4C",
"f  c #504E4D",
"g  c #45514E",
"h  c #4D5A4C",
"j  c #474F53",
"k  c #465352",
"l  c #4B5453",
"z  c #475857",
"x  c #4C5957",
"c  c #4D5A59",
"v  c #525353",
"b  c #585757",
"n  c #535B57",
"m  c #535C5B",
"M  c #5B5D5C",
"N  c #605F5F",
"B  c #49604A",
"V  c #4F615F",
"C  c #54615E",
"Z  c #5B645E",
"A  c #5D685E",
"S  c #565F60",
"D  c #5A5F61",
"F  c #615F61",
"G  c #4F6060",
"H  c #546362",
"J  c #5A6463",
"K  c #566967",
"L  c #5C6A66",
"P  c #5D6669",
"I  c #576A69",
"U  c #5D6C6A",
"Y  c #5E726F",
"T  c #5E7371",
"R  c #626363",
"E  c #646A64",
"W  c #636C6B",
"Q  c #6B6D6C",
"!  c #716F6F",
"~  c #617061",
"^  c #687767",
"/  c #63716E",
"(  c #6A726C",
")  c #72706F",
"_  c #6D6F70",
"`  c #657373",
"'  c #6B7473",
"]  c #617975",
"[  c #6B7977",
"{  c #67737A",
"}  c #69747A",
"|  c #6D7B7A",
" . c #737474",
".. c #7A7777",
"X. c #727A73",
"o. c #737B7B",
"O. c #7B7D7D",
"+. c #817F7F",
"@. c #778877",
"#. c #74817D",
"$. c #7A827D",
"%. c #757F80",
"&. c #6E8683",
"*. c #758482",
"=. c #7C8484",
"-. c #728985",
";. c #7D8986",
":. c #7C868A",
">. c #768C8A",
",. c #7D8B8A",
"<. c #7C908E",
"1. c #7E9392",
"2. c #838484",
"3. c #888686",
"4. c #818B86",
"5. c #828788",
"6. c #838C8B",
"7. c #8B8B8B",
"8. c #84918E",
"9. c #89918E",
"0. c #838D92",
"q. c #8D8F90",
"w. c #859392",
"e. c #8B9493",
"r. c #839996",
"t. c #8C9996",
"y. c #8B9699",
"u. c #859999",
"i. c #8D9B9A",
"p. c #939394",
"a. c #929A94",
"s. c #969798",
"d. c #939C9B",
"f. c #9B9C9C",
"g. c #A09F9E",
"h. c #8CA09E",
"j. c #94A09F",
"k. c #9BA19E",
"l. c #8B9BA1",
"z. c #939DA3",
"x. c #9A9FA2",
"c. c #8EA3A1",
"v. c #95A2A2",
"b. c #9BA4A3",
"n. c #9BA8A6",
"m. c #97A7A9",
"M. c #9CA5AA",
"N. c #96AAA9",
"B. c #9DABAA",
"V. c #9EB2AE",
"C. c #9FADB3",
"Z. c #A4A4A4",
"A. c #AAA7A7",
"S. c #A3A9A5",
"D. c #A3ACAC",
"F. c #ABACAC",
"G. c #B1AFAF",
"H. c #A3B0AE",
"J. c #ABB3AF",
"K. c #A8BAAB",
"L. c #A5B3B2",
"P. c #ABB3B3",
"I. c #A5B8B5",
"U. c #ABB9B7",
"Y. c #A4B2B9",
"T. c #ACB5B9",
"R. c #A6BAB8",
"E. c #ADBBBA",
"W. c #B3B4B4",
"Q. c #B4BBB7",
"!. c #B4BCBB",
"~. c #BABDBD",
"^. c #C0BEBE",
"/. c #B5C1BF",
"(. c #BBC3BF",
"). c #B4BEC2",
"_. c #B9BFC2",
"`. c #B5C2C2",
"'. c #BBC3C4",
"]. c #BDC5C9",
"[. c #BDCBC9",
"{. c #BFCAD0",
"}. c #C2C4C4",
"|. c #C3CBC3",
" X c #C3C7C8",
".X c #C3CACB",
"XX c #C9CDCD",
"oX c #CBD0CC",
"OX c #D0D0CF",
"+X c #C6CDD2",
"@X c #C6D1D1",
"#X c #CDD3D3",
"$X c #CFD8D7",
"%X c #CED5D9",
"&X c #D3D6D6",
"*X c #D6D9D7",
"=X c #D1D7D9",
"-X c #D4DBDB",
";X c #DBDEDD",
":X c #DADEE1",
">X c #D7E5E5",
",X c #DEE2E3",
"<X c #DFE8E7",
"1X c #E2E5E5",
"2X c #E7E8E6",
"3X c #E3E6E8",
"4X c #E6E9EA",
"5X c #EAEDED",
"6X c #EDEFF0",
"7X c #E7F0F0",
"8X c #EEF1F2",
"9X c #F2F4F4",
"0X c #F6F7F8",
"qX c #F6F9F9",
"wX c #FEFFFF",
/* pixels */
"c 3 ; O , m Y r k . Q F.Q  .$.O.O.$. .=.5.- $ ; 1 x s c u 8 u L m 7 ; O : m W t k . Q F.Q  .$.O.=.O. .2.6.= $ ; 1 l u c u 8 s H ",
"4 , = - 8 m P P o , ~.U 7 a m U U P l W W 6   s l r s H x g H C , , = ; 7 m P K o > ~.U 7 s m L P J l U W 4   s l t s P l k C C ",
": & 2 8 l m m l   A.8.t < < l l s s s r i l . ; [ s m l g z | c * % 4 8 l c C k   A.8.u , < l l s s g r t x . - [ s m k g z | x ",
"* & 4 s k c W o Q B.H :./ 5 g P W d H P m j k # p Y m s t r l 2 & & 2 u l c Y . Q B.H ;.W 0 g P / d m P m d l @ p Y m s t r l 1 ",
". # : 7 q r = i D.g ` o.$.o.J | [ %.R W w - B 0   c J t , 7 = . . # : 7 8 r * i D.u ' o.*.o.J | | #.E W r - B 0   c H p , 7 * . ",
"# # 1 s u ;   x.[ p o.#.' m / #.4.o.w w 8 w 0 w $ $ m r 2 & # o + # 1 s u ;   f.| p o.#.' M W *.6.o.w 8 8 w 0 w $ $ C r 1 * # o ",
"* : ; 1 :   O.y.l ( e.;.=.~ ^ d.b.6.*.o.E E p p m . & s 1 O O = ; ; : , :   +.y.l Q e.;.=.~ ^ d.b.6.$.o.E W p p m . = s 1 O O - ",
"= = $ $ . 8 D.s S ;.;.' 8.t.$.e.D.F.n.D.U.' h i l i . ; $ @ @ & * * $ $ . 9 D.s H ;.;.' 8.e.$.e.D.D.n.D.P.' h p l i   : $ @ @ & ",
"_  . .o.! , 7 x D W / =.b.A.b.s.A.W.F.b.D.=. .=.*.* R x.R Q _ _ !  . .O.! 1 7 l H W Q ;.b.A.b.s.F.Q.D.b.D.=. .%.%.* R g.R Q Q _ ",
"s s i s s = . P ;.e.e.Z.A.C.P.M.Y..X.Xx.5.e.e.D.' > A.k 8 s 7 u k s i s g & . P 5.e.e.Z.A.C.P.M.P..X Xx.5.9.y.D.' > Z.l 8 j 3 s ",
"2 1 7 ; ; s $ a n.B.~. .{ z.i.z.z.Y.).:.j Q d.b.8 p.W # 8 y , , 2 , 7 ; ; u $ i n.M.~.' { x.i.z.l.P.).:.l W f.n.9 s.E # 7 u , : ",
"s 8 s L s k l & W d.Q.0.Y.+X_._._.%X:X_.} *.'.J ..s.O 2 e y u e y 8 s K s k l = W l.Q.e.Y..X_._._.%X:X_.} =.~.J  .s.O 2 r r j e ",
"Y ` [ | *.8.*.i 8 9._.T.T.&X9X9X9XqX,X'.l.d.s.R Q.a * 1 3 k H g Y ` [ %.*.8.#.t 8 q._.T.T.-X8X9X9X0X:X'.l.d.s.R Q.s ; 1 2 k H l ",
"H S Y c ' | *.-.d Q :XT.T.1XwXwXwXwX5X!.y.D.3.F.5.r l y e k c c H G Y z { | *.;.d Q :XT.T.3XwXwXwXwX5X).y.D.5.G.5.r k r q k c x ",
"[ | Y u S =.;.d.x.M ^.'.T.3XwXwXwXwX6X_.x.q.~.F.s v l c t u z I [ %.U u S =.,.i.f.M ~._.T.2XwXwXwXwX6X_.x.q.~.F.a l x c u u c H ",
"*.D.;.*.y.H.i.=.L.5.f._.T.5XwXwXwXwX6X].M.F.}.! W W c ' H m P c *.D.,.*.w.L.i.=.H.6.f.'.T.5XwXwXwXwX6X].M.F.}.! W W c ' H C H H ",
"G *.n._.U.V.B.d.D.O.G.'.T.5XwXwXwXwX8X+X).F.%.O.o./ ;.e.' ` | ` H -.n.(.U.V.D.a.D.O.G.].T.4XwXwXwXwX6X+X).G.O.O.o.' 6.6.' ` | { ",
"K u [ e.#.$.4.D.d.! 1X!.T.3XwXwXwXwX8X%X#XZ. .2.) Z D l S [ i.8.G u ' 9.#.=.;.H.d.! ,X).T.4XwXwXwXwX6X%X#Xg.! 5.Q Z J l H ' u.8.",
"i.Y m H ' =.~ 6.2.G.}.'._.3XwXwXwXwX8X=X&XD...R Q h w l H | ;.b.d.Y V H ' $.~ 6.2.G.}.'._.4XwXwXwXwX6X=X%XD.O.R _ h w l J #.6.d.",
"M.D.w.=.d.6.4.R A..XH.]..X5XwXwXwXwX0X-X#XG.s.M o.6./ =.%.C ' U.B.D.w.=.d.6.4.R A..XF.]..X4XwXwXwXwX9X:X#XG.s.M o.6.W *.| C ( U.",
"<.<.v.;.#.A w X.;XD.Q.'.+X5XwXwXwXwX0X4X#XF.D.O.i  .z.w.=.A t.D.,.<.v.;.$.A w ..-XD.!.'..X5XwXwXwXwX9X7X#XF.S.o.a  .v.w.=.J t.B.",
"&.T w.L.4.~ 8 ~.`.Q.*X X X8XwXwXwXwX0X5X#XZ.6.6.b 8 $.%.,.t.;.u.&.T 1.L.6.~ 8 Q.(.Q.*X X.X8XwXwXwXwX9X6X#XM.q.6.v 8 $.%.,.i.;.i.",
"&.h.>.L.>XP q.-XE.#X;X#X+X8XwXwXwXwX0X4XXXF.e.%.=.N M { 8.9.` G &.h.>.I.>XJ q.-XE.#X;X#X+X6XwXwXwXwXqX4XOXG.e.O.;.F D ' 6.8.` I ",
"% 8 ; 1 , b @Xd.!.'.@X1X=X3XwXwXwXwXwX3XXXD.7.3.b.e.a 9 2 7 : o $ 8 ; , 1 b @Xh.!.'.#X,X=X4XwXwXwXwXwX3XXXZ.6.5.x.e.a w 6 7 : o ",
"e.p.s.f. .1 [ L.L.L..X8X1X1XwXwXwXwXwX4XXXf.e.D..XX.2.W.o.O.3.5.e.p.d.k. .> ' L.I.L.[.8X,X1XwXwXwXwXwX4XXXf.e.D..XX.2.W. .O.7.5.",
"E.R.`.b.n.M 8 '.'.t.L.2X6X5XwXwXwXwXqX4XXXH.'.,X!.R W.D.1.B.I.R.`.R./.v.n.Z 8 '.'.t.J.1X6X6XwXwXwXwXqX4X+XD.'.,X!.R W.D.w.B.I.R.",
"z L K C e.'.R X.[.k.j.$X8X9XwXwXwXwXwX1XXX.X&X1XQ F.b.W -.[ Y H z K J C e.'.R o.|.b.f.#X9X9XwXwXwXwXwX1XoX.X&X<XQ F.n.W -.{ Y K ",
"h.8.$.H.D.`.b.M J./.f.(.4X0XwXwXwXwXwX1X&X-XqX=.) 7Xv.k.d.[ ` <.u.t.$.D.D.'.j.M J./.k.(.4X9XwXwXwXwXqX1X&X*XqX=.Q 6Xv.x.d.[ ` ,.",
"h././.N.E.`.R.t.2.|.|.}.;X8XwXwXwXwXqX3X1X0X'.N XXD.t.J.8.*.E.[.c.E.`.B.E./.R.y.3.}.|.}.:X8XwXwXwXwXwX1X,XqX'.Z oXS.t.L.8.*.T.@X",
"Y -.1.r.V.L.B.I.q.W.9X5X5X8XwXwXwXwXwX4X2X=X) F.(.;.8.n.i.v.| ` Y -.1.r.V.L.B.L.q.W.8X5X5X6XwXwXwXwXqX4X2X-X) F.(.;.9.n.c.v.[ | ",
"I [ c.-.&.u.B.[.(.2.|.9X0X0XwXwXwXwXqX3X4Xb.F.|.$.L.B.t.v.w.V V I #.v.-.-.r.B.[.(.2.}.9XqX0XwXwXwXwXwX3X4Xg.F.oX=.H.B.t.k.w.V c ",
"/ Y [ | *.j.'.@XK.^ ..}.8X0XwXwXwXwXwX3XOX}.4XZ.X.9.t.i.;.*.r.I K I ' [ -.j.`.#XK.^ O.}.8X0XwXwXwXwXwX3XOX}.2Xb.X.9.t.i.-.-.r.K ",
"c c ` 9.X.4.`.b.@.A F.1X4X9XwXwXwXwXqX4X2XOX}.S.a.j.8.H.n.*.V.] k z ` q.' 4.`.j.@.Z F.;X4X0XwXwXwXwXqX4X2XOXXXZ.a.j.8.H.n.*.V.] ",
"k z | B.;.d.E.H.;.3.2X,X8X0XwXwXwXwXqX1X6X,X~.}.(.E.4.( t.I.| H z z | B.4.d.E.D.2.7.2X1X8X9XwXwXwXwXqX4X5X1X~.}.(.U.6.W a.K.[ K ",
"W ,.8.' b.v.6.d. .*X,X=X9X0XwXwXwXwXwX2X5X4X~.~.*XJ.$.X.S.H.<.| I <.8.' b.n.6.d. .*X1X-X9X0XwXwXwXwXwX2X5X4X~.~.*XJ.$.X.D.L.<.[ ",
"[ V.;.W -.=.w.M A.*XXX;X8X0XwXwXwXwXqX2X8X2X*Xa.~./.j.!.@.;.N.C ` H.;.W *.;.w.Z Z.-X.X;X8X0XwXwXwXwXqX3X8X1X&Xa.~./.f./.#.@.N.H ",
"m.w.` U H :. .+.OX6.D.;XqX0XwXwXwXwXqX4X2X1X8XP.R L.E.@X8.$.t.8.V.w.` U H ,.' O.OX6.F.:XqX0XwXwXwXwX0X3X2X1X8XU.R P.E.@X9.@.y.8.",
"i.8.&.k I b.R ~.T.b.}.4X0X9XwXwXwXwXwX3X*X,X6X<Xo.b L.E.L.N.I.V.u.<.*.k P v.R ~.U.b.}.5X0X0XwXwXwXwXwX1X*X,X6X1X..m L.R.I.N.L.n.",
"0.U.l.I <.l f.#X6.}.,X2X5X6XwXwXwXwXqX2X*X&X.X=X*XR o.N.1.,.,.| ;.R.i.I <.v g.#X6.'.;X2X5X6XwXwXwXwXwX1X*X%XXX=X-XF o.B.w.,.,.-.",
"6 r r t 1 v &Xn.!. X&X;X,X5XwXwXwXwXwX1XXX!.D.D.#XW.l l 7 - ; : 6 i r t 1 v %Xn.!. X*X;X:X5XwXwXwXwXwX,X#XW.D.S.#XE.v j 3 - ; , ",
") R W ! ! 8 6.@X#X*X+XoX;X9XwXwXwXwXwX:X'.!.f.q.'.;.+.G.3.5.Q Q  .R Q ! ! 9 ;.@X#X*X+XXX:X9XwXwXwXwXwX:X}.!.d.q.).;.+.G.3.2.Q E ",
";.B.,.[ w.c f .XXX XU. X3X9XwXwXwXwXwX4XW.!.H.V.;.v &X!.u.D.6.' ,.B.,.| 1.c v  XXX XE.}.3X9XwXwXwXwXwX5XT.E.P.V.;.v &X/.i.V.6.X.",
"H ,.H e / <.W s.!.B.D.=X,X6XwXwXwXwXqX5X~.P.!.).s g.-X8.#.=.l i U ,.H e ` ,.E s.!.B.D.$X<X6XwXwXwXwX0X5X~.W.!.E.d g.-X8.| :.k s ",
"m I { q x | q.! d.H.D.=X%X6XwXwXwXwXqX5X}.D..X} ..=Xu.j.n.>.,.` z H ` e l | e.! d.H.D.=X%X6XwXwXwXwX0X5X'.D..Xo...=Xw.v.B.>.;._ ",
";.0.r.V g R 5.) b U.&X.X.X6XwXwXwXwX0X3X_.}.L.F XXM.j.n.u.,.V.B.*.8.8.G k R 4.) b U.$X.X.X6XwXwXwXwX0X3X_. XP.F .XD.d.v.y.,.L.n.",
"` [ U ` L l J B.J o.5X]..X4XwXwXwXwX9X;X).'.Q W.-Xw.D.H.0.y.;.` ' } Y ` U l J B.Z o.6X].[.4XwXwXwXwX9X-X_.'.Q G.-Xw.D.D.,.t.;.{ ",
"U / / L p m / t.H.R G.=X+X,XwXwXwXwX6X=X_.5.g.2Xy.o.8.;.U | m m U ` Y U i m ( t.D.R F.=X+X,XwXwXwXwX6X-X_.6.f.3Xi.o.8.,.W | C m ",
"U u t l P *.n.$.a.6.q.:X+X:XwXwXwXwX6X=XD.p.#X8.[ >.' k W =.` W P k r l P #.n.#.a.q.q.:X+X:XwXwXwXwX6X%XD.p.#X8.[ ;.[ k W -.` H ",
"H g s s g o.d.A 4...G.=X).:XwXwXwXwX5X+XM.7.s.=.B.6.U H | d.-.c C g s s g o.d.A 2.o.G.=X).,XwXwXwXwX5X.XZ.7.s.=.D.6.U H | d.*.c ",
"Z W ' C 5 x n [ o.) 2X].E.,XwXwXwXwX5X XC.O.! y.y.' [ =.8.b.i.W n W ' C 5 m n [ o.! 2X].T.,XwXwXwXwX6X XC.%.! y.a.` ` :.w.n.i.` ",
"p % g ` b.W E i.d W.oX].`.,XwXwXwXwX9X+XM.d.3.R :.U Y 8.| 8.u./ w % g ` v.E E i.d W.XX].`.3XwXwXwXwX9X{.M.d.7.F :.Y / 8.o.<.u.W ",
"w ; s [ #.<.v.8 7.(.P.+X).,XwXwXwXwX,X).z.d.P.f _ i.[ [ o.[ x s r - s [ *.8.v.7 7.(.P.+X).:XwXwXwXwX,X`.z.d.F.j W d.[ { | [ x t ",
"r s m m C Y r M G.P A.).`.=X=X=X:X:X:X).6.5.d.o., =.,.{ | C l 8 5 s m C C Y e M P.P F._.`.=X=X=X:X:X:X`.1.5.a.o.> *.,.` o.V l 7 ",
": t H x m 3 $ F.P m 2.%.l.{.Y.C._.).).1.m e.d.i.d ; u.*.[ P H , - y J c c 3 $ F.R m 2.o.l.{.Y.C.).)._.0.c e.d.i.d : y.-.| P J , ",
"t c [ [ g . q.6.1 R E b P w.%.%.0.d.:.D W y.;.8.9.@ i [ m u e 1 u l [ [ g . 7.q.2 R R m P e.%.| 9.z.:.J W e.:.e.0.@ r ' m s q 5 ",
"= # ; r & i j.4 i v m Q _ E R 6.=.s.z.6.p.5.` ;.z./   . $ O @ # = # ; r & i x.1 t v b Q _ E R q.%.d.f.5.p.0./ :.v.W   o $ O @ + ",
"_ O...W F ; ; 1 r i b M _ Q ' 5.' 5.=.W ' 6.6.t.D.4 d F.Q E Q X. .O.X.Q N ; ; 4 8 i m M _ Q _ :. .;.=.W ' 5.6.t.D.3 d F.Q E W ..",
"I =.0.m s $   2 q 9 j j W _ W v b / W X.' =.i.e.m . A.V.` J ` -.U =.0.c p $   2 8 r l d W ' E b v Q Q X.' *.i.e.m . A.V.W P / -.",
"| [ l e q q . @ 8 ; i d H D b m d Z _ y.:.e.d.k   O.8.e a P C V ` [ x q 8 r . @ 8 ; i s D H b m l m / y.5.8.i.l   +.5.e s P H H ",
"[ L P z q 2 $ . ; s l l j s r l d m ` L H  .P   f D.; 4 r C Y [ ` U K x q 4 $ . : a l l l a t j d m ' P J | P   f D., 4 r S Y [ ",
"/ H | g 3 $ 2 : . ' P r d w r a s l J W m H : = g.k * : k s m ;.` S | j 4 $ 2 : . ' P r s w r s s l P W m H , = x.k * : g s c -.",
"C H k s : & r S O ; m t 6 7 g s x s = 0 c H . 3.Z : D s e q u z m H k u : & r H o ; m t 7 7 g s c s = 7 l H . 3.M : J u e e s x ",
"u 1 , r ; : r u e . & d w t m l m s X - s O D s.& u l u q u g u e 3 1 r ; : e u e . & d 8 t m l m d X - d O M d.& s k u q u g t ",
"e $ & * 2 r k e l ; . = & & = & - ; O = O $ x.y 1 7 7 , 2 u u u e $ & = 2 y k e z : . = = $ = & - , X % O $ b.i 1 2 7 < 2 g p e "
};
