/* XPM */
static char *e7d5a33758894570adabceccd9379a70[] = {
/* columns rows colors chars-per-pixel */
"64 64 76 1 ",
"  c #010101",
". c #080705",
"X c #060807",
"o c #090807",
"O c #0D0C0B",
"+ c #100F0D",
"@ c #0F100D",
"# c #11110E",
"$ c #151513",
"% c #181714",
"& c #171815",
"* c #1B1A16",
"= c #171818",
"- c #1D1D19",
"; c #201A13",
": c #211E1A",
"> c #1F201D",
", c #24221D",
"< c #29251E",
"1 c #2B281F",
"2 c #262521",
"3 c #292621",
"4 c #272924",
"5 c #2C2A24",
"6 c #2E2E29",
"7 c #322D26",
"8 c #382F24",
"9 c #312F29",
"0 c #2F302F",
"q c #333127",
"w c #35332C",
"e c #39362D",
"r c #3C392E",
"t c #2D2F30",
"y c #2F3133",
"u c #363531",
"i c #393730",
"p c #3D3A33",
"a c #3D3E39",
"s c #41392E",
"d c #423D34",
"f c #413F39",
"g c #3F403A",
"h c #444136",
"j c #494236",
"k c #45423A",
"l c #49463C",
"z c #4C493E",
"x c #514A3E",
"c c #464641",
"v c #494741",
"b c #464847",
"n c #4D4B42",
"m c #4D4E49",
"M c #514D43",
"N c #524E48",
"B c #4F514A",
"V c #545146",
"C c #585245",
"Z c #55534A",
"A c #5A564C",
"S c #5C594E",
"D c #555651",
"F c #5B5750",
"G c #565852",
"H c #5D5B52",
"J c #605B4E",
"K c #615E53",
"L c #636156",
"P c #65635A",
"I c #6A665C",
"U c #6A695D",
"Y c #716E5E",
"T c #6B6A62",
"R c #716E63",
"E c #737367",
/* pixels */
"ezMppjexMkjphjddfsjkdjdxxdzklAVrrzSnhldkxhjdhxdjzjddszddxjzjfzlr",
"lLKA,@we7q#,r1e%$e78:$ww77$3JITklULS1@qq77@5r<r$%r<w,+w75w#3ASKj",
"ALeLd,k  aek+ ,ri3 Ofwd  p,:VqKxkLqSs,g  aekO 2ai3 Op5p  e:,nwHC",
"kLLCj,,uw6 %i5rO.w6r: 3ww5*5kAVggHKxs,:6ueX%p7iO.w5s:.2wq3-3dJCf",
"kr5*hSp559%4e39==e34:%e9,eZl,51ijw3;dAe,5w$2i27$-i35:%95:5mk<<<d",
"j1 #VVmX hpz# 5kk3 +kia  vZz% #hn< $Mnl. fikO 3jf4 @kep .zMj; $j",
"sV7k,4znl, .lpk  iavO :kklw,kiiejMwk-,lkl2 olpk  ffV+ 2djnq<peue",
"x8 %qwvMA5:a: 50w5.$e39Mkkhe- -kM8.%99kMM5,i:.37e9.%e:9Cjfre: %h",
"je$,w,3KHve92=0659$24wsZH5,5>$1rjp$3w-3IHfw5,$5555#,75pZK9-92$,f",
"hxwkO ,rpmk4pua  fpp2pvds, @lwrrjMek@ 4drkk3pwr  fe0:ilpd, +lwep",
"M1 .keh  vZD% ,kf3 +GAl  eulO &kx, ozpk  nKZ% ,ff5 $VAM  rrn+ $j",
"sd5p- ,7wwevp4w+ow4aMe<4w6X#p6uudd2i:o,79weza30+ow,fMs<395.%e,6e",
"jh,92=55624ZbZpookKcnw3355$2u45ihs:6,$653,,MMShOofAdzw<555$,6,3i",
"x5 @vpi  p9eNGfaffAAe5i  eik+ =kM< +lip  f75nAzfedVMw4r  prfO %h",
"rxunO ,jf3  MZckMpnZo ,hf5 ojupwjx7M+ 5ck9  MzkjjrzVX ,kk5 Xkwur",
"jq $p9eO.75f% pBZd ou9eoow5p-X*hVq %p0pOow6a$ emNf.oe6eOowqe*X*k",
"je#2i35%$q5w%@kZjd%-w4w%%w39,$,rze$4i4w=%e4w=$kzjd$=w27%%e55:$2k",
"sxwk+ 5ki< oZjinnfkMO 9fp5 @jwwqknwl@ 5la4 +VvpzNfkxo 3fp5 @lwed",
"M< ojak  a0unlpkkdfki6f  ppz+ +dC3 Xvak  pwiVzpjjfjle6i  eez@ @j",
"jj2i-.5we5-kMHk  iAnl,,ei7.$i46edj4f:.2ew<-knSk  pKMk,:9w6.$e56a",
"jd,6-$uw,5vHh-,$-q:5nnw365$4i,5ejd<w2=ww,qkHd:5%-9:5NZi315&,w,5p",
"z< @lek  vNM- 5jp3 @nkjo iwz# $sM< @via  nnz- 5ks2 #MNvo pikO %k",
"dj9z@ 2lcm9:aef  sef*,lch5  kwiedzeM+ ,jdk7:eik  rip%4vvk, Oxiri",
"j7.%i2iZnlpe, 4ew5.%w0vjx5,p, %dj7.$e,aAndwe-.,766.%5eVMV7,r: *k",
"jw$2w7aHRe-92=w633$,e:3KAkq5-$,ij7$496kHPw%5,$w7<5$4e,4HKk64,$2s",
"ij9i,ilkl4 #lip  pedO ,silp,wwewjzwi,gNkh< @kef  iiM# 2apva6puue",
"z< #HGz  iuv@ >kf6 .kpf  kVA> @kV, $LSA  ipxO 2kk5 onak  vHL- Od",
"sptmZe<5q6o%p6uOow5f:.5w557lg9uisfyZGiw566X$i6wooe6g>.2945wnbyap",
"kKPNau4255$2u5w=%939-$w63<,iBSLgpPUHgw5515$4i25=$w,q,=955,4gGPTk",
"NPeV8>e  w5p. ,e5< Os,9  w-%xeHmMAqC7,e  u5po ,ew, Oh49  u=&MeLA",
"ZRAYj=pnNv$4NmH>=mnHu=amZk$,HLUhlLSLa$kDDn=5LcV-=vkDu=gBDn-4ZHEN",
"ilklVZMmVMAlZLZZAMGznMzMGMnMhll71kzlmzvHSBZlAAzMlkAMMGmAAmKZlnlp",
"wzzrq8edsejfrderfddwerwrrejeekhq6hkgddrrjpdqrd8rrwsrrsrsderrhlkr",
"MYLA:+7q57@3d58$%d17:+q777#,AHLkkIAA1#e759+,s7w$$r<8,+w77q+,LHIM",
"VIqCs,a  ewk@ ,ih5 Odwr  e-:ZeJlzL1Jh,h  uel+ ,pp3 ofwd  f::ArLC",
"kHMxj<,qw5.#w5eO w9p;.,w61*1jJMrhSCxh4,ww5X%e6eo.w7r-.5ww6:<hUAh",
"lr1;lD0,<5%2w,7-%e47:$05<5Mg,<,eje<;hDw,51$4i4e=-a39,$97<6Mh:7<h",
"x1 $ZZlo rij@ 6jh5 @lif  zMz* %sx3 @MMjX pez# 4ll4 #kup  vzl* $l",
"kxek-<vll, Xjpf  ipN$ ,kll7,hwwqhxqf%2kkm5 omal  fpko :kzlw1gwug",
"VwX=0wnZS02f, ,5e7X*i,wAvfip>X*hx1 %wwnzA9,h,.4wiuo$i:iAkkpr- *z",
"xe=4i,5ULcw9>=w566$,57fALe-6,$2rdw%,w-6KZkpw2%u976%275pHPe-6,$4h",
"dMukO ,dpvk3iia  rpe:eMfd3 +kwwujMwd+ ,jpnk4apf  pie>iksk, @keui",
"x< ozpl  lDG* >jf3 @MMn  ppz+ #xA< ozik  lMK- :kk3 #VZn  ppV@ #l",
"hj<i-X4e95evi3qOo65pMs<50wX&e30rxj2p, <053qkf4w+ow3pnr69w7X%i4qs",
"dd,9,$w95,6nlHfookLdke5556#2w14gzr,6-$775:3vzApOOlAflw5751$4e,3p",
"x3 +lep  kwwmZvlkfZn99p  iez# &hz< @lip  f75zAksipMM95a  iiM@ $j",
"dC9n@ 2kv9 .ZMdmManCo ,fh5 onrpwjxwj+ ,kf5  MMpckeMAo :jk4 .liue",
"M8.%e5f@ow6a$ rZDn +e5p+ow6u-X-rM7 %i6eOow5p$ sHNj.Oe6eO.w6r> *j",
"xe$<w,7$=i57$$nVzk&*w57%=w27,$>rjw$:e29%%w,6=#kmlv%*w3e==e27,$2k",
"djwf@ 2sf5 OVkkmVkmMo 5fr< #zwwesxef+ 4kf5 OZMinNvkMO 9kk4 @lewp",
"x< .lep  p9iMvhzvvlkw6d  iilO #hV, Xlif  a0eMzalvkkvw6l  ppjO @j",
"sd2e, <w9,:jzHm  gLMk,*7e7o$i1qrjs5i-.,9w5-knLv  iSZk5:7u6.%w5wp",
"sd:5,$65,6nAh-5%-w,qMAi,55&4i,5gjs,q:$75,9BHd:5$-w:7MM6,45%4w,5p",
"x3 #kwp XZzx- 3kk1 &MMz  iuM@ &rx< +zwe  MmZ- 4kk4 #nlf. fik@ %j",
"sMez+ 2lll7:iik  aaz-,jfz6 oMiiedjwjO ,pfz5-kak  aii%3hkz3 .jwep",
"Me.%i2eHMghp- ,wwq.%wwmMMw,p, *kx5.$w,wAlrhr-.,we0.$77llM6,a: -j",
"jr$276dHUu>6,$w553$2e-3PLlu9,&,rjw$255rHRw>w,$w76q$2w-3JAli6:$2d",
"dM0e,iMdh, @jep  fez@ ,fgmg4guwqdx9e:pndk5 +zia  aph@ ,irnk3e9ep",
"V< $ANM  ipxO ,jkw ovak  lZL: #gx< #ACM  ahm@ ,jf5 .jif  jHH* #m",
"jd6nVq33uwX#w4w+oe6i,X<w959Vb0pgsd6mZw<4q6X%pwaOo75f:X<943eng0gk",
"kSSZfw5556$,w35$=a1q,=7445,aDPPgrKKVsw3555$5p4w=%w,w,&q51,,gmHTM",
"lZwC8-w  w6io ,7w, Xg9e  p-=VeHnfAwC8-e  w6f. ,ew, op,w  e-&z8AV",
"xIALs=pmDl%9ZnZ-&lnHu=kGGv-4PLTlnIVId=kZBM$3DnA2=nvGu&amDl-5CALl",
"iMjjnVlSSnMvnAznMzHZZMjHSmSAnVmweVzzNNMCAmMjZHnSAzZMMVjMSmHZhlxr"
};
