/* XPM */
static char *test2[] = {
/* columns rows colors chars-per-pixel */
"64 64 129 2 ",
"   c #020201",
".  c #0A0503",
"X  c #060905",
"o  c #0B0906",
"O  c #070C08",
"+  c #0D0D0A",
"@  c #110705",
"#  c #130B06",
"$  c #190C06",
"%  c #130D0B",
"&  c #190E0C",
"*  c #0E110D",
"=  c #1D1007",
"-  c #13110E",
";  c #1B120E",
":  c #0F1410",
">  c #141412",
",  c #1B1512",
"<  c #151915",
"1  c #1A1916",
"2  c #171C18",
"3  c #1C1D1A",
"4  c #22140D",
"5  c #28150E",
"6  c #261A0E",
"7  c #221612",
"8  c #231A15",
"9  c #2A1B15",
"0  c #231D1A",
"q  c #2B1E1A",
"w  c #321F18",
"e  c #1E211E",
"r  c #22221E",
"t  c #2B221D",
"y  c #33241D",
"u  c #3A261E",
"i  c #1F2420",
"p  c #232522",
"a  c #2A2522",
"s  c #252925",
"d  c #2A2A26",
"f  c #272C29",
"g  c #2B2D2A",
"h  c #322520",
"j  c #332A25",
"k  c #3B2C25",
"l  c #322E2B",
"z  c #3D2F2A",
"x  c #27302B",
"c  c #2D312D",
"v  c #373026",
"b  c #3D3125",
"n  c #32322E",
"m  c #3B342D",
"M  c #2E3430",
"N  c #2F3833",
"B  c #323532",
"V  c #3A3632",
"C  c #343A35",
"Z  c #393A36",
"A  c #373D39",
"S  c #3A3E3A",
"D  c #412F25",
"F  c #41322D",
"G  c #433B2E",
"H  c #4A392F",
"J  c #413C36",
"K  c #4D3C32",
"L  c #413D3A",
"P  c #37413A",
"I  c #3C423D",
"U  c #444035",
"Y  c #42423E",
"T  c #54443B",
"R  c #3E4540",
"E  c #3E4842",
"W  c #434642",
"Q  c #4C4644",
"!  c #444A45",
"~  c #4A4A46",
"^  c #464D48",
"/  c #4B4D4A",
"(  c #514C46",
")  c #514E4C",
"_  c #46514A",
"`  c #4B524D",
"'  c #52524E",
"]  c #4D5550",
"[  c #4E5952",
"{  c #535552",
"}  c #5A5552",
"|  c #535A55",
" . c #5B5A57",
".. c #565D58",
"X. c #5B5D59",
"o. c #635D5B",
"O. c #566259",
"+. c #5B645D",
"@. c #5B685F",
"#. c #62615E",
"$. c #69615F",
"%. c #5F6561",
"&. c #5E6A61",
"*. c #646563",
"=. c #646C65",
"-. c #686967",
";. c #646E69",
":. c #6C6D6A",
">. c #667069",
",. c #6A726C",
"<. c #70706E",
"1. c #6F7470",
"2. c #747673",
"3. c #787775",
"4. c #747975",
"5. c #777C78",
"6. c #7B7C79",
"7. c #817C7B",
"8. c #748178",
"9. c #7E827E",
"0. c #858582",
"q. c #838985",
"w. c #898987",
"e. c #8B8C8A",
"r. c #938B88",
"t. c #8D928E",
"y. c #90928F",
"u. c #939491",
"i. c #999B98",
/* pixels */
"S p r t t < B M g I f * i s p > 3 V I + O C { ) | | { / ) ) / ) ..' ) ) { ) ) ) ....p > p g B 3 > a 1 , 0 / %.E +.R A / M i > > ",
"d , 1 t 1 > i B s g i e M c W g g S 3   r y.*.%.*.2.5.X./ / ) { { / ) ) ' ) / *.7.#.p > + 3 p e 3 > , , p g E R ] C A W f A B 1 ",
"g j j > 0 3 p f M x i g c c i > i 2 X X 9./ : s f f / E p * o + > o + + > + + c e X + > + + + > p 0 & 0 > 3 C / ^ ^ I g i s S g ",
"1 0 t 8 , 3 B M C x s M f e p : i :   X.2.> f g f f p A R B 3 > > % & > , 0 > 3 L g 3 3 > + + 2 g g > p X 3 A g R | V + 3 3 M i ",
"3 8 ; 8 1 d l A A M s M A i c c >   c t.f f p f f M c c g p p 1 % & , % % + 0 3 f l 3 % + - X - p 3 2 e S B e g ..W e * f g N c ",
"J 8 h 0 1 d l N x s i c ! R Z Z O O q./ p s f x R E c c i < + - 7 7 , , > & , > g - - % & + > + p C B C Z g f ../ A e + i p R R ",
"0 a a r 8 - Z C I N f ! / Z s >   *.3.f A A A S x f e C R p e Y a % 7 , 0 , % & > % @ 7 0 @ o + + g g f g S B R W N p > 3 1 ^ -.",
"3 ~ L 0 3 < 1 B M A I c f f i   B i./ C f A S B s p f R ] W W d a 0 8 & & , 7 & % % % , & , , + + 3 f f c B g 2 f g f * f g f g ",
"- 3 p p f p * p s N e + e p X + q./ A f 2 f s s A g M ! ! N s 3 & , 0 7 & q y & < 8 1 % % a r o - > p B C c g p c f g 2 p c 3 e ",
"i * p B S A : : x I p + + +   -.*.+ s e f > * C ! M g ! N f r > 0 0 % 8 8 , < ; % d - + > > ; 3 2 + 2 f R S 2 2 3 f > > > 2 g e ",
"f g c 3 L A e 2 N S B p o   A 0.X > g c f p s d B B c g g M s p c B 0 % % # @ - + i % + > a > c p > + 2 S B > > > > > 3 + 3 B c ",
"A B > + e W c : e f e *   > 0.p . > l g s g B g f M M g s M s f Z B 2 + o - p + > 1 1 1 1 Z p 3 + X > 2 p < - + > 2 V e 3 d g e ",
"S B > O 2 I c 3 i p > X   -.) X > 2 3 3 f f i p f I C s p x f p g g g p > > 1 1 1 + 3 g e g n s + 2 > + 2 e + p 2 . 1 > 0 0 - 3 ",
"+ 3 2 - p C B f g g +   W 6.. , > % + > d 2 < A I C x p x e O e N s 3 > - > o + % 1 p A x f M n 2 2 f > - * 3 p > > + 2 , > > , ",
"+ : p e s A g f 2 2 O e e.0 + > % % > 3 1 3 * 1 p B s s x g e r p 3 + 1 + + s g + p g I x x x M B 3 , - * o p 3 3 3 + - > + % % ",
"                      { Q   > > + % > > > 1 > 3 r f i s B g N r 2 > 0 B 3 0 ' ` S p A S S g r g S f p 3 + :             .     . ",
"Q W Q Q W / W / ) R 2 > @ % + @ % % + X % + % p n n s f x g x g v 3 e 3 Y C P ` ^ A ` S c p p p B S A 1 . s ~ Q ^ W Q W Q Q Q ) ",
"#.X. .X.#.<.-.3.2.<.3 + 1 0 > , > - , 0 + , + > g g A x x I P M x n C # U O._ ! _ E A A < B S A i e > X - 3.-.) #.*.o.} o.o.o.$.",
"+ + . . X 3 . 2 > B S 3 > + % > r 3 , a 0 f 1 3 e x R C I I Y [ f d n 3 P [ =._ ;.+.[ A 2 C Z ^ f > + + X.3.  . . @ @ . . . @ ; ",
"Y d % ; 7 , > * 3 g Q L > + o + > L a % Q V p s < g C Z r s I ^ C I Y n P ! { | x P ..p N ! Z p p o X g w.1 1 & ; q 9 q 9 ; 1 a ",
"s + % , & , a 1 3 3 B S e * > e g 3 , > r , 3 S x m I s # s Y | [ P Y ' ~ s , Y i p _ I E R e > + o - 9.l & j @ $ D K u $ & % g ",
"p , , , % , p p o > e p B 3 - 3 B > @ @ % % p g m P s O * , n Y | _ _ E 3 ; r l p d R _ ! R N l > X { 7.a a z 7 $ 6 D = 5 & , C ",
"d , , , 0 > p r 2 > > p g e + * o > , 7 , % % , t n 1 < ; - - B ` ` Y P 3 < 1 > 1 > s S A R { g X B 7.a V % 7 h & 4 9 9 m $ 1 r ",
"X o o o 3 > 1 e 2 s e 3 3 3 3 2 X a 0 7 a 7 & , ; t ; n v d - 3 E I C C r p 3 + + - f N g ! A o + 0.V + + @ 7 7 ; q ; 9 q $ 1 % ",
"o o > > + > e p f 3 s < 3 c c + > 3 p > > 0 & & ; h & V / M N P N M x N P I A e > s B 3 x S +   #.#.. Z m 0 0 - - < ; ; < & + o ",
"3 3 3 3 3 3 > M 3 p c e / S 1 > > + , > % @ , ; 7 9 , d | I +.I M N c P E x e M p p C 3 M p   B 7.- - d P I U 0 & ; - % # @ - * ",
"g e e p > + > g e > g 3 : + r 2 + > X % > % , , & & , 0 Y ` I M P N E ! P e : r > > r r 1 X + w.n o & < 1 , g p - 8 1 # , ; r r ",
"B A p > X X > 3 p 3 3 > 3 e > > e + , + % % & , ; & % > n P x A I I P Y x * 3 3 1 + - > o   *.3.j , 0 1 p 3 m p < ; d r 8 ; l ( ",
"{ %.f * * X 3 p 1 1 % + 3 r > > c f > > + 3 g > 1 % % + s 3 i A I e > r r 3 < > % + r >   S 6.< p > > 1 * e n n * l  ./ a q p ) ",
"] A R M : O > p l > , e g 2 3 + > a p + > W W 2 + % % - s r I / W S s e g / s 1 3 l e X > u.g : 3 > 1 j , t C Q j q J F h a 3  .",
"^ R R ] M N f 3 1 % 0 W B M r + 3 L B 3 > i M i + < r p s 3 A I l I p > p l g 3 p f *   6.:.: s N r 1 3 - - ; 7 8 5 u 7 7 a 1 a ",
"_ ^ ] ;.| R e > & + p R %.! / f S f W B 2 + X X                                       C 0.c c N I s n g 3 - 8 D ( u w w 7 a a Y ",
"[ _ [ O.| I 3 , & % 0 V %.] p S ` 3 Z 2 + I X.] { ] [ { { | | | ..X. .{ ) ) { { ( ' p 3 g ` P [ ! c P x I r t j G u y t 5 , 1 n ",
",.@.[ ` ` Y s 0 , , > > M S p c ../ i   f y.%.%.+.:.+.%.;.,.6.9.1.<. .~ {  . .) Q } r * 1 R ;.@.@.I s C | U C v 6 y 6 6 , , ~ } ",
"! [ O.` ` ( U q 7 7 & > e Z I c N c + + e. .2 e s x M S c f s N S x 2 r > e + > < # > - : s ] O.&.P I +.Y I O.I 6 6 3 a n a Z X.",
"d { >.@.P 6 G b q 7 , ; 0 Z B c r +   X.9.1 > e s g A I M M x p f f W Z + & & @ , ; r s p * i I | f c T P Y @.>._ Y 3 d #.X.~ a ",
"r v ` Y a v T 6 & & q 7 ; > , 3 - . B y.p 2 p A B s x g d g a O 3 > a l 0 , 7 & ; , , p x > e N +.Z ; g ~ _ &.O.+.I B P x U m 3 ",
"v n r Z m 0 9 $ $ & 7 & % % + - X + y.W c N N p s g B x 3 3 % % - % + , 0 q h 9 ; ; a r A M > > n U 0 n =.@.[ ` [ C I I 3 1 t Y ",
"( d t c ( t 7 7 r 0 r 0 > % + .   -.0.c N N M < e B B r > + # 7 > % & q w q 5 T y % 8 - 1 ^ p + - } g C &.&.! O.&.! Y ` n g p Y ",
"~ c , a j 8 j 8 , - 3 , % % +   V y.W ! A C A c x c e + > & ; # & 7 h 4 w u 5 D 8 - % + B W S 3 - I I ` [ [ [ [ @.+.P @.` 1 x Y ",
"P r a r ; t a r p f 2 + - > . > r.V r 7 g c B B f A O 2 > , ; 7 w 7 7 ; 4 u 7 7 ; % ; % B { *.s > % N ! ] ..] ..` O.! @.@.P C ' ",
"` n a a r 1 g W E c 3 > > o   -.$.q l % > g g : i A p p p & , 8 q 8 @ @ q y # , 8 & ; 3 p { o.p % > 3 ! @.@.O.,.@.[ O.@.[ O.=.I ",
"X.=.n n n c >.! A < 2 3 -   I 7.8 r 7 ; 3 > C C R I ! a 8 ; % % q , 8 ; $ 7 & 8 7 8 8 r j ) } j > , : E >.;...+.O.E _ [ O.O.>.=.",
"( ( C #.#.( >.[ | f ] B X 1 r.a % 1 % 2 p > I S s l l + & < 8 q + % - % 7 q 7 q , a Q a l Z V , > % : i &.;...N I I E _ O.O.| O.",
"0 8 , 3 ! [ _ =...{ :.f X 3.*.> p p a > g W f 3 1 1 t a # < d 3 % , ; 7 q q 4 7 0 Q $.V r 0 r r ~ | e < R ,.| s _ _ O._ _ _ O.[ ",
"a 1 a 0 Z | ' | A B s   W 2.3 C g p p f W { ) d - t 1 , 8 - ; - < - 1 8 6 & ; l t , 0 a L l W X.1.,.e : p ] 2.E _ O.,.| [ [ _ Y ",
"1 1 3 , r s Y Y A M X p u.p f { B + - g g > s a , q = , 8 > ; > > a 0 3 r ; 8 q q & , 3 g B W { ' | / 3 * g _ S ^ R | ] P P N c ",
"          X X X X X X :.#.> A { f 3 3 g C p 0 1 ; q 7 7 a & , < B B A l / a ; 8 0 & & 0 l g W 2 M C l p > > X     X   X X X   X ",
"~ Q Q ~ / / / ] / ! p > > p g R _ x i i N ^ g , 7 q 7 q , 0 r 3 W A 2 p l d 0 0 , & + y Z W B * r S S 1 + g / ) ) ^ / / / / / ~ ",
"*.-.*.X.*.3.1.<.t.e.3 > 1 L / ] [ [ P P M x 0 0 7 7 & ; - 0 0 p S C f 3 2 0 , @ & 8 q 8 t c W 1 o a n o % 3.6.2.<.*.*.2.:.X.X. .",
"p c M i s p s I E S e > > e ] R [ ^ x N x N p , q h 8 7 p L l , V W 3 d g + . % & 8 t 0 d p I s * , o o { <.  > p f f M s . + . ",
"c S | X._ c R %.R i f f > 3 f f R R ^ R ^ R 2 > 7 t q 1 W p 8 0 > % , 1 , & % & % & , & 0 g N 2 3 + o g w.r g s g S S ) 3 % , , ",
"* p ! V 2 c | | C A C B 2 * 2 / W ^ ..] ^ S 3 > & & , 0 p > ; 0 , ; w 7 ; , ; % 1 B B n E &.%.p + O : q.` s p e ! x S d > > + @ ",
"< i > 3 % g %.X.N ] / c f > * * S %.^ R R / B 1 > , + > + > % & 7 7 q q 7 ; , % a ` A p @.5.;.^ O . &.9.p n e e S 3 a 8 > 2 r % ",
"A s 2 2 3 3 c N p f N c c e < + > M S ^ ^ A g 3 e p > + % % % , ; & ; , 8 % 0 3 - M x I ] %.;.c X c u.> p _ p 2 S V + o o # % , ",
"R x i < 3 3 f 2 < p f f N B 2 > X > S / R f f c d - > > % + % , 7 & & ; 8 + # - - e x ] ] _ W : : t./ e 2 I E - d S 8 4 0 8 a q ",
"B A M W W g ^ A S N f f B C > - > > 2 g M f C p > 3 l d % , , , ; % % , d 1 > 0 3 g f A | ! :   &.q.< i < x P v , ; t 9 w h j 0 ",
"S W f N f s / / C N C M c B 3 > > + + B M i p > o > p > > 1 % 0 & % 0 g e g 1 3 a f c < x i   S t.r n x P i x E p 9 8 5 5 4 $ % ",
"i p f A N i W f : 2 < p g 3 3 > : > o g M s 3 > > > - % p g > % , ; , c g d + + > 1 e < * X 2 0.Z 3 C c P E P Y n m 8 8 5 8 < t ",
"3 p A f i M N ] / f B A f - 3 0 d + + 0 B s 3 + % > > 3 p V a > % , % e p d a , > 8 - % X   -. .o 3 3 ! @.O.+.O.{ Y r t 1 & 1 c ",
"M 3 p 2 p M R ] g f S R a > 2 e l 3 2 - p p 3 o > , % , 0 g B a , > > 3 p 2 3 3 , - r %   U 8.O r r n =.=.@.O.>.%.a 8 l q + - p ",
"f B g / B A A g p > 3 > V B 1 g c p 2 > 2 g p r , 0 a & > > p B r % > % a d 0 f g 0 1   < w.d d n 8 t a _ =.O.@.S N p B Z Z 0 p ",
"{ V g g B p p p p e > > B Q 0 e 3 p i * > + 2 e % % 0 ; + + > 3 3 + @ + + + > > * # o   4.4.s ( I 9 6 6 g c ! _ _ 1.c 1 S X.S A ",
"R R i g M + p g p B e + > 3 > + > e C p * + . . o @ X + o X X X X + + o o X X X X X . P e.C P C s d t d 0 / =.>.;.+./ g I ^ f < "
};
