/* XPM */
static char *_906b70abb024264abebfb9d42f3a665[] = {
/* columns rows colors chars-per-pixel */
"64 64 186 2 ",
"   c #000103",
".  c #01040A",
"X  c #05090E",
"o  c #0A0C0C",
"O  c #000712",
"+  c #030B13",
"@  c #0A0D11",
"#  c #00041A",
"$  c #020E1B",
"%  c #0C1115",
"&  c #05121D",
"*  c #0B141C",
"=  c #0F181E",
"-  c #131516",
";  c #1C1617",
":  c #181816",
">  c #14161A",
",  c #191718",
"<  c #14191D",
"1  c #1C1B1B",
"2  c #221E1C",
"3  c #000D23",
"4  c #031324",
"5  c #0C1722",
"6  c #0D1925",
"7  c #021629",
"8  c #05192B",
"9  c #0C1C2C",
"0  c #131C24",
"q  c #191E24",
"w  c #131E2B",
"e  c #181E2A",
"r  c #041B31",
"t  c #0B1E30",
"y  c #121F30",
"u  c #211E22",
"i  c #0E202E",
"p  c #1D2126",
"a  c #14212D",
"s  c #1B232C",
"d  c #0E2234",
"f  c #142332",
"g  c #1B2632",
"h  c #172836",
"j  c #1D2935",
"k  c #152738",
"l  c #1D2A39",
"z  c #222224",
"x  c #282524",
"c  c #23252B",
"v  c #292629",
"b  c #25292D",
"n  c #2B2A2C",
"m  c #3B2B25",
"M  c #342D2D",
"N  c #31312F",
"B  c #222632",
"V  c #232B35",
"C  c #2B2D34",
"Z  c #242D39",
"A  c #2A2E39",
"S  c #322E32",
"D  c #312F38",
"F  c #273037",
"G  c #2D3035",
"H  c #26313A",
"J  c #2C323B",
"K  c #2C383E",
"L  c #333234",
"P  c #393535",
"I  c #3C3935",
"U  c #33353C",
"Y  c #3A363B",
"T  c #35383E",
"R  c #3B3A3E",
"E  c #552D1F",
"W  c #5E301C",
"Q  c #4E332D",
"!  c #543025",
"~  c #53362D",
"^  c #413634",
"/  c #453835",
"(  c #40373A",
")  c #433D3C",
"_  c #493E39",
"`  c #3C403F",
"'  c #43413E",
"]  c #49433E",
"[  c #2C3541",
"{  c #2E3941",
"}  c #343641",
"|  c #3C3742",
" . c #353A42",
".. c #3B3C43",
"X. c #363E48",
"o. c #393C48",
"O. c #423E43",
"+. c #493F44",
"@. c #423F48",
"#. c #334046",
"$. c #3D4145",
"%. c #36464D",
"&. c #3E4349",
"*. c #434245",
"=. c #4A4445",
"-. c #4D4945",
";. c #444449",
":. c #4A454A",
">. c #46494C",
",. c #4C4A4C",
"<. c #514744",
"1. c #524B45",
"2. c #584F45",
"3. c #52474C",
"4. c #534C4C",
"5. c #594E4D",
"6. c #4F504F",
"7. c #54514F",
"8. c #5B524E",
"9. c #474B50",
"0. c #4D4C51",
"q. c #544F51",
"w. c #5A4E51",
"e. c #4D5152",
"r. c #545252",
"t. c #5B5453",
"y. c #575853",
"u. c #5C5955",
"i. c #575459",
"p. c #5F5759",
"a. c #575959",
"s. c #5C5B5A",
"d. c #61544F",
"f. c #725444",
"g. c #615553",
"h. c #635A56",
"j. c #695A55",
"k. c #635659",
"l. c #645C5A",
"z. c #6A5E5B",
"x. c #735F57",
"c. c #715F58",
"v. c #5E605C",
"b. c #65625C",
"n. c #6C635D",
"m. c #736657",
"M. c #72645D",
"N. c #76695F",
"B. c #7F6A5E",
"V. c #666561",
"C. c #6C6461",
"Z. c #6D6861",
"A. c #736562",
"S. c #7A6661",
"D. c #736B63",
"F. c #7A6B64",
"G. c #7F6768",
"H. c #746F69",
"J. c #767165",
"K. c #7E7266",
"L. c #777469",
"P. c #7D756A",
"I. c #7F7C70",
"U. c #826D5E",
"Y. c #82756B",
"T. c #8B7569",
"R. c #847A6D",
"E. c #8B7C6E",
"W. c #857771",
"Q. c #857C72",
"!. c #8C7D72",
"~. c #927F72",
"^. c #8C8373",
"/. c #8D8979",
"(. c #938575",
"). c #9A8674",
"_. c #968977",
"`. c #998876",
"'. c #948578",
"]. c #958B7A",
"[. c #998E79",
"{. c #9E927B",
"}. c #A3937D",
"|. c #A59681",
" X c #A99781",
".X c #A49882",
/* pixels */
"G | O.0 B C w w A T =.4.8.8.g.t.8.3.O.J B e j C s A O.C U D D =.C D b.g.t.Z.u.n *.*.*.+.:.+.=.C ) D R O.O.U =.C B 7.8.6.=.*.D R ",
"6 e.;...w.U J H.].^.!.!.!.'.].(.!.!.!.]./.e.V @.i.} w.l s.Y.J ..J  .D.K.D.P.V.j l.l.*.;.p.t.W.l.q.g i.l.s.K K.G t ^..X[..XV.X.P ",
"f >...n.Z ;.}.(.l.,.,.*.:...} @.$.$.:.7.J.{.R.g p.q.&.D A 7.h G 5.;.Y O.) 3.4.F t.*.h J g U D.F.@.A l.M.n.J N.x 4 L.{.^.{.s.*.O.",
"e >.p.:.9 _.D.9 Y V J >.J.R U t.N. .T V B J }.7.f 7.e.L L 8.g 6.4.H G q s B >...b.,.c *.g g Y D U ..7.5.>.H Z.2 4 I.P.P.(.:.D.O.",
"> R q.f e.).U $.:.R V U F.l.l.D.i.:.8.g.*.g u.).Z j q.b +.U.D r. .f =.Y *.w A O.{ K.q.T =.6.:.>.{ Y n.7.B T Z.2 i Z.T Z.H.J t.w.",
"< L } j `.q.Z ;.e.t.F Z D 0 = f $.2.n ' a.J J !.b.6 ;.; B [ f t.l.<.-.7.t.;.5.t.J  .w.*.0.l.g.F.q.R 4.X.R J ^.x e r.;.s.6.>.} =.",
"B q q u.E. .*.Z >.8.D J O.g $ g e.p F.C ..e.g 3.). .g * 5 3 7 t.j...J G M U t.w...g a 9 B w y l j ..=.*.J f ,.2 V y.t.J f t.{ S ",
"J w b ).o.S ^ D D 4.K g U p : B >.J [ j $.U ,...M.Z.$ $ s V.X.d.R V &.L z 7 J t.q.5.U e ! p 9.*.9 =.7.8.l i s g *.t.>.;.J z.[ C ",
"C f V.F.F U =.*.O.*.>...T 6 c T 0 n n S 0 b t.;.*.~.U   c H.U 8.8.4.n.h.0...4.{ ;.n.b.b.g.{ D ..U J -.D k g } B $.$.b.R.Y.).9.b ",
"> T (.D ;.4.w.p.V ..-.2.R { { b.7.-.s c w H *.s.{ p.L.. M Q.h 6.U.<.*.5.g.c.j.$ L .X~.T. X6.8 ..o.L *.f R -.Y C 6 f ^.~.N.[.V.6 ",
"e C.Z.g >.n.7.U ;.6.$.j 6.D.z.D.Y.K.a.>.g g &.9. .} !.N 2 ^.j r.7.h G n g J o.& G P.n.J.L.{ 6 p n 1 g t 6 s 0 6 0 a b.A.S.).v.6 ",
"..Q.U J U *.U V N M 2 e ,.l.F.:.,.l.b.r.J Y =.Y O.U b.1.2 ^.j t.8.D h.d...V ..4 . + - % @ = ..0 0 9 f Y  . .{ V ;.K 9 V [ { f w ",
"B &.0...>.J g h $ O + a O.7.l.*.$...$.>.;.*.g $.,.R s.n M ].Z J 8.7.6.*.R ..4.7.I b $ p & =.>.d T  ...O.J U } V J u.f f 7 7 &...",
"B >.] I -.9.j b.y.r.i.a.t.r.r.y.y.w.t.h.N.7.Z 4.I P 7.J P _.Z 9 V H f J j 6 Z R.^.].b.l.e.s.I * c H ;...t 9 Z H f u.9.n.3.R..X8.",
"6.;.q W.0 ;.>.C.h.8.g.5.8.g.8.g.4.8.g.y.l...e.V =.b.s >.) E.5 g a...O.:.Z >.b...T $.^.b.7.y.$.6 p V ;.O.j V U < n r.w.y.(.s. .B ",
"L >.Z J H R F k.5.5.k.t.t.t.u.t.8.t.t.k.g...J ;.Z H  .C ' W.X e 6.3.k.:. .E.u.U 7.D { E.U p.&.4 0 y  .*.j H U q p b.Z D.n.s i.Y ",
"0 p P S S * D n.l.z.z.l.p.l.z.k.l.l.g.l.l.t.0 u P L x . 4.P.6 6 *.*.J $.f ..B y.!.} 6 b.r...{ f p p o.>.l Z U 2 % 0...P.V a D.n.",
"U Z b q & l [ J  .,.i.k.l.z.n.8.i.0...} J B f X @ < * X h._.9.r l...j D V g g q.z.J Z 6.R.U g Z 0 g ....V H [ S v y F.C.F j p.-.",
"R ;.X.a * ) C C B 0 s b U { ..;.O.;.>.U *.;.C.t.0 0 q & -.S.6.6 l.D K =.g *.>.U j @.t.J Z.Z.a Z f g R =.=.O.o.g 4 o.(.} 0.,.[ B ",
"..t.:.w v 1.6 A v . % O 0 H f j B t.a.=.,.>.7.*.< e s 5 a.L.S % ..K R R g P.{.0.O.:.Z.r.R ^.V a f f U 7.....O.J s P.u. .F.q.,.O.",
"D 0.;.6 1 ..K  .=.a w j G *...-.J :.Y | O.O...a = J ;.f Z.^.+ 6 J *.R U >.n.J.M.3.Y ,.>.$ b.2.$ j i D w.U ;.+.g ..^.w Z q.V 3.+.",
"V l Z 9 + C 8.Z J { 7.=.j g J *...:.3.R O.5.d.g 0 q c f &.6.a  .*.R *.L U 0.=.$.T *.A ..n.b.o.p *.6.,.,...>.=.V g t.b.7.C p.l.-.",
"B J { p 6 [ 5.-.,.O...;.=...R 8.T *.5.3.-.=.-...f V ' j i V U =.T ` T J J l.b.n.Z.7.Z l.Y.Z.6.0 D ,.g.4.,.Y =.g [ b.K.Y.{ s.|.8.",
"G >.,.s = o.4.*.*...D ..O.O.T ,. .:.O...O.Y *.>.f U 7.g F 6.G *.' U T R ..Y.A.A.A.n.;.a.;.s.h.. %  .l.k.3.....f $.n.*.l.$.e.W.+.",
"C 7.0.c 5 { O.G A J U J F J O.8.U t. .U f J *.{ j U t.v b >.Z ;...V z.Y K Q.G.k.p.n.Z f $.>.0 * 0 q g Z j A l 0 o L o.Z w l.Z.O.",
"D w.4.w b *.g ^ U [ =.L L g J U j T B 9 4 4 a Y 8 U g.n b =.G K U V a.>.F l.>.*.*.*.u.U o . . a V < 0 V V O.{ 6 & 4 R U r.,.>.R ",
"O.z.8.f ..t.D } j a 9 f f Z h i i 5 < e n v G *.g  .l.U g ;.V G N. .j 8. .6 Z u.t.r.P.m.X j b 0 c f t U J [ A H H } -.g.Q.u.l.=.",
"Y 9.7.q.:...;.w...g h f F R T R j 7 j =.O.4.| L o.3.=.A e g % 0 K.U h 4.J R M.7.a 3.D.h.7 s.;.s g g f ..| V { =.H ..:.t.J.8.o.B ",
"B w s ,.u.J s g Y :.D 0 J 9 9.,.g >.u.j.r.c.g.y.t.M.O.g M.I & r e.:.} ,.[ U g.q...w.A.X.i Y j ;.F ,.G 0.6.V D D J ..5.{ k.k.w.R ",
"Z 6 0 >.l.V * w { q.J q O.a 6.>.) g.o.7.c.*.1.B.h.,.j.Z b.,.9 c 7.t.-.k.J 7 $.7.4.3.D H J g...,.K ..a l.p.D >.f Z O.5.J J ..n.O.",
"B q 6 q.c.H 0 S ;...V w D g 9.>.O.H f ) 1.f ;.2.V a 7. .Z.,.$ p z.4.3.M.f m f.9.g 8 f q.J Y.7.=.Y ..{ 4...l.w.a a $.*.7.O.3 j G ",
"n > g J o.V & ..O.g { Z l a g Z =.C O.,.$.J b.1.G 4.u.K e...0 U 4.B U >.t v L l j  . .@.[ E.k.J g { g.z.K b.{ 9 F *.3.>. .{ { B ",
"Y 2 U Z ..J g d.=.g &.k Y 6.f s 7.n S 7.I C 8.g.n <.g.G w =.< C D.0.b.9.5 { Z F n.M.6.>.3.l.n.,.j g n.}.u.T  ...O.*.G 7.@.l.F.4.",
") M O.Z 3.$.k.M.:.H B p l &.n : 4.B T g.O.q ..z.J D >.p 1 8.5 t i.T.}.7.3 ;.>.f J :...U $.,.n ) u.Z y.R.7.D 3.,.J *.$.:.J O.>.U ",
"R  .,.V 6 0 w B d.k.S = f { L : g.R 8 ..O.6 V j.T i ;.p 0 l.6 t k.F.E.4.8 9 { b 4 $.>.7.>.p M.P R e.u.].s.V 7.U J F D.l.;...U a ",
"V [ >.f b _ _ Y ..| g 0 l [ S < w.4.D +.l. .O.c.8.T 2.Z h =.8 w.l.>.>.n.J C 4.B 5 Z $.=.;.J { l #.T l..Xu.a t.u.a U j.3.$.Z J B ",
"n 9.e.Z V >.0.4...f h =.{ j S - l 8.g.0.8.7.7.q.3.V F K ;.t.g D.a # # u.e.*.d.s $ s.I n c L n U n * b.|.t.g ..w...4.M.*.j s.{ s ",
"D p.$.3.4.J V A 9 7 ..F.p i V @ *.i.s n J 7.*.g f j ....9 { z -.u.$.>.l.l 4.w.4 -.Z.$ h s s v % . s >.w.K G K 4 j t.S.U 3 ;.D.s ",
"Y b.Y ..7.O.=.K j V ..0.; q s , i.[ 6 4 8 G B 9 9 f Y O.*.a.C * >.>.>.K j  .[ 3 h.Y * d 9 :.B < c p j *.Z D { Z 7 :.4.7 d 6 H.4.",
"O.s.i 7 9 Z [ V Z U ..o.2 0 i 2 j.V ..{ j i.8.X.6.;.Y ;.G g.O.6 t.w.g.k.n 4 5 o 2.p 1.&.j p.>.*.7.6.>.:.G ..s.s.[  .6.o.t.a b.t.",
"3.0.9 j j G Z G A J 0.>.> s g p w.Z ;.O...i.,.) O.s.8.:.g 6 0.V ..| 4.w.% n z   8.} [ ..J 0.=.Q D r.a.4.U T >.) ~ Y s.p...w A.O.",
"w.p.A U J l.:.=.-.-.O.D Z ..o.Z ;.O.g } V o./ W R e.&. .U $.t.e L O.} [ 6 g e $ _ A.f y l *.Y E Y ;.;.0. .V o.^ E U e.&.4 >.A.s ",
"B 0.w.D *.B.U h g i 3.=.T  .V a J z.J e T { n M V >.;.f K w.Z . < V j j 9 v G F 7 8.g.f F  .K { { { { :.Z Z T  .{ T $.J ..M.Z a ",
"g f  .4.-.>.=.V U K  .,...3.,. .7 A j.o.Z X.&.%.&.U f 8 q.{ J :.{ $...l { R M.*.4 9 4.t.j ..p.a.>.,.g V j D >.9.e.9.J *.A.A 7 g ",
"O.{ ..M.T | 4.T j.O.,.<.6 3.i.3.H  ...k.,...:.p.$.R J J x , U ,.U J J H b.j J U p.n.{ =.4.O.3.@.j A.q.=.:.D...J ;.} =.4.U i.n.O.",
"+.3.H e = [ Z Z v g H c e o.O.O.l.M.} O.d.3.3.g.>.q.g.z.: . =.$.w X.J g s.{ Z U ..*.D T :.O.@.:.V ..:.7.:.*.Z ..@.O.:.=.Z O.*.U ",
"<.z.g t a V ,.Z D >.j J :.0 b 3.....[ o.;.;.;.w...J o.4.c 7 ,.=.4 r.b.7 a.c p o.Z U a o.4.,.3.[ H ..U >. .R [ =.;.| ....a F X.C ",
"4.A.Y a g V <.U j a.*.g O.X s |  .*.n ..8.>.;.3...>.=.:.g f Z T *.g b.H >.n s  .T ..f { 3.:.| V | C p S v w | O.R o.R  .j U o.D ",
"3.t.A J K :.5.g.;.*.e.t ] 6 H @.A { q u ,.,.*. .} 8.*.i h j F J N.$.$.$.>.v V  .Y :.} y g U f g l 6 5 & 6 5 g V q U o.j J *.;.G ",
"w.0.g t.o.Z l.0.>.....o.) & Z q.>.8.Y + v ;. .{ O...J *.8.=.,.H U *.s V 7.6 B U g ;.t.{ 8.5.g H g a 6 0 6 6 g f g D | D 7.3.{ s ",
"O.;.y O.3.g g 9.O.[ f ..D & Z z v q.>.Z S o.J D *.B g U =.8.Z n O.,.< s  .& g U 9 | w.*.;.L 0 Z } V r 9 7 f { U J j | J q.3.H s ",
"s Z J } 3.g.A V w.S X B Z b n * g ,.>... .U J K ;.*.=.K  .g.j U t.i.$ s o.0 a J f | w.;.F Y g g [ g H Z J f A J ..J U K w.+.l g ",
"D ;.Z ....>.@.Y :.n $ c D & a 6 V :.,.Z V  .U J o.R T J R 4.V Z D j & V q.* a j f U w.@.8.>.9 f * q ;.D ;.D @ w j g K F g.:.k s ",
"R *.j V Z V g Z j s & U X.d l * g >.,.Z f J p - - P R  .*.T Z Y w.k.7.$.u.6 w j f ..:...T U f 9 5 L { a V ..w 8 f ;.@.t.;.e } A ",
"B &.c.n.A 4.j.4.p.t.&.o...c n 6 V 3.t...U *.U $ 4 p S ..6...A C ..p.7.Y 7.b $ =. .U Y D >.) c ;.9. .D j J A ;.;.K *.c n s $ 3.Y ",
"B :.4.R V :.C.;.6.w.8.O.*.4 6 ..} ..@.O.H t.p.#.0.n 0 j R 4.V G G K w.n t p 6 i.J 7 ..K 7.L a { l U { j J { j H l f B p V w Y +.",
"B ..J r j g j J T $.@.f V l Z ,.g 9 D K J =.} U D K ..Z D 3.J C V :.$.q 7.S 8 T A Z J J [ | f j 8 j A j j J 9 i V =.,.>.*.J T <.",
"V o.J f A l V V T 5.O.H *.R R *.J D ..;.@.V H V . < *.J K ..Y V V w...= ,.v 6 U Z [ A g d.=.9 i f J V j h A ..J J J J J U i ..I ",
"B -.A a | A ..V U 8.Y { I = 0 ..} ....| J f g k V g U &.=.8.>.-.f $.[ 0 C 6 i T V V J U Y 0 V J A f t j h w G J ..*.>.R ..:.[ C ",
"s ..:.J O.4.z...Z O.j l B * f o...O.....| j g 0 L $.U 6.O.] .. .J 9 f 0 a 5 s ..V  .Y ..=.X.O.=.*.F ;.8.g...j R R T =.U G Y Z D ",
"V r T h.| O.,.;.s j j w w o s >.Z Z J H H g g s s Z J g < 0 f [ ) 0 g w f * T 7...g.m.8.5.8.8.C 7.n.j.A.z.J R *...R J A b 0 a J ",
"D H i g j Z g l p Y Z 0 a o L } 6 9 6 f V V K U Z J J a c { 5 V R % ; 2 : - >.Z O.K.Y.F.g o.3...U J D K J U $.R *.U A t.n.D.e.n ",
"s { J d J o.o.{ 0 p f 5 < g >. .[ a.s.&.9 [ g.0.0...K D s g @ p G = C U 0 c >.Z ..Z 8 >.&.Z #.*.J d H j &.:...$.T $. .s.k k ;.U ",
"D G C V A Y Y D B p B z ; n | D <.h.t.5.B A Y Y U V C L b s p c B B v q v n D U V w s g D A D U D A Y G S G L G G U D C w e g Y "
};
