/* XPM */
static char *d6fa2a99dc69427a977ffe42b7de282f[] = {
/* columns rows colors chars-per-pixel */
"64 64 184 2 ",
"   c #160E05",
".  c #190F00",
"X  c #161204",
"o  c #1C1304",
"O  c #1F1804",
"+  c #15140A",
"@  c #1B160A",
"#  c #16180B",
"$  c #1D180C",
"%  c #1D1511",
"&  c #1E1A13",
"*  c #231504",
"=  c #2B1704",
"-  c #241806",
";  c #2A1A06",
":  c #24160A",
">  c #2B170B",
",  c #24190C",
"<  c #2A1A0C",
"1  c #31160C",
"2  c #33190D",
"3  c #3C1E0F",
"4  c #221512",
"5  c #2C1211",
"6  c #241B13",
"7  c #2C1D14",
"8  c #271E1B",
"9  c #2D1D19",
"0  c #351614",
"q  c #321D15",
"w  c #3B1D14",
"e  c #3A161B",
"r  c #321E19",
"t  c #3C1D1D",
"y  c #262017",
"u  c #2C2115",
"i  c #2D211A",
"p  c #2B291F",
"a  c #332215",
"s  c #3B2016",
"d  c #372916",
"f  c #392B14",
"g  c #33221B",
"h  c #3B231C",
"j  c #352A1A",
"k  c #392A1C",
"l  c #3D1E20",
"z  c #352421",
"x  c #3D2422",
"c  c #352A23",
"v  c #3C2C24",
"b  c #3C2C2B",
"n  c #3D3224",
"m  c #3D332B",
"M  c #3C3232",
"N  c #3E3C3A",
"B  c #431C1E",
"V  c #462712",
"C  c #4B2817",
"Z  c #41231D",
"A  c #48271E",
"S  c #492818",
"D  c #52251A",
"F  c #532C1C",
"G  c #42321B",
"H  c #55341F",
"J  c #431E21",
"K  c #422323",
"L  c #4A2523",
"P  c #452B26",
"I  c #4B2D25",
"U  c #432628",
"Y  c #452C2B",
"T  c #4B2E2C",
"R  c #532727",
"E  c #5A2524",
"W  c #542D25",
"Q  c #5A2C25",
"!  c #532E2A",
"~  c #582F28",
"^  c #433325",
"/  c #4C3226",
"(  c #453924",
")  c #4C3A25",
"_  c #45332C",
"`  c #4B342B",
"'  c #443A2E",
"]  c #4D3A2D",
"[  c #543325",
"{  c #5A3225",
"}  c #513D26",
"|  c #5A3A25",
" . c #53342B",
".. c #5A3429",
"X. c #543B2C",
"o. c #5A3B2C",
"O. c #432630",
"+. c #452D31",
"@. c #492E31",
"#. c #453332",
"$. c #4A3432",
"%. c #453B34",
"&. c #4C3C33",
"*. c #46373A",
"=. c #4B353A",
"-. c #443D3A",
";. c #4B3D3B",
":. c #523732",
">. c #593432",
",. c #523D32",
"<. c #593C32",
"1. c #523E3A",
"2. c #603328",
"3. c #623D2C",
"4. c #613C33",
"5. c #4E412E",
"6. c #54422E",
"7. c #5A432D",
"8. c #59492E",
"9. c #464036",
"0. c #4D4234",
"q. c #46423A",
"w. c #4C433A",
"e. c #4E483B",
"r. c #534433",
"t. c #5A4533",
"y. c #554934",
"u. c #5B4B34",
"i. c #53453A",
"p. c #59453B",
"a. c #554A3B",
"s. c #5C4C3A",
"d. c #5E5136",
"f. c #57513D",
"g. c #5E513A",
"h. c #61432E",
"j. c #614433",
"k. c #624D34",
"l. c #62473B",
"z. c #614E3C",
"x. c #6C4E3A",
"c. c #615236",
"v. c #62533B",
"b. c #6B543B",
"n. c #655B3C",
"m. c #695A3E",
"M. c #4C3D41",
"N. c #4D3E4A",
"B. c #523E43",
"V. c #474040",
"C. c #4D4344",
"Z. c #544444",
"A. c #584743",
"S. c #554A43",
"D. c #5B4C42",
"F. c #53434A",
"G. c #544B4B",
"H. c #5C4D4A",
"J. c #5E5241",
"K. c #5B4C50",
"L. c #625341",
"P. c #685643",
"I. c #655A43",
"U. c #6B5B43",
"Y. c #615148",
"T. c #6E5D48",
"R. c #745E44",
"E. c #705E48",
"W. c #7A5E48",
"Q. c #605150",
"!. c #6E6147",
"~. c #6D654A",
"^. c #6F6848",
"/. c #736247",
"(. c #73634A",
"). c #78624A",
"_. c #75694D",
"`. c #796D4E",
"'. c #7D6351",
"]. c #756953",
"[. c #7B6C53",
"{. c #7D7053",
"}. c #806A52",
"|. c #807056",
/* pixels */
"v r v S.s.Y.L.I.l.:.s.t.,.i.s.D.v.z.<.<.p.s.p.4.4.p.G.Q.h.t.g.A.H.Y.v.c.z.D.G.Y.s.p.s.I.j.k.I.g.z.c.s.D.a.v.s.] 1.i.r.:.D.S.S.b ",
"9 7 =.Z.r.] X.u.d.Z.;.X.r.` _ &.u.g.] ..i.N.i.8.t.P ,.s.6.0.r.C.C.D.6.` e.w.t.u.i.! o.5.u.s. .,.0.` 6.0.0.] ` X.w.&.5.` X.u.0.i ",
"j g 5.8.r.T o.5.8.z.&.I 7.d.e.0.u.u.#.w.r.r.a.u.o.@.,.r.X.] r.p.p.g.t.5.w.w.$.o.y.u.d.` r.6.0.w.u.r.` r.u.] W ..0.| X.r.] ! ~ c ",
"b t.`  .y.d.u.] ] u.e.-.r.7.7.s.s.r.;.Z.t.&.r.d.c.A.:.[ ` P i.y.0.t.r.0.6.r.e.w.r.t.8.y.t.8.X.} X.] v.m.g.d.,.X.o.o.y.e.t.] #.v ",
"P ! ' e.0.t.j.u.X.r.r.r.e.>.! r.<.^ ` 7.&.i.8.y.y.g.r.u.u...t.t.,.{ y.9.,.>.e.t.r.T 7.v.y.u.! W ~ } 6.!.c.a.N e.a.D.u.y. .6.r.P ",
"T P h s.u.X.7.n.o.! 0.8.i.H.$.+. .#.@...w.X...r.,.7.y.u.u. .r.s.$.X.6.<.a.y.s.%.*.w.t.r.t.s.#.+.#.~ | 6.r.u.0.=.F.A.y.6.u.i.y.` ",
"T ~ &.w.s.c.y.y.7.T [ P 8.i.@.T ] K ` d.d.r.0.r.X.$.y.d.8.&.r.y.0.q.7.E  .u.y.&.C.D.0.r.t.d.r.@.U +.{ :.+.] { ~ B.D.d.] 0.w.i.T ",
"! 6.e.t.u.v.,.o.c.^ Z ` r.! @. .+.U &.6.o.u.r.i.w.a.r.o.y.u.X.r.r.e.A.X.:.e.r.T ,.u.r.,.7.0.u.$.U $...Q ` X.[ W 7.y.X.` &.%.;.T ",
"Y o.o.&.e.y.7.X.u.( m [ 6.[ @.#.@.P =.p.7.7.,.y.r.s.y.o.k.c.Q $.r.] B.G.w.r.v.o.~ u.d.o.7.y.r.@.P ] =.! o.8.' L j.y._ ' 0.! ..Y ",
"v ~ ] e.,.] 8.5.] 0.| | 0.#.+.! Y l $.D.J.o.R ,.a.e.v.g.r.6.7.`  .Y T i.F.S.8...u.d.8.u.u.z.D.#.K $.%.] ~ o.u.` T t.e.%.` 7.[ c ",
"^ ! 0.g.] { y.y.I o.t.p.a.r.! X.,.K $.S.&.[ ] ] r.<...r.r.u.r.$.W &.$.6.a.*.T 6.d.u.8.g.o.&.D.T K ,.0.] ] q.e...[ r.y.` P P ] Y ",
"T ~ X.u.e.<.{ } 8.6.S.D.u.u.r.r.r.K $.&.y... .r.+.X.{ <.d.k.5.U 7.6.P y.r.T r.F.i.8.<.r.6.r.&.+.K p.r.] 6.w.i.k.<./ 8.X.r.P ,.` ",
"T ~ &...d.u.<.] 6.;.N.A.8.0.P t.u.P U @.r.k.` r.&.0...T u.6.$.K ` T K ] r.$.$.1.s.d.~ X.g.,.+.K +.g.r.6.0.e.A.D.<.L 5.r.r.0.u.T ",
"T t.r.r.6.u.r.5.X.i.A.s.u.w.X.5.e.p.U K @.r.d.X.X.w.Z.,.5.$.K j &.] r U :.5.,.C.e.| o.c.<.+.K Y y.r.r.0.&.w.A.Z.w.[ <.r.` [ { T ",
"Y ..X.&./ ` ` ^ ,.s.e.i.u.0.0.$.#.,.s.x z @.r.t.` *.a.X.+.@.x a 6.5.q K $.@.,.y.#.] t.,.#.z P s.$.#.` 0.%.1.i.#.w.<.,.X.&.&.` v ",
"v  .&.$.8.6.r.| <.y.y. .7.] +.$.T +.P s.x z ! o.a.$.r.] z i a g _ _ 9 a u z ,.r.#.a.o.T z v t.P @.$.+.+.,.s.` x ] r.X.7.0.9. .P ",
"T ,.5.r.Z.s.d...o.u.u.7.r.y.P Y @.l < G u.: : Z h.v.m.T r g $ , a i @ ; g r ` n.z.| s : 2 y.a 7 K +.U P d.0.] P t I r.5.r.6.Z.@.",
"T ^ _ r.A.C./ o.d.8.d.] <.8.c.P t < u D.x.C @ + 3 7._. .] s.a $ x t : p z.X.P (.x.2 + : F k.g.a < t / v.8.:.$.] P J ` X.u.` u.` ",
"T ~ w.6.y.#.] a.e.8.s.u.~ r.s.c.k a p.|.T.i.k : . k / ,.I.b.0.- 7 7 q a.P.n.7.[ j + : v s.L.[.a.a ^ v.y.r. .] ] r.u.,./ p.$.X.T ",
"T { 6.r.r.T r.B.-.0.,.s.] $.=.s.c.P.|.T.y.e._ - @ @ * ) E.v.+.6 7 7 : ,./.u.^ o @ - < M r.T.E.`.v.v.s.$.` +.,.u.u.] 7.8.y.&.I I ",
"v ~  ._ r.] ^ / X.y.[ r.<.~ t.t.u.v.U.,.d.8.9 o $ ; : 7 q 0.U = r r 4 T ' h ; $ , = X u s.u.] T.v.c.j.r.{ 7.r.X.r._  .t.d.d.Q v ",
"Y ! %./ <.5.&.,.y.k.] r.c.u.^ R s.P.y.e.L./ . @ $ i 6 6 c ,.h < P v : Z &.c 6 6 q # * o _ z.e.d.c.k.L ^ d.t.,.a.i.y.A.F.u.7.o.P ",
"@.^ P / [ &.#.*.9.w.&.o.a.u.Z $.v.U.r.b.o.6 - 6 9 r - < #.I $ h D.s.q - ~ #.> < g 9 7 o 9 o.c.y.v.z.+.L u.:.W } &.w.y.C.&.! 6.` ",
"T I T ` _ ] d.q.-.;.&.T ] 6.P h d.5.w.I 2 X & A Q P b g 1 7 < h.m / 7.% 6 2 z v P Q h 6 o 3 +.,.y.u.t P r.X.....9.%.6.,.#.a.A.@.",
"! t.r...0./ } ..r.L.u. .R ,.r @ e.J.s.l r t t Z D L >.g o x b ^ X - ( b h o k >.P D x Z r r K D.a.0.. z ] ~ <.] 0.` ] 5.` ] =.T ",
"Y o.o.~ X.5.` E ..7.u.X.$.O.= 9 / G Y T 1.P.W.i.b x L X.' v ! @ : o 1 ! b ' X.L x M $.b.}.1.P ^ G / 7 : @.$.! +.} 8.] r.] ] ` ^ ",
"v ~ ` Q ,.N.r.7.X.;.s.] U 6 q L I : : 6 j r.[.I.,.I z _ 1.x ] < < & y ] x 1.P z ! X.~.[.0.j 6 : 7 T L 0 2 +.&.,.0.<.[ X.] $.0.v ",
"^ ,.0.] r.A.p.c.e.q.&.=.J z K q I 7 @ : . @ P p.u.t.K 5 a K g $ a a , h l 9 5 Y t.t.z.v     @ = a I 6 U x J &.! <.6./ / 1.-.9.T ",
"T ` ` C.r.r.y.<.X.u.1.K U =.q $ F h - u 7 , o 8 ,.I.u.y.` K % 6 , , 7 4 U ` y.u.U.0.< o ; 7 7 & Z F * r =.U K ,.8.r.0.I r.8.q.$.",
"T ] &.a.e.T ~ o.,.$.P U $.U ; - @.9 6 K $.v - o 7 _ _.} q 7 - < u 7 - - 2 r r._.^ < o 6 Y @.x > h ^ @ 1 Y *.K T ;.U } 6./ ..~ @.",
"P u.r.o.y.t.r.&.$.+.Y ] P t 4 ] K 7 - x @.x 6 + 6 - H a o $ 7 % i 7 & 7 : X V [ < & $ 7 x +.j @ 7 P ( % l I ] +.+.X.0.e.t.$.@.v ",
"@.5.,.&.0.k.r.e.@.Y a.&.K 1 Y s.Z a q i r r a 7 ; @ r 2 @ - u ; a a ; 7 @ O r 2 $ @ 2 i r a r 9 r P z.z 1 U ,.a.U K p.a.X.X.5.T ",
"T ! &.s.s.X.R w...o.o.K l P c.k.k #.T Z g , > v w.n : S 3 $ 8 a x K a 7 @ a V - m 1.v - 7 r K $.+.j z.s.K l L t.o.B ] 8.8.r.y.T ",
"T P _ e.s.h.] 0.] p.` l Y u.E.K a 0.v.m.r.y 4  .v.1.z $ 7 = $ 7 +.U 7 $ ; 7 : x 1.L.T 4 i i.c.c.&.7 T /.r.P e ` I.P ] } r.w.e.! ",
"I ` ] a.s.s.r.8.d.r.x P t.s.[ t r [ d.U.U.].` P q.&.6 : : u - : a r : : 7 @ $ 8 &.-.T &._.[.c.k.[ 9 Z ..c.y.U U S.@.` r.0.0.;.@.",
"v ~ ,.r.F.s.o.o.d.P U t.g.$.v - g U R ] v.}.`.r.$.z : * $ # u 6 h r 6 u @ O $ > v +.P.{.).z.] L U a - T >.v.r.J +.B.T ] y.6.A.v ",
"Y [ o.y.Z.V. . .<.@.>.k.$.@.< 6 H r l U Z [ E.n.J.m h 8 @ = &.u u 7 u &.X * 3 g m I.m.t.A K K t h F % , =.$.t. .Y p.c.X.r.#.y._ ",
"@...0./ t.w.%.#.Z.&.r.,.+.z 9 L ..K K U 4 . Z j.x.f.7.R % : i $ 7 u 6 i + 1 R 8.f.R.k.h o 5 U K K X.U 6 P +.r.y.Y &.r.@.*.e.0.T ",
"T ` %.A ..y.q.F.S.r.5.X.>.p l T #.t K v k : X 1 Q R.^.P x ' 7 = a 9 : s ' t ,._.k.F 1 X 2 G v J h #.P t g >.X.5.&.` Y T 1.s...+.",
"T ] y.c.<.r.! i.,.` &.X.Q T J t t 9 J f.b.[ 4 . * k.U.I r.x.s 4 y u @ x x.r.,.R.[ : . 6 o.z.f.x r B l K ! { X.&.&... . .8.} X.T ",
"P <.r.X.g.8...} 5.$.Y *.,.A J J r : <.(.c.s._ : X , s 8.`.[ - $ t 0 * @ ..~.] s ; @ : _ e.E.b./ : h J t K r.#.O.+.0.u.6.y.' y._ ",
"v W X.o.u.d.y.0.u.] &...P l P g ; s._.n.c.D.b : @ X o n } u < < _ b < < 7 ) n X @ $ : _ s.m.v.(.^ : x K t / ..0.6.7.X.r._ | o.v ",
"P X._ e./ ` / ` ] r.^ / B ` P < ( (.L.&.z.` : @ - 7 , < o x b L L.s.A #.h : < < , @ $ < :.t.e.U.(.G 7 ` / t ..k.8.[ X.5.%.&.I P ",
" ...x $.6.} 5.[  .d.j Z ` ,.K w z.8.c.s.+.< * @ , g 6 , _ v K t.f G 7.l b m @ 6 g - O X 6 $.s.k.U.y.0 K r.T T $.X.6.X.<.r.9.! T ",
"T ~ ,.8.y.F.s.k.r.r.' U r.U l ` v.(.t.$.r 7 7 q r J 9 z w.+.Y s.r h s.K #.w.g 8 Z l q 6 7 x :.y.v.E.` t P ,.$.%.%.w.r.~ 6.i.s.T ",
"T K X.X.9.w.c.v.r.%.~ X.&.K P /.v.,.r.t J t x _ T @.K U ! ,.0.r.K P y.0.:. .P K @.@.@.x t t K r.<.m.p.K K &.,.0.q.w.s.k.k.s.u.T ",
"v J ` X.y.u.o.o.y.T #.p.P U r.v.u.^ K t K @.@.$.*.@.@.#.T r.d.,.B K r.d.5.@.@.+._ #.$.@.@.K t K ` c.c.<.U I a.%.y.s.C.A.D.F.s.Y ",
"v K i.9.,.{  .e.8.] r.&.+.r.z.z...U K $.$.] +.@.&.#.Y t.r.y.r.0.@.T 0.r.y.] @.@.&.#.@.Y X.#.@.K @.$.L.~.] Y ,.e.] :.N.A.C.w.r.n ",
"T P ` y.a.u.6.,.d.o.Q I i.s./.y.T K =.r.$.^ K $.&.w.#.u.&.,.$.&.#.$.q.9.r.7.! $.] T $.U ^ ] r.$.K T u.c.z.,.T ~ X.` ,.D.F.;.! T ",
"T J ` u.z.c.,.i.t.~ [ <.d.c.{ T $.&.r.r./ z :.u.8.r.s.s.0.] 5.$.T T ;.i.A.s.i.T 7.y.r.&.j _ ,.r.=.+.I 3._.y.X.~ ..T 5.u.c.e.;.` ",
"T ! } v.s.r.9.y.6.6.u.s.c.t...#.A.z.0.r.y.r.e.<.Q ,.a.w.X.[ 6.r.] ! ! s.A.F.1.Y X.r.] :.r.:.#.;.z.C.@. .r.z.y.y.8.A.S.~ o.8.X.@.",
"I / u.7.r.e.z.k t j.a.u.s.w.w.$.t.y.k.Q &.r.i.G.e.%.&.r...t.e.e.r.$._ _ r.Z.w.} X.r.&.T 7.d.y.;.8.s.#.q.r.c.z.r.8.s.s.<.~ ! ..I ",
"v ~ y.! ..8.<.P 5.c.y.,.] B.F.r.x #.<.I &.%.0.v.r.X.[ 8.D.A.u.r.>.y.y.6.T #.&.r.X.6.0.-.y.o.7.u.z.r.i.Z.B.] y.] ] y.8.d.d.q.y.m ",
"Y o.a.a.p.` %.s.n.y.5.r.] r.7.X.^ T ] 5.c.e.&.<.[ / y.e.w.S.u.6.8.<.o.X.+.+.+.r.<.} y.r.Z.:. .w.w.9.r.7.r.` X.y.<.r.5.X.r.q.e.Y ",
"` u.0.y.r.w.#.P ' &.y.r.y.y.&...c.o.5.8.s.e.,.[ ] / ,.s.0.,.t.0.0.>.o.T #.r.,.&.0.] y.r.w.s.y.0.e.w.&.` a.t.h.n.o.W ] _ *.0.0.@.",
"T z.0.[ 2.f.#.+.=.&.9.r.8.X.s.u.u.u.&.0.8.o._ y.n...o.8.u.o.7.0.e.y.y.r.I d.d.I T t.r.$.r.y.r.r.c.z.s.w.a.v.y.u.7.Q X.r.Z.u...T ",
"` u.0.P o.X.t.G.G.A.u.v.a.#.0.u.d.e.e.>.! I P ` t...u.d.8.d.u.] X.&.y.r.K P ` _ ] <.` [ N.F.N.0.u.v.v.u.o.r.r.6.d.8.6.5.o.6.t.T ",
"Y o.o.%.&.<.c.e.w.L.a.r.e.i.9.0.` ] o.Q ] P / x K y.d.8.d.z.} I <.e.r./ [ x Z X.d.^ h  .>.w.C.s.k.c.v.u.{ ~ 8.v.v.o.&.0.[ Q <.^ ",
"v W &.y.&.,.y.r.r.<.$.N a.k.X.&.` P L ` 6.T ^ ` ..r.X.` X. .] <.o.a.] ] ! ^ ~ <.6.P ` 0.! / ^ r.t.o.u.g.0.` 7.d.r.X. .,.6.,.~ v ",
"T ` ] 8.X./ ` $.$.:.p.e.<.t.&.r.0.B.r.` ] y.$.$.` W P _ X.] ..r.X...6.` P / | ` _ T y.:.] i.;.&.r.&.t.o.w.A.,.` #.,.` ] u.] T Y ",
"T P @.` ,.9.a.,.R ` y.o.L r.s.y.r.a.r.*.0.8.0...L ` 7.6.0.6.6.g.u.7.6.P 5.6.` A ..0.8.0.$.,.S.r.r.g.r.L o.y.` R o.s.9.&.] +.P T ",
"T t.T 8.u.r.D.0.r.[ [ ! 7.d.u.8.d.t.! &.Z.y.] 5./ ] 0.8.r.` 5.o.6.5.] 6.r.r.] / r.5.r.Z.;.[ 8.d.8.8.s.,.! W [ 6.0.S.a.u.8.T t.` ",
"I u.! ] u.0.w.q._ [ t.,.r.u.6.d.u...t.s.i.P ] r.&.I / _ ,.] ~ T K 0.X.[ ` ` T ] r.` ^ 1.s.8...t.u.t.d.6.,.u./ _ q.q.r.u.] ! t.I ",
"#.4.a.a.s.L.D.a.e.D.D.s.c.j.z.v.z.4.v.L.H.D.1.A.s.a.s.s.1.s.j.c.z.s.s.i.s.s.i.g.p.1.D.K.L.c.4.L.v.z.h.g.f.z.D.C.a.D.z.s.Z.s.<.&."
};
