/* XPM */
static char *_7e1f9dbbf47403ddee3ce70959d2b17[] = {
/* columns rows colors chars-per-pixel */
"64 64 170 2 ",
"   c #090300",
".  c #140E03",
"X  c #1E0F0C",
"o  c #131105",
"O  c #1C1303",
"+  c #1B1807",
"@  c #161409",
"#  c #1B150C",
"$  c #1D180D",
"%  c #141710",
"&  c #1D1610",
"*  c #1F1A12",
"=  c #221504",
"-  c #2B1607",
";  c #231806",
":  c #291904",
">  c #24150B",
",  c #2B170C",
"<  c #25180C",
"1  c #2B190C",
"2  c #311C0E",
"3  c #391B0C",
"4  c #231712",
"5  c #2B1412",
"6  c #241B13",
"7  c #2C1C13",
"8  c #261719",
"9  c #27181A",
"0  c #2E1C1A",
"q  c #341415",
"w  c #321B14",
"e  c #391C16",
"r  c #361619",
"t  c #391519",
"y  c #341C19",
"u  c #3B1E1B",
"i  c #27220F",
"p  c #2E200A",
"a  c #31220F",
"s  c #272110",
"d  c #2D2114",
"f  c #272218",
"g  c #2C231A",
"h  c #2F2A1F",
"j  c #342214",
"k  c #3D2114",
"l  c #3A2917",
"z  c #34231B",
"x  c #3B241D",
"c  c #36291C",
"v  c #3B2B1D",
"b  c #3E311F",
"n  c #341E20",
"m  c #362221",
"M  c #3C2422",
"N  c #342B22",
"B  c #3C2B23",
"V  c #37292A",
"C  c #3D2B2A",
"Z  c #373022",
"A  c #3D3223",
"S  c #37352B",
"D  c #3C3329",
"F  c #3C3435",
"G  c #3F3837",
"H  c #411E1E",
"J  c #452514",
"K  c #42221F",
"L  c #412A1D",
"P  c #4B2B1E",
"I  c #5E2615",
"U  c #562D1E",
"Y  c #582C1E",
"T  c #43311F",
"R  c #481F23",
"E  c #432523",
"W  c #4A2523",
"Q  c #442B25",
"!  c #4B2C25",
"~  c #412628",
"^  c #4A252A",
"/  c #452C2A",
"(  c #4B2D2A",
")  c #512624",
"_  c #582720",
"`  c #522D24",
"'  c #5A2D24",
"]  c #542E29",
"[  c #582E28",
"{  c #433225",
"}  c #4B3126",
"|  c #4A3B26",
" . c #46322B",
".. c #4B342B",
"X. c #453B2D",
"o. c #4D3B2D",
"O. c #543325",
"+. c #593425",
"@. c #563A27",
"#. c #593B27",
"$. c #54342A",
"%. c #5A342A",
"&. c #533B2D",
"*. c #5A3C2C",
"=. c #462E31",
"-. c #482E31",
";. c #463432",
":. c #4B3432",
">. c #463B34",
",. c #4C3C32",
"<. c #453D3A",
"1. c #4D3A3B",
"2. c #523532",
"3. c #5D3732",
"4. c #523D32",
"5. c #5B3D33",
"6. c #533D3A",
"7. c #603F29",
"8. c #613B33",
"9. c #4C4027",
"0. c #4F402D",
"q. c #54422E",
"w. c #5A432E",
"e. c #57482F",
"r. c #59492F",
"t. c #474037",
"y. c #4D4235",
"u. c #45413A",
"i. c #4C4339",
"p. c #534433",
"a. c #5B4433",
"s. c #554934",
"d. c #5B4B34",
"f. c #53453A",
"g. c #5A463A",
"h. c #544A3B",
"j. c #5B4C3A",
"k. c #575037",
"l. c #5E5036",
"z. c #5D513C",
"x. c #62442E",
"c. c #604535",
"v. c #624D35",
"b. c #684D33",
"n. c #644539",
"m. c #614C3B",
"M. c #684E3E",
"N. c #615236",
"B. c #63533C",
"V. c #6B513E",
"C. c #66593E",
"Z. c #6A5B3D",
"A. c #4C3C45",
"S. c #513B41",
"D. c #4D4343",
"F. c #544443",
"G. c #594643",
"H. c #554A42",
"J. c #5A4D42",
"K. c #55474A",
"L. c #5B4C4A",
"P. c #575145",
"I. c #5D5142",
"U. c #645443",
"Y. c #675943",
"T. c #6A5B42",
"R. c #6B544D",
"E. c #6F6040",
"W. c #716047",
"Q. c #716148",
/* pixels */
"2.4.4.z.p.4.g.1.1.g.U.J.5.n.H.j.h.K.L.h.4.j.g.1.4.4.*.2.,.p.n.5.I.I.4.p.g.j.5.*.4.2.h.j.4.j.L.K.h.j.H.m.5.P.U.f.1.1.g.p.f.B.4.g.",
"B ] ,.s.4.$.,.p.p.%.o.u.j.l.$.4.p.......q.p. ...&.%.,.! ..p.s.*.*.,.{ ` %.! ,.$.&. .;.p.4. .....s.&.*.l.h.<.2.*.p.4.o.] &.s.>.3.",
"B $.%.u.i.>.:.e.p.q.y.y.j.%.! q.l.p.,.,.,.&.} } &.%.,.` o.s.,.x y Q E ..s...X.&.&...} q.0.4.o.p.j.h.p.g.y.f.d.p.q.w...O.w.q.%.8.",
"( d.p.i.d.4.s.w.E { f.h.p.Q o.p.p.<.;.:.o.O.$.&.$.+.r.s./ } Q M :...} Q ..*. .] ] &.$.U ,.;.;.i.p.p.0.O.@.t.f.{ E w.p.s.p.s.p.C.",
"( B.t.y.e...o.t.h.&.o.w.&.*.w.p.u.u.i.d...} y.;.4.4.d.d.o.} E P p.I.*.E E q.q.| / ..y. .:.d.i.u.<.p.w.*.B { o.&.h.t.X.e.e.4.,.Y.",
"( l.p.<.o.} ! h.N.s.e.*.( h.j.G.h.,.w.q...q.&.i.d.K.l.q.p.o.;.} *.h.*.} :.0.s.p.o.>.&.q. .&.w.,.h.J.z.f.( 7.q.s.N.f.} $.x u p.Y.",
"/ q.f.p.v K b.Y.e.N.*.} D.f.F.F.d.$.)  .p.p.O.d.c.j.f.0.| B.f.B :.l. .C f.d.o.o.a.4.+.y.p.:.) $.d.F.F.f.D.] q.l.r.T.v.E w E y.m.",
"B [ B.r.v p.E.M.o.f.H.,.;.o.p.p.} :.;.&.p.i.s.w.2.y.>.x v Y.4.5 { T.Z q a.B.,.X.@.q.y.i.p.p.:.X.X.4.f.o. .4.J.f.q.V.T.s.z t d.8.",
"/ } e.,.o.q.&.$.y.<.6.o...e.:. .y.q.0.*.y.X.o.&.p.s.&.:.P.p.( z | E.{ M :.p.h.s.p.X.o.o.,.*.s.p.y...X.q.} 4.S.>.y.@.&.w.{ E e.5.",
"( $.o.;.$.] o.o.e.&...} q.y.;.Q O.s.p.q.g.] } &.5.C.Z.v.*.O.r E g.B.d.E r $.*.l.j.o.| ` d.4.j.d.} E ..p.o...{ q.e.0.&.^ ! Q &.4.",
"( W / p.;.1.| &.d.s.o.} o.q.U &.[ *.&.:.p.w.d.B.g.$.w.d.*.*.z { U.j.U.c x *.%.f.w.#.d.*.p.o.&.%.%.q.` *.y.:.,.s.N.o.o.1.~ u Q ] ",
"( E  .h.h.6.! s.t.t.<. .o.! O.4.$.' } o.o.#.h.f.&.+.O.I.F.o.M ,.d.^ d.X.E ,.J.I.' %.,.f.e.@.&.%.%.g.O.! ,.;.>.t.t.s.` g.g.E Q :.",
"Q Q 4.;.d.&.v.s.<.u.u.s.o. .y.>.4.*.f.i.p.5.j.p.<.a.U f.f.x / T.&.r w.U.{ x f.y.U d.>.j.f.5.h.h.5.>.y./ o.k.y.<.<.s.v.&.B.E o.o.",
"N E &.w.5.&.:.L.j.p.+.$.} q.@.o.k.d.1.1.j.j.$.g.y.o.@.] j.y A N...Q o.B.x x j.` *.o.h.p.*.z.g.;.f.o.@.e. .$.%.s.I.L.:.&.5.*.o.( ",
"/ u Q o.%.s.M 1.f.o.^ 4.h.i.&.$.&./ E ( ..o.5.d.g.y.j.w.{ m j.&.M u.M w.g.B { x.h.p.g.d.&.o.( ( M O.e.y.d.2.( 2.p.1.M w.( &./ / ",
"^ $.4.~ f.p.o.q. .R ] %.%.e.j.v.B y y 6 , E ,.z.p.&.z.j.z B Y.&.,.I...4.U.N M j.j.4.h.g.o.M 4 2 0 x s.g.%.$.] R  .e.&.d.H.E 4.3.",
"( %.E ! B.s.p.&.! } 4.4.a.e.l.$.M < Q y @ < } o.$.{ o...e { p.0 Q 4.v y p.B u ..o.! +.} Q > = K v , / w.c.4.p.} ! w.y.d.C.E Q 8.",
"( *.E E q.%.p.o. .p.y.i.l.e.d.g.^ w 6 Q / B 6 W U E } x m J.q.m Q  .Q M 4.h.x B ! E O.x 2 Q / C 4 w ( d.l.i.f.h.=.o.p.%.4.E E j.",
"/ $.!  .l.>.y.o.o.y.u.u.;. .q. .Q 7 = Q 2.O.y y x /  .B B U.4.! } } } / p.z.c Q  .Q z y x [ :.E @ g ( E ,.u.i.t.p.q.t.>.d...! c.",
"B $.s.e.i.u.y.r.s.0.q.f.1.&.>.p.:.E * x z E Q Q d x ..x B Z.| m -.( :.z p.B.v E } c z { ! K x z , M 2.p.<.f.q.q.w.r.y.u.i.e.q.8.",
"} &.&.;.1.+.s.o.o.*.*.d.p.q.s.g.g.:.7 w u 4 2 O.4.{ 5 z U.q.z  ./ H / ( z s.j.j w / p.U * 2 u 6 6 1.d.d.p.d.*.*.4.X.s.+.S...&.f.",
"(  .y.&.[ [ ` =.o.s.e.*.$.h.J.#.}  .x 1 M / ; 4 ( p.c g Y.| k k A U.c J w p.B.f C p.E < 1  .u 1 E ..! w.w.*.q.s.,.;.` ' ] 4.p.4.",
"^ $.i.p...B z :.y.r.d.4.&.y.f.y. .O.x w / ;.1 ; 1 c d.m.B.{ . A m.a.z.b o X.B.j.p.z 1 # y ;.Q 7 K O. .i.4.*.s.e.y...z Q  .p.i.3.",
"( %.w.j.d.q.&.Q ..p.6.<.s.f.<. .;.( E z u <./ 4 u 1 0 o.m.{ v I.*.Y *.I.z | v...z * w 2 -.;.u z W :. .:.<.S.f.0.:.! o.q.g.m.w.5.",
"B $.] $.d.&.[ $.y.p.:.Q 1.D. .Q p.O.[ Q N Q :.M 1 u @ , ( j.m...z M x X.m.j.( > : x 1 Q :.E h ! ' @.4.Q  ./ :.p.0.$.+.&.l.$.] 8.",
"Q ] >.! q. .&.%.y.o. .Q >.:.Q } } } h.v X.z B.h.$ e O Z m.&.! B s d s V P *.j.N O w * z.d.z >.B j./ / } ! } / ,.y.*.&.{ q.! >.3.",
"^  .! q.e...} y.o.4.q.E E ( ../ :.g.g.o.Q m 6.p., O S c.! z M j.T.T.T.g.m z P c.V O j g.X.M ! $.z.h.(  .:.E X.4.o.y.! ! e.&.! ,.",
"( !  . .N.#.+.s.o. .i. .{ :.g.4.4.w.j.{ u =.w -.:.{ 6.Q m M U.m.4.a.4.U.j.u C / 6.N ;./ 0 :.w X.j.w.&.p.f.o.y. .o.s.+.w.B.../ 4.",
"( *.h.B.*.W $.r.&.( :.Q } j.j.z.;.` &.M @ / } -.1.2.q E &.g.p.x 5 7 5 x f.p.4.u t 2.1.-.( B @ E *.P 1.l.j.z.p. .&.r.$.) q.N.s.a.",
"} d.f.r.e.| o.y.,.^ *.,.o.,.*.a.h.,.u w w o.j.( x M } ] Y.$.> O 6 1 5 @ 2 *.U.` ! M x ( B. .7 w M 1.h.4.@.g.h.>.y.y.| :.w.e.F.B.",
"N y.F.o.y.:.,.q.O. .X.( o.,.$.y.6.l $ w x.B...4 , *.N.O.B X O y R ^ R 0 O > B %.B.O.- w :.B.7.5 @ P f.y.$.,.j.p.&.&.,.o.p.o.F.j.",
"/ h.e.;.<.;.4.$.! | p.p.t.h.e.a.x 7 N :.p.( M 8 x 5.,.2 . + K 2.K 5 E 2.u + o j ,.@.z w E &.p.=.h 2 K c.a.i.i.k.} } ,.;.<.;.s.I.",
"..d.o.<.t.k.s.C } %.&.g.i.h.+.I j  .R.:.E e  .R v J.z o # w ^ I.A   9.J.^ 2 O o M h.c ^ ! r M 6.R.B j I @.i.f.6.,.Q y.k.i.<.o.C.",
"( d.y.h.p.+.o.| ] %.} :.i.h.a.w.M w h ;.f.$.u 7 c 5.;.1 O $ m 2.B 5 E ( H % O d 1.*.z 2 E 4.p.:.c 8 E c.d.i.i.y.:.X...+.p.h.t.j.",
"Q *.,.w.w.} :.*.&.] o.p.g.,.$.y.4.v < w x.z.( 2 1 @.B.$.L = O e E ^ R 0 O > B #.N.$.4 w o.B.*.1 < B p.p.O.,.k.s.` &.o...w.5.y.5.",
"Q &.e.*.r.h.A.4.s.%.@.s.d.p.*.p.h.,.u q 3 o.I./ m E ! ] U.$., O 7 2 6 @ 5 *.Y.! ! M m -.z.! 3 q M 4.H.4.*.f.p.p.w.p.u.s.r.w.w.a.",
"( %.p.j.s.i.6.} | *.5.o.4.B.g.j.;.! *.m # / } -.1.:.q E &.d.f.m 5 3 5 v s.a.o.E t 1.2.=.( C @ E *.W 6.z.k.j.p.p.X.$.4.i.s.r.p.g.",
"( (  .*.p. .o.w.p.o.}  . .:.h.4.4.a.j.{ y =.0 =.( { 6./ M m m.B.6.6.1.v.g.z C / 4.b :./ w -.0 X.j.p.&.4.f.;.$.4.p.w.}  .s.%...4.",
"( { ..w.q.E C k.w.^ ! @.X.Q :.! :.g.g.o.Q c f.e.< @ { c.! z m j.Y.U.C.g.m M ` a.v @ 7 d.>.x ! o.z.f...}  .Q ! ` x.h.E Q s.e.} ,.",
"C ] y.d.d.E E d.v.*...q.p.} Q { Q  .g.m ;.z U.p., r O Z m.@.` m 2 a 2 C ! *.d.z # y 1 J.d.z ;.v g.! /  .! 4.:.&.d.k.E E d.d.>.3.",
"B [ $.p.e.! $.l.B.&.;.p.o.X.:.Q p.$.' { c / 2.m 4 x @ , ( l.j.o.x L x ,.j.m.( $ = x 4 E ;.E c ! ' $.p.Q ;.s.&.,.N.d.%.! p.p.$.8.",
"( %.w.s.,.y.d.q.&.! 5.o.o.y.u...( o.E z u >.Q 2 u < z o.B.{ z I.*.Y w.z.j X.m.:.j 1 y 1 :.;.x z E :.....u.s.*.! q.q.d.i.,.e.w.8.",
"( ] i.w.*.z.a.] a.d.e.p.;.>.h.y. .` x w / ;.1 # 1 v g.N.Y.D . T g.g.j.L o X.B.l.d.z 1 # 7 :.{ 7 K +. .f.i.y.w.d.a.] d.B.%.w.t.5.",
"^ ! | z.F.F.6.j.W.&.,.K.6.o.g.*.}  .K 1 M C # 2 ! g.z j Y.| u J b U.v J w q.B.7 E p.E ; * / u 1 E { } *.H.K.:.*.W.g.6.F.G.j.o.4.",
"} 4.,.K.j.a.%.! z ] 1.F.l.d.s.g.f.2.< w u , 2 +.p.B 8 g B.q.z ..Q M / ( z s.l.f d { p.` 1 2 u 8 6 2.j.g.p.F.6.O.j ! %.w.g.F.y.g.",
"C $.,.w.$.e.l.Q 0 g.f.>.p.r.,.,.:.M & x x E } B 0 c } B B Y.| n :.( :.z &.C.v E ..z d Q ! K m u < E ,.p.y.<.f.6.w { g.p.$.&.>.3.",
"C [ *.d.p.o.| X A a.] w.z.o.:./ ! 7 =  .:.[ e 0 x !  .B B U.p.} } } } / p.I.v C  ./ z y u [ :.B @ e Q ( I.w.' m.N & o.o.s.l.*.8.",
"} w.s.e.4.Q 5 9 j.d.d.p.d.B.y.h.^ 7 6 / / c 7 W U E } M M h.o.m Q / Q M 4.f.c E ! E Y K a N } / 1 9 } C.d.f.r.e.g.8 w K p.e.s.m.",
"( ] ,.&.K { <.y 5.e.4.>.t.N.p.( x 1 b 0 = 8  .&.$. .o...0 Q p.w { 4.C 0 p.v x ( o. .$.&.Q @ O K c 4 ! l.p.G p.p.*.u <.A E p.,.3.",
"( ] } g.*.4.f.e.,.} Q ,.h.N.p.%.! m w 6 , E &.j.p.4.z.j.z B Y.4.o.I. .a.U.N x j.j.0.g.h.2.E 4 7 0 y | Z.h.,.Q o.X.s.F.4.*.a...5.",
"( $.i.P.s.! o.p.E  .p.r.p.q.o.$.%.) E } $.&.*.g.p.4.j.x.{ M j.*.M <.M w.j.m  .x.j.p.g.d.w. . .&.W ! o.0.s.s.o. .Q e.} ] r.K.i.j.",
"B [ :.6.*...6.6.{ o.p.w.y./ $.%.4.*.2.,.h.j.*.h.f.&.$.O.j.y A N...! } C.c M j.` %.o.p.g.$.r.p.,.w.+... .d.s.&.o.! 6.>.} *.6.:.U.",
"Q 4.%._ ' w.D.A.*.*.X.p.q.| *.] }  .m.s.y.f.f.p.<.w.U f.6.z  .Y.&.t w.U./ v F.p.' d.<.i.i.k.s./ :.O.4.4.e.q.o.w.&.S.H.w.+.Y O.j.",
"( 4.h.w.4.I.G.P.g.K / :.{ :.s.X.! } 1.;.u.>.i.4...w.[ I.H.&.M o.d.Q d. .M &.y.d.} q.f.,.<.;.:.$.! | g...Q  .Q E e.K.J.h.4.5.p.P.",
"^ [ 4.h.<.<.f.x.*.o.} Q / } .. .@.q.,.,.y.e.e.} p.r.w.s.%.*.z A U.g.Y.x v 4.q.k.&.X.e.d.y.,.o.q.O. . .( } Q } o.5.x.f.<.u.h.f.n.",
"( } x ;.u.t.s.o.! p.f./ } { ` ! ;.,.o.o.} s.s.e.s.:.&.*.w.O.r E g.C.p.M ..q.q.f.r.q.p.s...} X.q.,.! O.X.!  .p.p.! &.s.t.u.;.n 2.",
"{ ] { ,.p.l.p.! ..e.s.<. ./ ( ( o.p.! O.,.O.O.5.%.( ;.*.y.y.( y | E.&. .t.*.,.%.$.*.O.$.w.) O.y.o.} o.:. .u.p.s...! s.v.p.,.{ 4.",
"B w.o.} o.d.} ] l.j.<.i.i. .F  .q.p.Y *.j.&.w.} ! *.z.@.U z.a.5 A C.} >.s.w.p. .! $.*.&.B.*.O.y.o. .;. .y.y.<.z.l.` &.e.} } } M.",
"m c ,.6.A.y.p.,.w.*.i.h.@.! ;./ o.y.q.+.b | s.q.p.*.} o.e.B.p.C X.z.O.&.s.o. .o.q.p.e...b #.q.p.4./  .( w.d.i.4.w.,.p.t.A.6.&.{ ",
"z 6 4.h.f.q.d.z.2.! w.j.e.} ` } E O.q.w.E ` l.d.k.o.Q Q o.s.,.} 5.h.4.q.} :.o.q.s.l.d.` E e.w.` B ] ` } p.j.*.! 4.z.e.s.f.j.:.h ",
"0 5 7 z v.l.e.v.l...` 2.y.0.} E E ! o.p.p.w.e.p.} } s.} } s.o.E q.1.X.:./ s.e... .p.e.w.o.p.4.! E E } p.h.4.` } l.v.r.l.g.j 7 z ",
"z < < 7 { z./ ,.d.p.p.f.y.d.,.Q q... .$.s.l.e.o. .q.C.q.L o.q.| ! ,.*.' &.;.4.,. .o.e.B.w.$./ o.q.E o.j.y.i.4.q.d.,./ m.A 7 7 z ",
"g 5 z y.&.E :.l.N.d.y.i.e.e.:.&.l.r.p.e.w.0.E ..o.4.y.t.o.` $./ v  .} o.q.,.o.p.e.&.! &.s.w.q.e.B.&.;.e.e.f.p.d.B.e.;.E o.o.z d ",
"A B f.B.U.G.p.N.N.j.j.c.8.8.g.4.g.g.B.6.8.*.2.4.U.c.z.g.f.2.y.5.5.p.2.f.j.p.f.4.f.4.4.*.5.f.B.j.p.4.g.8.8.d.z.j.B.B.4.J.Y.C.D.X."
};
