/* XPM */
static char *_69124169c944993fd4e43c65de70e35[] = {
/* columns rows colors chars-per-pixel */
"64 64 102 2 ",
"   c #040401",
".  c #0B0501",
"X  c #060805",
"o  c #0C0905",
"O  c #060908",
"+  c #0C0D0B",
"@  c #130500",
"#  c #1A0500",
"$  c #140B03",
"%  c #1B0C03",
"&  c #120E0C",
"*  c #180E09",
"=  c #0F100D",
"-  c #161106",
";  c #1C1205",
":  c #14110C",
">  c #1C140B",
",  c #1E190E",
"<  c #0F0F10",
"1  c #120F10",
"2  c #0F1112",
"3  c #141313",
"4  c #1A1615",
"5  c #171817",
"6  c #1C1916",
"7  c #171719",
"8  c #1C171A",
"9  c #17191A",
"0  c #1D1B1B",
"q  c #230D02",
"w  c #290E02",
"e  c #241304",
"r  c #2A1405",
"t  c #251907",
"y  c #2C1A06",
"u  c #221609",
"i  c #2A1709",
"p  c #241A0A",
"a  c #2C1C0A",
"s  c #301606",
"d  c #321C05",
"f  c #381F07",
"g  c #321D0A",
"h  c #211717",
"j  c #221C15",
"k  c #281D11",
"l  c #201718",
"z  c #211D1C",
"x  c #281E1C",
"c  c #1F201F",
"v  c #2D220D",
"b  c #352106",
"n  c #3C2306",
"m  c #33230C",
"M  c #3A240B",
"N  c #35280E",
"B  c #3B290E",
"V  c #2D2211",
"C  c #2F2911",
"Z  c #25211E",
"A  c #2A231E",
"S  c #332511",
"D  c #3A2611",
"F  c #352912",
"G  c #3B2B12",
"H  c #352B1A",
"J  c #3B2E19",
"K  c #3E3217",
"L  c #36301D",
"P  c #3E3219",
"I  c #1E1F20",
"U  c #241E25",
"Y  c #271F28",
"T  c #1E2021",
"R  c #242322",
"E  c #292523",
"W  c #272826",
"Q  c #2B2925",
"!  c #262229",
"~  c #282329",
"^  c #272829",
"/  c #2C2B2A",
"(  c #302A25",
")  c #312E2C",
"_  c #35312D",
"`  c #2F2F30",
"'  c #322D34",
"]  c #363533",
"[  c #393530",
"{  c #442B07",
"}  c #412709",
"|  c #442B0C",
" . c #482F0F",
".. c #46300E",
"X. c #432E14",
"o. c #492F11",
"O. c #412F18",
"+. c #433115",
"@. c #4A3213",
"#. c #45331A",
"$. c #49341B",
"%. c #4A381E",
/* pixels */
"' ! U ! ! ~ ! ~ ~ ! ~ ~ ~ ~ ~ U ~ ~ ~ ~ ~ Y ! ~ ~ ~ ~ ! ~ ! ! ! ~ ! Y ! ~ ~ ~ ~ ~ ~ U ~ ~ ~ ! R ~ ~ ~ ~ ! U ! ~ ~ ~ ! ~ ~ ~ ! ' ",
"z z 3 4 6 6 6 0 4 3 4 8 0 z z 8 c 0 6 j 8 3 3 0 z 6 0 4 8 6 8 6 z 6 3 7 7 4 z z 3 3 4 6 0 U 0 9 0 6 h z 9 1 6 j 0 I 8 3 5 6 0 8 ",
"W z R R 0 c 0 6 0 z 4 6 9 6 7 / / Z j Z 0 z 0 4 , 0 7 4 c 6 0 0 0 x R R z 0 4 8 c 4 6 8 9 5 Z / W A Z z 0 Z 9 , 4 0 6 8 z 6 0 ! ",
"( R E W c 0 Z 0 R R z 0 0 8 0 R R R Z Z Z W R j I z 6 0 T 0 Z 6 R R ( T T z z z R R Z 0 0 8 T R z R Z z x W R z I 8 6 T U z 0 ! ",
") / 8 8 T Z A c I j j R T Z Z 0 4 6 z U Z c 6 Z R I z R 8 9 U 8 / R 6 9 R A R 0 z j U T R Z U 6 4 z j Z T 8 j R R 0 z c 8 Z 0 ~ ",
"~ I 3 3 W A R T 8 2 0 R R 0 c 3 6 R R j R 3 1 8 0 0 R 9 3 0 T j T 0 1 Z W j R R 2 3 Z R 0 j 9 : I Z Z Z T 1 8 0 0 R T 3 5 T 0 ~ ",
"_ E E ( _ E W W R E E R R R z E R ( W R j E W ~ z E W R E Z R W A A R _ / A ^ W E E Z W R I E U W ( W A Z E W R z W R W A R W ~ ",
") j z Z j j Z A Z j z 6 9 0 6 j j Z Q R Z z Z j 6 j z 8 Z A W W z j Z c k 0 Z A j R j 9 0 0 6 , j R R Z Z j j 6 z j 0 6 A W W ~ ",
"=   X     X     O X X X X O X     O X   + X X           X O +     X       X     O X X X X o       O   o O               + + X ~ ",
"j u > ; > % . & . - - u $ - u ; - % @ $ @ $ $ $ : X - $ - % ; $ ; u : ; e + . @ - % - - & u u * - @ . % % - $ ; o o $ @ . $ $ U ",
"#.| X.X.O.b @ S e S G #.g S $.| { B w s u p N f V , S m m G K d } O.G M | i # w b M B y p #.$.D X.e % N b D g d % q n g q N g U ",
"#.B N N O.S @ a S N m O.i g #.B n X.i a p u N N v , S v N G J d | X.F b b % # s d v G y u #.#.B X.q ; G r r d w % r g g s b r U ",
"%.X.B F X.G @ r b m d K a m J } f m e s a p B g p p H a b N J g n @.N s d q % g a b B a u #.#.D B r % g e r y w % i f g d M a U ",
"#.X.J F O.D @ q g N b K V a X.n d n q i u t N S a , v V d G G y f f d q q % % f b a N a v #.#.D N y % y e s # @ @ u g g i N a Y ",
"$.X.X.G X.G . @ w i b O.a i O.M d n q e S y g F V - p g v J D y d s e q w $ @ g C a N y a #.#.G N r % i q r @   @ p m g i G a Y ",
"$.o.X.B X.G @ @ q e b O.i e +.b b n q y N V m N V - e y m G N q d y y % q ; % N m y N v v #.#.G q q % i q r e e $ k m m g X.g U ",
"%.#.B s { X.% # # q d o.a p X.n f e @ y N m S b V o q y y F D e y d s # @ . ; b N v F V a #.G X.v u q e e e q r ; u v v a K v U ",
"@.o.a ;  .| $   i r r +.i a O.b r .   p G a v S C - q r b K D r d n e @ $ @ % b m m F v g #.G D O.v # e e r e a ; u y v b G y U ",
"$.@.r % X.X.. . i b d X.e i O.B y @ $ a N a y y N $ q q r F b r d B G e q @ % N N v D a S $.X.m o.m % q e r i m > p v S S J i U ",
"#.| g a J X.$ . $ S N N q a #.G d $ % t N a y a v $ w r e S b r d S J r q @ - N S S G S k $.O.N D b % e a e a F ; u m N v O.m U ",
"#.{ J L +.X.e     k G b e a #.G M p $ a N a g N v $ y y % m M e f X.F d y # % N N m K m V $.O.D N f % a a w y v - u y C N X.m ~ ",
"#...H C X.X.e % > F D N r V O.B | a # a N i D B u @ y y q f N q n X.F n d @ % G B a N N a O.O.M  .B % i g r m S - p S N m K a U ",
"@.o.J S v u > r m F G N p S +.X.B y @ m m e B b e $ s w e g m r { X.V D M % > D r N G D a O.o.N f i e a g r N G , u b v N O.m ~ ",
"@.| F N m u ; r s M m b i F #.J n d @ m N r a m a $ r q q n f q n o.N K ..@ u $ @ n X.m y #.O.G     w g g g m G , u y N S X.g U ",
"V u , 3 , , + $ * : : > - : , , u & X - > - : > - o & $ $ - > + - u , > p + +   X > j : - p u , & : - $ : * , , o = : , : , - ! ",
"~ 0 9 8 0 0 z I I 0 0 0 T T 9 8 I I I 6 8 T I R I W I I T 8 0 I I 0 9 8 I T T z I 0 8 0 I I 7 9 R I 0 8 0 T 0 0 c R 9 c 0 9 I ~ ",
"_ E A R E R ( W E R Z E Q ( Q / / Q E R A A E W E / W R ^ Q A R R Z Z A E W W Q R R A E / ( / / / A Z R Q A E E Q Q E A W A A ~ ",
"/ T R Z z z 0 6 R W I 0 0 Z Z ! E E j Z Z R U z Z 0 x ( z z R 0 I ~ Z 0 j z 6 z W R 0 I z 0 W W E Z Z Z R R 0 A c 0 E Q j R T ~ ",
"W 0 0 5 T 0 z z 0 3 z U 6 6 I 4 4 Z Z R x 8 4 z z 0 z R 3 6 U z 0 T 3 0 R 0 z I 6 4 R R 6 Z 0 : 0 R z R T 5 4 R z z R 6 3 z U ~ ",
"W 8 3 6 6 0 0 0 6 4 z 0 z U 0 4 6 U 0 6 0 5 6 z 0 8 z 6 4 z z l 0 9 8 6 0 0 8 0 8 8 6 0 U 0 8 4 z z 0 0 8 6 0 6 7 7 j 4 0 z 6 ~ ",
"W 4 4 8 0 0 6 4 6 0 z 0 z z 6 j 0 z 6 z 6 4 0 z 8 0 6 6 z h z 0 7 4 5 6 0 0 4 4 j 6 0 z z 0 4 z z 6 j 0 6 8 x 6 0 6 z h x j z ! ",
"W z z 6 z 0 0 0 W U 6 6 6 6 z ~ z A U 0 6 R z 6 8 0 6 j R j h z 8 x R 6 z 6 6 U W 0 0 0 6 6 Z U x E U 6 6 ~ 0 4 6 U 4 z R h 6 ~ ",
"/ Z 8 3 6 6 0 0 z 3 3 0 0 j R 5 4 z U 0 8 0 4 0 z 0 8 6 9 9 8 6 Z c 9 4 4 6 0 U 8 3 6 0 6 U I 2 6 z z 8 9 6 3 j 0 0 6 5 5 0 6 ! ",
"~ 0 6 0 z 9 6 6 8 4 4 , 0 9 8 Z W 0 j j 9 3 4 6 6 6 9 3 0 6 8 0 z 4 0 6 6 6 6 8 6 4 4 6 0 6 6 W R z j 0 8 3 6 6 6 0 8 3 6 8 0 ~ ",
"( 0 A W I z 0 8 z 0 9 0 8 9 8 R W E Z Z Z Z 0 6 6 0 8 6 9 j 6 z z j W ~ 0 I 6 0 0 0 0 8 9 5 0 / W E Z x Z R 0 6 0 9 6 8 0 6 0 ! ",
") / R R T z A c R R Z T c c R R 6 z z R j W R Z R R 6 R R I z z W W R I I x Z R R Z R T c Z W 0 6 Z z z R R Z Z R 0 6 W R U z ~ ",
"/ ! 3 3 Z A Z R 0 3 z R T z R 7 4 U c j R 9 : Z T Z R 0 5 6 Z 9 R R 3 6 R A R R 3 , R R z Z 0 3 6 U Z Z T 2 4 R Z T c 6 3 Z I ! ",
"E z 6 Z ` A Z T 0 0 Z R T 0 0 6 z R Z R x 6 8 0 8 0 T 0 8 c T Z j 0 6 ( / 0 R c 6 0 R R R z 0 6 R A Z Z j 6 c 0 8 Z T 9 0 R T ! ",
"[ E W ) ( A / ( E E E j R U x x W ( ( W A E W W Z E W R E E W / ( R Q / ( E / Q E ( A 0 T U A Z E ( / A E E W R Z E W Z A W / ~ ",
"Z = : 1 = : 3 : 4 3 3 + 2 3 1 + & 3 9 3 6 3 : & o - 3 = : 6 0 5 1 3 : = : 3 : 3 3 3 2 = : 2 & & 1 5 5 3 7 1 : $ - : : = 6 0 8 ! ",
"& .                   X .   o     X o         . X         . .         . .         . . . . . .           .     . X         .   ! ",
"J M D V F y @ u $ p m D u a G f b y # r - e p u j - i p t V S u d G V b b > @ q y y y u > J J a g % @ a r a u r $ $ i e # r r Y ",
"#.B | G O.N @ m v N B #.v m %.| { | e s p i M M V j S N M G X.b | X.F M B e # s b N K y i #.$.G X.r % G b M d s # e N f r b a U ",
"%.B N D K S $ i S S b J i S o.B n B r a v i N N p , S a N N G d } @.N m b q @ s y v B y u O.#.N | e e m e r s q % r f g a N r U ",
"$.X.G S X.G @ e b N g X.a v X.N g m e a p t B m p p V m d B J a n | b e r q % g a b N y p #.#.D D r $ d e e r q % p g g s N a U ",
"$.o.O.D o.F . # r g m #.V i X.n s n q r k t m N v > k v g B K r g s r q q @ % g N a N y v %.#.G G y $ y e s #   @ t g g s G a Y ",
"#.o.X.X.X.X.. . q e b +.i e X.n d n q r S m v N v : y y S F D r d r r q r - # m m b N v v #.#.G y e % a e s % @ @ k b m g G g Y ",
"%.O.} g X.X.$ # # e b O.a i X.f f f % r N m m b V $ e y v N m r d y d % % $ % M m y C V a #.X.B q % q r q e e r - u m m a X.a U ",
"%.@.f s { X.- @ # q y O.i a X.f d $   p G g m N V $ q r b G G w d f r # @ . ; b m S F v a #.D X.J p % e e r q y - u v v a G a R ",
"$.@.y % .....   y s y o.r a o.N y . . a G r y a C - q q y J N w d N y @ % # - m S m C a g $.X.N +.m # q u r e m ; u y v N G a U ",
"#.X.r % J X.@ . ; N b K e i O.G y o % p S a a a V @ q q e F b e d M K s q @ % N S m F S S #.X.m X.m q q r e a m > u m N v X.a U ",
"#.B D J X.X.-   @ k G b e a #.G b ; % y N a d g m - s y ; D b r g D J y q @ ; S S m X.S k $.#.D b f - r i r a S ; , g S S o.S U ",
"@. .J H O.O.e $ @ v G N e V #.G B d @ v N a m G v o d r q m G q n +.F f d @ ; B N m N N a #.#.S | m % i a a a S - p v N S X.V R ",
"#. .H C G S u e a H F F e V O.G B a # a m e G B ; $ g r q g b r } X.S N d $ ; | b m N D a P O.m  .D e i g r N F - u m C v X.m U ",
"@. .J N v ; , r g G B b a C $.O.B f @ S B e N b t $ y w r b b r  .#.m G | # p i % n K G a $.+.K - @ w a g g b J , p d N N #.S U ",
"B f a v y u - % e a u y e k S D d e $ p a e e e t @ ; # # y a $ r b V g N $ $   . a v a q M N v . . e e u e a v : - e k k m r U ",
"R 3 3 2 3 6 2 & 2 3 3 3 1 2 2 & 1 3 2 1 1 3 2 4 3 2 2 2 1 & 3 3 2 3 2 2 3 4 2 < 2 3 3 3 2 : & 1 3 6 2 & 2 2 3 5 3 3 2 3 2 2 3 ~ ",
") R x R R R W W W R Z R ^ / W W W R R R Z Q Q W Q _ W W ~ E R R E Z Z A W R Q W W Z R W / W W W W R R R E ( W R Q / W R W Z E ~ ",
"/ R W E A Z R Z R W Z Z W A E / ) Q Z A A R W A A Z A Q W E R z R R R A Z R A Z ^ R x R E A / ` ( A Z R A R R A R Z Q W W A Z ~ ",
"/ T 0 6 I z z 0 z 0 0 R 0 6 U 6 z R j R Z 0 0 z Z 0 Z W 8 8 R 0 0 R 0 0 z z 0 0 0 0 T T z 6 0 0 Z Z Z A R 0 4 Z Z 0 E A 4 T T ~ ",
"E 0 3 4 U 0 0 z 7 & z z z j T 2 4 R U 0 z 7 3 x 0 0 z 6 3 6 x z 0 8 3 0 I 0 z I 3 4 z z 6 U 8 : 0 R 0 U 0 3 6 U 0 z z 3 3 z z ! ",
"W 4 7 7 6 0 6 4 z z h z z U z z j 0 8 6 6 0 z h 8 9 6 6 h z z l 6 4 7 7 6 0 7 6 U 6 6 z U z 6 z 6 z 0 6 8 I z 6 8 4 4 z j 0 l ~ ",
"7 4 z 6 z 0 6 8 0 U 6 6 6 6 6 x z Z j z 8 8 z l 7 z z h A h j T 7 4 6 z z 6 4 z Z 0 0 j 6 6 x z z x z 6 6 j x 6 8 0 h l E j z 8 ",
"] / ) W E W W ~ ) W W / ~ W / / ! ) / W ~ ) W E E W R W / W ~ ~ ( ) / E W W ~ / / ~ / W E W / ~ / ) / W ~ / ~ E W W R / E ~ ~ ' "
};
