/* XPM */
static char *ef3651e4adc646da81860c93d00fb371[] = {
/* columns rows colors chars-per-pixel */
"64 64 156 2 ",
"   c #130803",
".  c #1B140D",
"X  c #0B0E11",
"o  c #160F10",
"O  c #0F1216",
"+  c #151414",
"@  c #1A1713",
"#  c #171817",
"$  c #1B1A15",
"%  c #17161D",
"&  c #1A1619",
"*  c #161B1D",
"=  c #1C1C1B",
"-  c #201717",
";  c #221B15",
":  c #231D1B",
">  c #281E1D",
",  c #1E201D",
"<  c #23211D",
"1  c #2A221C",
"2  c #2A2C1F",
"3  c #31281F",
"4  c #0E1824",
"5  c #161D23",
"6  c #1C1E21",
"7  c #1B1E29",
"8  c #221D21",
"9  c #291F23",
"0  c #142126",
"q  c #1C2224",
"w  c #1C232B",
"e  c #1E292D",
"r  c #1E2934",
"t  c #1E2A39",
"y  c #242323",
"u  c #2B2422",
"i  c #262A25",
"p  c #2B2B25",
"a  c #23252B",
"s  c #2B252B",
"d  c #252A2B",
"f  c #2C2D2C",
"g  c #312623",
"h  c #332C25",
"j  c #3A2B24",
"k  c #31272C",
"l  c #332D2C",
"z  c #3A2E2C",
"x  c #2D312D",
"c  c #353125",
"v  c #3D3225",
"b  c #34312D",
"n  c #3B322D",
"m  c #3F382E",
"M  c #232631",
"N  c #2C2630",
"B  c #252C33",
"V  c #2C2E33",
"C  c #252F3B",
"Z  c #2C2E39",
"A  c #332E33",
"S  c #3A2E33",
"D  c #322E39",
"F  c #3C2E39",
"G  c #273033",
"H  c #2D3134",
"J  c #25323E",
"K  c #2D323A",
"L  c #343234",
"P  c #3B3334",
"I  c #363836",
"U  c #3D3935",
"Y  c #34333B",
"T  c #3B343B",
"R  c #35393C",
"E  c #3C3A3C",
"W  c #432D2B",
"Q  c #44342D",
"!  c #4A352D",
"~  c #45392E",
"^  c #4B392D",
"/  c #55372C",
"(  c #543B2C",
")  c #5B3C2D",
"_  c #422F34",
"`  c #402E39",
"'  c #433534",
"]  c #4A3633",
"[  c #443935",
"{  c #4B3A34",
"}  c #43353A",
"|  c #4B363A",
" . c #443A3B",
".. c #4B3C3B",
"X. c #563634",
"o. c #523B33",
"O. c #5A3D34",
"+. c #513739",
"@. c #523D3A",
"#. c #593E3A",
"$. c #603D32",
"%. c #44413D",
"&. c #4D413B",
"*. c #534037",
"=. c #5A4236",
"-. c #53423C",
";. c #5C433B",
":. c #634334",
">. c #6E4D3E",
",. c #242F42",
"<. c #253145",
"1. c #2D3443",
"2. c #2D3947",
"3. c #2A364F",
"4. c #2A384A",
"5. c #333542",
"6. c #3A3643",
"7. c #343943",
"8. c #3C3B43",
"9. c #323749",
"0. c #383748",
"q. c #343B4A",
"w. c #3B3B4A",
"e. c #363B50",
"r. c #433642",
"t. c #433C42",
"y. c #4A3E42",
"u. c #423E4A",
"i. c #493F49",
"p. c #523E40",
"a. c #3C4146",
"s. c #3D4353",
"d. c #454043",
"f. c #4C4143",
"g. c #44414A",
"h. c #4C434A",
"j. c #4E494E",
"k. c #534343",
"l. c #594542",
"z. c #574945",
"x. c #5D4944",
"c. c #514349",
"v. c #54494B",
"b. c #5B4B4A",
"n. c #424251",
"m. c #4A4451",
"M. c #454A54",
"N. c #4E4951",
"B. c #604945",
"V. c #614D4B",
"C. c #694D49",
"Z. c #62504F",
"A. c #655652",
"S. c #6C5954",
"D. c #6C5D5A",
"F. c #7E635B",
/* pixels */
"Y L Q ] I d k T A ' ' T S A Y Z f z D ] ] x k F A ' P V A A A K S Y Z L Y M A T A D 1.T F l K 1.Y ' L L P L L S x F Y A F P A T ",
"k ..:.k.a.w k h.I m {  .8.n 5.P L I } F #.[ I  .} .. .| E I l L P F E c...* T d.n E 9.8.h.x B L P t.E R n P E Q A R Y E :.^ b ' ",
"V o.) } t.; & E H H Q P Y p V n P V R B l O.| T L x l ] [  .f i Y L b  .m $ k 8.n ..L i c n L v p e x S f P  .L i i P z m V Y 8.",
"D +.P K P 1 : L l 0...n V A R x P +.`  .' ! Z P ' h T S ! ' V b 3 x x G V 6 u I S ] x A h S { ..H V p A T n { T x p A x l +.} f.",
"F T K b L = N I b K P b H 8...L L ^ ' T D D A R { ' K `  .5.,.5.n L S L l = D b l T <.9.P P ] S H T W p R T } I Z P h x P ^ ! t.",
"P { [ F L ; u U C c p K C l { L 5.h W S ] m F w.Q L A A b T T H K K b _ A # h ~ x L E H H Z H A ' { { P 7.0.L 5.,.Y L Z 5.f W  .",
"K =.{ G R < < [ H b b f V 5...U K t.-.n [ @.R { E U  .H x ' T b L l G Y n = i 8.Z ' T L H b H L Y T [ ] R 8.h } P H Y V H 8.k...",
"f 1 = 5 5   O q , 0 , * @ : 1 a a w < q 1 = < 3 u # a t s y 4 = q w , * , o X r B < 0 : = 0 y $ 6 Z i l < : s i N y = i N 7 < f ",
"T  .|  .S A t.v. .W _ f.] P A j A Q ' y.P A ' F W P 8.-.u R z.{ Q } t. .{ ..} P T T ] P -.d.E S T &.{ d.@.P E j h ' ..-.a  .&.-.",
"8.N.k.C...R  .z...l.*.h.k.f.p.U m k...t.-.c.g.t.;.@.g.v.1 ..D...-.=.y.m.&...-.-.m.t.;.-. ...-.c.g...;.t.c...y. .U f.M.k.< b.A.m.",
"A L n L z h i V l f L B i d l d L { l G L F p L 8.Y A b @ l  .z E 9.A l x H L T l l 6.L p H m P h T 5.V d i b p l { P d . T [  .",
"P O.] V z E 1.i v P +.o.l x  .k { $.R K Y L L ' 5.4.T E q S E z F 4.8.] P K K L L S 6.R l Z 5.A P Y E O.Q x ` z P =.] K y T L *.",
"k ^ U 5.b D l L L F A o.] L ' F T F ] } b i V b z b y. .* z 6.b ' K f b ' ] P p V x A l P } l i V x S ^ l L H l ( o.t.n 5 F E U ",
"A { P T p G L P V Y V A ) { T L x h ' [  .f i L Y l E n = 1 T P @.L f i P ' ..H i f L L P ..E i p L L l F T T A ( T T n o s E R ",
"Y h.n V L T l P +.} } F ' K L { j T F ! m B L h f V H x q s b l E C K m S _ { H L h f R L Q P K l x l n { | P T ` S Z V : p I  .",
"B E c V 8. .f i { ] A b T A R { S D T } m 5.} n L n Y E : A E x K ] K S Q F V L ] ' H H h G x d @.( H L I P h E 9.T P l = L b R ",
"l c f B P ' p Z H Q b m ^ L 8.! I K V l n  .z G K b _ F @ S 8.T ! { [ L l R B h Q T #.{ i L } b o.o.Z K Y A Y F 9.2.} Y q l H q.",
"f Y B i Z ..' C T  .P P ' E n S 6.R n x P T f V L Z A b = l E b z Q T T l Z z Z L S l o.' L ' ' T P ] T b i x l L P y.m # n R  .",
"A L K R F P c V } t.F Q S P ' Y V b U ] 5.L l n ..I G V < 8 E H I Q F L i H m T A Y Z Q ) ' T L l l } { T p p Y A c E b * w.k.E ",
"T o. .K Y n L ` _ ' Z R ! Q P [ ` K V n Q L H ^ '  .U 8.g u L k w...b G T T f ' +.} T ` ' Z P ' h T S { n V b h x x K d 5 v ^ R ",
"n g.o.) ' t.} 6.6.F c Z t.! x o.' d Y ..Q Y K [ ] T ' 7.w N L H H n I Z E ..I n ! S T Y A D 8.{ S K T E 5.,.T l K n L V @ Q  .T ",
"A 7.m W Q  .w.e.E P H R  .b T ' b K T  .c Q Y [ m l ' P = l U K h p Z C S ~ Z K l Q S ' ' Y  .n L L x b T Y V K D n ` f . y.8.U ",
"A { U R b V 7.R T ..7.[  .E T L L E Y  .{ } E 8.P { 1.U u p U L x x p H 5...L Y d.*.L o.{ T ..R P } K L ' R V L b K L b # T M.d.",
"s 1 z u $ d < ; e a a : p : 5 d , < < d * < < N f y q a = = q 5 a , , = : u y q w 1 q < = 1 g < % B t g 5 7 ; q a < * < O $ N d ",
"T o.}  .-.n a -.E g.;. .! _ c.k.E -.} ....P T T  .z z | k.E ' -.....' W T = } b.' F k.y.' R T @.@.} ! ' b...T ' n n o...k.T P h.",
"P x.{ 8.h.3 F F.c P h. .@.{  ...8.f.~ T { *.i.8...@.R ........[ E { &. .*.y ..A. .s. .l.;.U L ..g.| #. . .....[ L } ..'  .*.p.j.",
"P w.9.P L $ f j.b d d h l I G p i Y n H L T l l } L T x A b ..m H I Y Y E y S ..S S n S L v l B x h x I B i V l d { { H H P A I ",
"S 6.4.T E w u R K Y f v P | O.b l P G H K Y A Y ` 7.2.P b L / { Z Z I ..R q P Y Q o.{ } A S R B l n T #.o.p A | b o.{ K K Y A t.",
"k S b y. .; N h.P V V Y r.S } l D [ E S ! S F U L Y x n ] w.' k m ' b 5.P y z 8.x v Q R R b Z n H L S l o.' P P P T S ] [ b i R ",
"L R x P P : a -.b Y Q E ,.T b b ` ] ' 5.Q ! P ] ] L K L ' P b H ^ [  .L T 1 8 E V R ' P A p G S P Z R Z Q =.S R L h z } { R p I ",
"k c G V G q u @.d U ..{ ! m  .` T } n V Z  .' l ^ ' V Y [ Q K G P ] | T 7.y u L l w. .x Z T T f ' +.' ` ` } V E ~ b 6.S ..n V E ",
"A E m I } y j h.P S 2.../ S } w.w.0.Y l 5.t.n I { l B E  .z [ Y ..T b L H 6 A n H H S h K  .m d l o.m L n L A E { S A T P P 8...",
"H K L S } # g t.S } 9.7.E c b q.7.} [ K T n L } S F 6.A T Q m F P n ^ ] R 6 p I K h p V B S n V K L ! h ~ Q K  .Q K K l l F ' U ",
"V E L K S $ k t.f P K H  .L d N h I L A z L P l h H V A o.^ i l A { O.y.P 5 A E l l K d x Y p.b K 8.T P ' ' } n P 7.U n x E I L ",
"] ..m K G u 9 E L @.P d i n m F V y f I b P  .U i i I z n L Y Y l / { T ' @ 5.k.L V L 5.Y T b f P { 6.F Q P ' m Z A L ' [ Y z E ",
"P { } [ 8.f 8 I A { L Z l z ' @.R G p f Y P ] [ G b f l l +.| } T } L Z L = h o.B  .! ' H P m F F ' S K L ^ P S ^ Y Z H ~ n K E ",
"} *.P } R w s U f R 1.<.P S F n L F Q c L 6.} T J Y v A L n Q P P D S L H @ v f.p P u.O.^  .y.F 8.6.P V 5...z L o.l G 8.{ n 7.8.",
"P  .b U m < u { x l ` I H Z G L _ { o.' 7.q.L Y Y K R C K L n ' n { } P l @ P g.A A T m z ' r.q.w.} L L 6.m I } Q L R P n n ~ a.",
"R %.! 1.R u = 7.K P P Y x x L H K K m ' n 7.l ' E b H A L 5.d.' I { b G L @ A j.R z Q E E c B R Y  .E 7.{  .L L G I P Y ..' T f.",
"A A y < d s # w K 1 w 6 1 e a : * Z V n V : s u a s y i s 7 u < y u q 0 * o # a w 1 j A : y d : < a d s 1 u : B i y < a w # u l ",
"] @.t.f.-...k.}  .r.@.o.h.k.t.} i.&.O.d.B.y.t.Q z ] f.b.g k b.T p.c...X...b.p.t.#.r.y...' t.u.] W T k.k.T W -.j.y.! ] } : k.b.k.",
"T -.P 8.P n Q { y.R [ ..l P ^ ..T T o.R T ' ' P L ' 8. .; -.S.i P  .m @.m T } R ..v S ~ .. .T {  .I ' ] ] y.n b !  .U { : f.v.-.",
"K e.0.L L L H R L j 6.9.c H R T h } 0.P x i Z b x o.{ H # L h.b d V l l Y x f i L I H Y T f S  .P T G L b @.m Z Y R R R y P U @.",
"S 9.R ' L Y Y P A Y S Y n H Y l K A Y =.^ p n ' P o...R w p R Z K f v T @.O.c l P K K Y A H T P 9.7.P L n / E Z Z P y.L y T L E ",
"T E i h F | [ x i f L h L ..S i d A l m z A K V ( ) r. .# D c.b f A 5.} F P l T  .T _ ' z } P K L x Q } w.z h ' m H 1.n ; S R &.",
"' U V f z ' { R f i L R Y { ..H p x L c ' ` } F ^ P H P ; f @.H T Q E C T f S _ ] ' Y m ! ' ' ' L K l ' L A S (  . .Y T 9 s R ..",
"T R J ' Q F ] L Y n 2 K K j b B P l f b ^ ' L P F F H x = h @.d E y.X.! [ t.F T } b V K  .Q b o.L V 8.' v 1.H ' ' } T 7.8 A p U ",
"A ..P A z P Z x n {  .L h V L p  .:.L K Y T l P 0.q.E P - z u.' I 9.{ ! n  .w.w.5.T l 0...b T Q x H ..T c  .R { L m b V = } E R ",
"n o.[ R l T Z V v F | O.b V | S [ | F Y Y l Y S R 1.t.T q l E z E 9.7.T l V 7.7. .U R ' l L T b T T Z [ ] z ' F n o.} H 8 } R ..",
"N ! m R h Z b L H T d ' ] ' n S T m ' [ L i i L l n y.E = z 8.l F K V t.b d p h L L A k L P f N H l P o.v V H l ( @.t.L 5 S R E ",
"T -.S F p H b P A Y F z ) [ R I p c F ] ..H f x L x S x * u 8.n @.L i p n P ' H y x P L ' ..T i p R b b S Y K A ) ] T m . u E 8.",
"J d.b G 5. .l S #.] F 6.} Z L ] z T F | P B P h f H K c q N L n  .V A z S ] ..H G h i R S { m V l h x S +.X.} T } A G L = V c E ",
"V b L Z L *.T L W n R P D A 7.{ m B F E 5.<.Y S Y n L L = l b x R 9.,.F K F b S  .Q b R 6.} Y ,.T j V I z v T P D S P f = L x 8.",
"h c V C Z { I K x Q P ' { T } n I F x u S E H Z L G ` F @ 3 ~ V l } b H H G A ] ^ { P 5.7.b 5.Y H Y Z K H ' P m ] E L x @ z R 8.",
"V x p p V  .U V 7...A n Q L ' E l E 7.H n Z x x x V V x $ 6 7.K n L H x V L Z B Y z ' b L L P T x G l L 5...L L ^ f B d + f b I ",
"A l a : : : 8 A a 1 i k 8 i h j * a Z k u a 3 a w u y : 1 * M Z 1 q 8 1 M y $ y 5.I  .p = A f M h s V L a 1 y u u < w : - i y Z ",
"} b.o.] @.y ' S.-.@.O.g.c.l.p.h. .y.t.o.#.v.k...i.i...O.c.C.p.t.' m ..h.Z.p ' A. .b.b.@.#.@.B.#.h.k.} k.@. .i.t..._  .z.b.8...V.",
"A n ~ R ] i k v.n ] ..l Y l h z { } L ] ' i b ~ ] L P ..H I S n L l ' T S . l.V.y l I l { A Z n K ] h l Q { T P ] ] L S S ]  .m ",
"Z R R T 6.N k t.Q r.3.7.n S L K R l n r.1.b H Y L l } 0.U l i H l H o.' G = Y t.L d f h l T b p i P P K K R p S E P R G b l #.f.",
"V 5.I t.%., k t.p F 1.Y  .L R Y S A Y A R S Y Y l K A P =.Q h P ' ' o.y.R q k I Z Z l n F @.O.b l P K Y 5.l Y Y F 7.0.m S P / t.",
"' ..b ,.Y u u 8.L { I i p P { [ x i f A l S ..L i i Y z n n L K x ( / r.[ # 5.c.L p H 0.` D L k 6.{ E _ Q n } P Z A x Q } w.z m ",
"] {  .[ R f > P S { L L h A ' @.R d i L R I { { L i x L x ] } r.F ] P H n * l o.V E ! E C } b S _ ] S 5.m Q ' m ' L K l ~ b L 8.",
"l &.[ } 8.a s L p E K ,.P Q F ' I Y z h K H x x B ' h f b ! ' b S T T A x = v ..d E ..O.^ U y.T 6.} n V Y ..P v o.c V 8.~ m 1.A ",
"-.k.E E R p F v.R E -.f.R [ ..7.U &.-.d.E ~ R %.L k.C. .q.a. .U y.s.s.%.E 1 ..N.&.8.s.f.*.&...n.M.n.t.R n.-.E g.&.R a.f.d.[ f.M."
};
