/* XPM */
static char *_fe1769403cf4796ce90b7ba1aff32bc[] = {
/* columns rows colors chars-per-pixel */
"64 64 45 1 ",
"  c #020202",
". c #080708",
"X c #0B0B0B",
"o c #10100F",
"O c #141413",
"+ c #181817",
"@ c #1D1C1C",
"# c #201F1F",
"$ c #1F201F",
"% c #20201F",
"& c #252424",
"* c #282727",
"= c #282827",
"- c #282728",
"; c #2C2C2B",
": c #302F2E",
"> c #31302F",
", c #343433",
"< c #383736",
"1 c #393837",
"2 c #3C3C3B",
"3 c #403F3E",
"4 c #41403F",
"5 c #444443",
"6 c #484746",
"7 c #494847",
"8 c #4C4B4A",
"9 c #504F4E",
"0 c #51504F",
"q c #545352",
"w c #585755",
"e c #595857",
"r c #5C5C5A",
"t c #605F5D",
"y c #62615F",
"u c #656463",
"i c #686766",
"p c #6A6966",
"a c #6E6D6C",
"s c #706F6E",
"d c #75736F",
"f c #747372",
"g c #787775",
"h c #7A7976",
"j c #7F7D7B",
/* pixels */
":25206686348& ,4,8455345718w:*&::25206686448& ,5,8356235826q:-&:",
"2755966552,8& ,2&yw5r8>,5:1q5;,12755976551,8$ ,2-tq5r9:<5;2q4;,2",
"278q4<<,,2,q; <2$8w5353>,>31344227894<<>,2,q: ,3$8w5252,,,224422",
"229e<65+&9q0; ,8-1q5:,83>55,5322129r155@&9qq; ,6-<q5:,83,55,5422",
"9e86168<;8w8; :8,2,11545752e5<><qw86168,:7w8; >9<2,<2555752e5<:3",
"wu81,3288<5q; ,5>2:20q2385qr552,eu8<,428823q;.,5:2;29q2284qr652<",
"O+OooOo@$OOOX Oo.XXo@@OOO+$@O$+O++OooOo@$OOOX Oo XXo@@OO++#@O#+o",
"......XX .XXooX.XXXXX.Xoo...o .......XXX .XXXOXXXXoXX.XoX...X .X",
"q77965ruw0w8883,>:1800988rai2 @ie67875ryw9w8892,>:,8q0q87tau3 $u",
"9<4rr40jhr4211-:&+@>58725ugu: &g0<5er4qjgt5111-;&O$>58625yhi: $d",
"35578350qq,,>>3,-;;&,,>1588q: ;u175873799q<,>>21-;-*,>:<5990: ;u",
"q9555288,6q2,,51:,>,3<;;,2282 &uw8475187,7q21,4<:,,,22;;<210< -u",
"8075845qw0yw2,>,<,>,52;&;-2w2 &u7974855ww9yw2,,,<,>,52*&--1w2 &u",
"qq85568efw8q4>,1,6,:<:&<>;8s2 ;i9w85577rfq902>,1,8,;<:*,,;8s2 ;i",
"w5258559iu755>,146,3<;:>325u2 -gw4248559iy775>,155,41:;,225u2 &g",
"3887<<8084132,,36235<,-:62-3; -i2798,<9084222,<254251,-:62;2; -i",
"375327rq8,$-<22:;,2,,*&,9558: ;r264327rw8,@-,22:;,3,,-&,8657> ;r",
"43<289822<,,221:<,;<425858yy, &r342289722<,,22<,<,:,425868ty, *r",
"390823872,;2522372,768q5;5uu, &q28q824872,;2622271,787q5;5ui< &q",
"490722w9273,52,<2<<2,35317ue1 %r499722e8263,52,<3111,453<6ue< $t",
"848q58q9995,66>>:&*,;::22398- &f849q58w9985,85:::&&,;;>22288; &f",
"95537reyy54882<<,;:1,;,4,:38& :s64436rwyu55982,2,;:,,;,4,:46& ;a",
"X@@o+$@@$$$&+O++oooXXXoOXoO@o +$X@@o+#@@@%%&+O++Ooooo.OOoo++o +@",
"..X.XXX.XXX.X  ......X...X..XXX ...XXXX.XXX.X  ......X. XX..XXX ",
"85338eue9528: >w99785322222<<22585339wie8548: ,q80785423222<<224",
",1,>590667,,@ 2r4,,51:::**:>;,,,,1,>699656,,@ 2r4,<5<;:;-&;::,,<",
";52>12252211$ 1q&%&31&::;=&::-&;:42>,22432,2@ 2q-$&2<&::;;&:;;&:",
",43352551223& 3q&%%,,>>=;::&&;::,4436344<224& 2q&$$,<>>&:;;-&;::",
",774875112;2; <9&O+&;>;%>==:@;,-,6648762<2;2; <8&O+&;>-&>;;>$-,;",
";22354495120& ,5&&+%==%=2,,1@@-&:42444486,10& ,5&&+$--&-2,>1+$&;",
">1;;72;,25qr& ,624,#;&@>863,&&&&:1;=62;,24wr& ,624,@;&@>765>;&&&",
"-45;21,,3568& ;57854,=:28672,:&+=44:41,,3658& :57855,-:28771,:$@",
";28288786528& >5,8275344818w:*&;:37496786538& ,5,93662548<8q>-&;",
"2855058552,8$ ,2&yw5r9,15;204;,22674067452>8$ <2&tq5r0><6;2q5;>3",
"288q5<<,,2,q; ,4&8w4252,<,3244422780411,,2,q: ,2$8w5252,,,324433",
"<20e<55@&8qq; >8&1w4:184>54,5422129e174@&0q9; ,6-<q5:,83>54,4322",
"qe88<57,:8q8; :8<2,22444553e5,,,qw871671:6q8: >8<2<<2545652w51>2",
"qu8,,338824q; ,6:1:29q24859t652,ei71,438825q; <5:<;29q24850t6521",
"++oooOo+$OOOX Oo.XXo@@OO++%@O$+o++oooOo+$OOOX Oo.Xoo@@OO++$@O$+O",
"......oo .X.XOX.XXXXXXXXXX. o ........oX .XXXOXX.XXXX.XXXX..X ..",
"w67955ryw9w8882<::16q9q88rau4 $ie66977eywqw8882,>:,8q0q87rau3 $u",
"815er4qjgt5<2<-;&O#:58725ugu: $g0<5er5qjgr4111->&O$>58625ygi: $d",
"365882709q<,:>2<;;;*,,,,5899: ;u25588270001<>,21;;;&,,:<5990: ;u",
"w8375287,6q2<,42;,:,2<;;<229< &uq8464287,7q21,41;,>,3<;;<3<0< -u",
"8975845ww8yw2,,,,,,,52;&&;2w2 -t7074855qw9yw1,,,<,>,52*&&-2w2 &u",
"qq85575rsw8w2:,<,6,:<:&,,;8s2 -a9w85577rfq8q2,,1<6,:<:*,,;8s3 ;i",
"w5258550iu665:,256,3,::,225i2 &ge5257550iy877;,155,31:;,225u2 &f",
"3787<,9q84222,,262252,-:52;2; -i27871,9084121,1252351,-:62;2; -i",
"375318rq8,$-121>;<2,,=&,9767: ;r265228rw8,@;,22>;,3,,-&,8857: ;r",
"3412898221,,222><,;<325867ty, &r342279722,,,22<:1>:<325858ty< *r",
"38q823871,;2622261<678q5;4ii< &028w724872,;2622371,778q5;5ii, &q",
"49q722w9282,52,12<<2<252,6ue< &r499722e8262,62:23111,353<5ue1 &r",
"749q58q9985,75>>:&*,;:>23398; &d849958w9q85,85:>:&&>;:>22298; &f",
"95527ewyu558821<<;:,,;,4,:36& :s74445rwyy55882<<,;:,,;>5<>26& :a",
"o@@o@@@@$@&&++++OoooXXoOooO+o +$X@@O@@@@%@&&+O++OooooXoOooO+o +@",
"...XXXX..XX..  . .X XX. .X..XX. ...XXXX.XXX.X  ..........XX..XX ",
"85248eur9538> >w99785323222<<22485338wie8548: ,q09886223222<<225",
",1<>599766,,@ 2r4,,61::;-&:::,,,,1<>699677,,@ 2r4,,5<:;;-*;:>,,<",
":42>122422<<@ <w&%&3<*::;;&:;=&;:42>112422,1@ <w&$&2<&::;;&:;;&;",
",4344345<223& 3q%%$,,>:*;;;*&:::,43363441224& 2q&$$,<>:*;:;&&;::",
",6548552,2;2; ,q&++&;:=&>;*:$&,;,644866112:2- <0&O+&->;&>;;>$-,;",
":32455586,2q& ,5%&+$*;$=2,>2@$&=:33345495,19& ,5&&+$*;&&2,>1+$&;",
":1:=72;,25qr& ,633>@;*@>863>;&&&:1:;73;>25wr& >624,@--@,754,-&&&",
";44:31,,2668& :56974<;;27682,>%@;44;41,,2668& :66884<;;<8872,:&$"
};
