/* XPM */
static char *ac82df9816a3455aa1bbc7ab4599b84c[] = {
/* columns rows colors chars-per-pixel */
"64 64 129 2 ",
"   c #140709",
".  c #16080A",
"X  c #1D0E0E",
"o  c #1E100F",
"O  c #1F0F10",
"+  c #1F1211",
"@  c #210F0F",
"#  c #22120E",
"$  c #25180F",
"%  c #28180F",
"&  c #210F10",
"*  c #231311",
"=  c #2A1614",
"-  c #261813",
";  c #2B1B15",
":  c #271B1A",
">  c #2D1D19",
",  c #311B17",
"<  c #331E1A",
"1  c #3C1E1D",
"2  c #2F2115",
"3  c #2E211A",
"4  c #322316",
"5  c #34231B",
"6  c #3B241D",
"7  c #36281C",
"8  c #3B2A1D",
"9  c #3F331E",
"0  c #2D2C22",
"q  c #352520",
"w  c #3B2521",
"e  c #332C24",
"r  c #3D2B23",
"t  c #3C2E29",
"y  c #2E3027",
"u  c #363223",
"i  c #3F3027",
"p  c #373228",
"a  c #3C3229",
"s  c #3F2F30",
"d  c #43251E",
"f  c #422B1E",
"g  c #411F20",
"h  c #432422",
"j  c #4A2623",
"k  c #442C25",
"l  c #4B2D26",
"z  c #432728",
"x  c #452E2A",
"c  c #4B2E2B",
"v  c #532E26",
"b  c #592C25",
"n  c #522F2A",
"m  c #592F2A",
"M  c #443325",
"N  c #4B3225",
"B  c #4D3925",
"V  c #45322A",
"C  c #4B332B",
"Z  c #46392B",
"A  c #4D3A2D",
"S  c #533326",
"D  c #593325",
"F  c #543827",
"G  c #593925",
"H  c #54342A",
"J  c #59342A",
"K  c #533B2D",
"L  c #5A3C2C",
"P  c #462F31",
"I  c #4F2F30",
"U  c #502F30",
"Y  c #443533",
"T  c #4C3331",
"R  c #453C34",
"E  c #4C3C32",
"W  c #473238",
"Q  c #463E39",
"!  c #4C3C3B",
"~  c #513431",
"^  c #523D32",
"/  c #5B3D32",
"(  c #533E3C",
")  c #5A3F3F",
"_  c #623D34",
"`  c #4C412E",
"'  c #54422E",
"]  c #59432E",
"[  c #56482D",
"{  c #59492F",
"}  c #4D4234",
"|  c #474039",
" . c #4B423A",
".. c #544433",
"X. c #5A4433",
"o. c #564934",
"O. c #5B4B34",
"+. c #54453A",
"@. c #5B463A",
"#. c #55493A",
"$. c #5A4B3A",
"%. c #5F5035",
"&. c #5E513C",
"*. c #624435",
"=. c #624B36",
"-. c #644539",
";. c #644E3B",
":. c #605035",
">. c #62533D",
",. c #6A513C",
"<. c #4F3E41",
"1. c #4E4144",
"2. c #534443",
"3. c #564C44",
"4. c #5A4B42",
"5. c #504349",
"6. c #5C5144",
"7. c #5F5051",
"8. c #634F42",
"9. c #635442",
"0. c #6A5442",
"q. c #665943",
"w. c #6B5C44",
"e. c #62544D",
"r. c #6D5E49",
"t. c #715643",
"y. c #74644C",
"u. c #78684F",
"i. c #7B6A51",
/* pixels */
"Y q q r i &.8.( 4.>.6.%.4.3.&.>...^ 4.+.^ / =.w.q.>.#.+.>.r.6.( ^ 9.9.-._ $.-._ X.4.( 2.3.&.9.4.^ ^ 9.6.6.E ~ ;.9.&.>.&.9.9.>.@.",
"- % % - M %.O...O.O.A l ~  .@.` c h x l A ^ [ O.:.O.K c E =.[ N ^ O.O.D H T T A c E +.Q Q ! } ' J ..` ..A A } } ^ ` { O... .X.z ",
"5 = r Z o.O.O.O.;...l H X.o.` C v c h l L o.A S ] :.O.' A N A E ` O.O.2...} E ` N A O...Q  .+.O.O.K H { ` ..%.+.E A K h V O.O.U ",
"q % Z 4.2. .' o.#.^ n X.#.' v h v l k K O.G f 6 K O.{ O.' x x ..O.O.$.4.&.O.K L ^ A A D K $.4.5.4.<.A J [ O.%.%.K v 6 < V } X.~ ",
"i M A A P E ` K K X...^ E K l v v N A ` F G ' Z ..{ A A L X.K H O.O. .#./ ] ' A #.o.T c C ^ +.2.@. .P H ..O.[ >.w.K 6 < N @.S V ",
"V L K A C X.O.A S / O.A I E A K ' N C [ L D O.X.G G n b H +.O.l A .... .^ X.{ `  .^ K E T E E E ' E E +.3.+.' *.;.%.x , k X.v V ",
"V l r Z ! ..O.} C C ^ ` Y A A ..A N x A n l H K H L *.K N T K K K O.$. .A K Z C E o.' O.O.N x N ` A H A W E } ' F K F w N [ N P ",
"U l 8 P } } } ..K v ' ..Z x N A l x l M C A C ..o.` o.{ A A L ` ..O.$...K K A n ^ ..K ..X.@., 8 ^ ` E E C ..O.' K K l h x K n c ",
"U v E #...Q  .` ] L K Z c M c P Y A S Z ..^ A ^ %.` A ..%.:.o.} } ' K H Z X.O.F H ^ ' X.X.@.4 6 N A A A E ` [ E N ! W h z c j C ",
"U F ..X.^ +.#.+.#...l k h c N c Z A n ` X.l x T  ...H S O.O. .| } A G A N K %...C S :.O.C w > 1 d k C a Y V R E C ~ 4.` T l h U ",
"c K ] m b L $.5.( H H c h Z V k 5 h l [ ^ x h Z ! +.X.] O... .E F G ..{ C A O.=.X.E ..N < * * 4 k d C | ! Y Y E K K o.+.E ~ k I ",
"V n H ~ J J E  .T k Z Z A ` k 7 d 6 k ' E E A C K 3.#.&.#.} E ' F O. .E A ` ..O.4.1.x < % ; 5 5 Z M k A A Y c t C ' o.o.^ A w r ",
"V n E 5.$.' N ^ A h N N C E V t x 8 f k x / $./ L  .5.@.X.A L $.&.+.E W E X.O.#.2.P , - 4 K Z 6 4 e 8 S N f u 0 a o.X.` K x 1 x ",
"C v K #.X.J C ^ K x x l k p A S C N 6 f M n v X.' E  .^ G ` ..} ^ P g ! $.L L Z k k 5 E 9.&.` 5 8 A J K V 6 ; % t o...I V C h C ",
"I b C ..H A  .! A K x 6 7 8 C ' H n r Y V 8 k c K A T ..K ` ` #.z 6 l X.o.H j r k ..w.u.w.^ N N X.O.@.T q r w 2 M { $.E h ^ v U ",
"I H E } A w N q < ] [ Z y e C ' p V P K a 0 t x N C A ' J O.#.! ! ' C M c h 5 $.u.u.w...x C J O.#.@.#.Z 4 r 6 V X.S #.X.g j D U ",
"T K O.[ O.A h = 3  .{ H k 3 8 ` 8 u V n S N 8 4 6 E ` l J =.$. .H E V h h 5 o.i.r.` A k 8 o.X.{ $.$.#.6 ; k 6 i  .E ..Z h N ' ~ ",
"V S J ' O.K ] M * r O.L M 5 4 8 v d 4 u ` @.L f 2 r c h N A @.r.A c x 6 K O./ L k 6 l S ..X.n 6 V X.A 5 6 V 6 p A E +.X.x C S k ",
"x v E #.L K O.O.8 5 ^ @.k 4 ; ; c T 8 7 7 P ] K w > < 5 z N c C x 5 k ..^ L l # r K H @...5 ; * x H l k ..V % 5 A c E  ...' v t ",
"c A ` 2.( O.L J k 5 C J j 5 j $ x Z 4 ; 2 3 x ^ o.A w ; 5 P N j 5 k H J r < ; r O.=.X.V - # X > P N 6 E ^ > 6 A T H T <.A ..H C ",
"I c N #.4.2.+.~ +.>.K C P 4 6 ; l ( x = * % % r O.$.X.K q > N L A H n < - d K $.$.x > % * # & x ^ 8 r H 6 X h / Z F m ~ A ` Z U ",
"T l E { / @.6.X.L ,.O.+.1.M 4 8 < Z H = # ; * & 5 V #.@.v 6 6 A *.] w % k X.;.O.k * . * - % w +.#.4 z m = o j ] ` K n C ` E n U ",
"U v ..{ K X.&.X.F K K ] &...7 C ; k L w = ; 5 < * = < Z / ] Z 6 < q r M O.>.X.j * @ < k 5 * S @.L k A M * r E ` ........O...v U ",
"c v L [ ..Y A ] O.X.C ~ &.[ 5 ` k w o.9.3 * r 5 & X ; j ^ X.A # X   k L *./ H ,   ; v D w w D / ~ K O.5 X s #.} E A O.=.] L v c ",
"i v K ^ O.K j S %.%...x Z O.t i V > C i.E = % O * w l m j < 6 R ..^ l j 1 d l h < g j 6 5 S K d < E E = o V %.&.A l ' ] j K v i ",
"P l Y { O.K 1 V o.O.K k 9 >.} 7 x r r #./ =   * r H m l 5 < ..y.y.y.,.k X X q K / t - - k L K > ; P - X 3 A #.q.,.n C K C E l P ",
"U x M K { A h P #.] S 6 j $.K < P N 4 w U w - h H n v 6 6 X.r.X.K ' 0.8.i * o r A l < < E O.v 4 A k * X s ` A @.,.O.A ..A l x C ",
"T l A J ] E Z K K K M 6 x Y x * 6 P w k I C C H l k k r ..>.K h w 6 j 9.9.M , = 5 v H ~ H ^ w 6 ..6 o # k H v S ] X.O.` l Z l U ",
"c H O.O.O.} } A H Z h h c l l & X k A A T m l x < < ' O.$.E 6 O X X = t ` $.] N ; > Z ^ D j = A o.> * 3 ` E A O...l F O.o.} n T ",
"x A ..X.{ { ` | ` A k k x h < O = Z #...l v w 4 l ] =.=.V X O O O O & - w ^ O.@...h 6 k x k 5 ..k * > A A c ^ O.O.A E A N O.^ c ",
"c D ^ S ] L K ..M 9 ..A 6 ; - > ..;.O.8 * = r ' O...^ d X X X * % * o o O = 6 A L U q % ; ; 5 v , % k A ..K N k K 8.<.k M $.' V ",
"U ..} #.X.S H } A A K w * * > ..;.J v 5 & = Z O.K 5 # & o * * 5 x 5 * X X O # - t T x - O * ; M N 6 w A A ~ j k S / O.` o.E n c ",
"T A ..Y c g Z ..{ A 6 ; 6 +...A n c 5 4 % 5 ^ +.q O X O * < Y X.H j 4 * o & O = w ^ ^ k - % 6 N #.c V ' ' A A A ' } E L O.V l T ",
"x S } 1.z 1 A } o.M X r ..T T k 5 4 k ^ Z 6 j H < X % ; 4 c H c 6 3 k k 5 * X X 6 m J n P ..X.v C ..! Z A E N M A ` ..O.X.' A I ",
"c v ^ 2.X.' [ E S h o 8 T H x 5 k k c T +.r ; k P > # 4 3 5 = = * * 4 6 3 = o X < H l 4 8 J ^ +.^ a Y K C ' A A A A >.r...E n V ",
"U v N X./ ..E V k 5 4 8 6 w x k ..C > > E c 4 V @.A k r > ; - % - - > > = - ; 3 k ~ w o * = > J { l x k l E I ^ O.#.4.>...H v i ",
"U S E ` C f C x 4 4 5 6 2 6 S J A > X @ r A > w L / ` c V ` O.9.O.0.q.N w k k Y ..w * = < X X > Z / K M l L ` ` E E @.O.{ { K A ",
"U K o.o.O.M M M 4 d < < 2 6 f < = % = O > 6 = & < c A c N / *.X.^ @.@.A r 6 k / H - X 5 x = % % x H A P j C ` K ~ #.} O.$...S U ",
"c F L K O...N l 6 h k q w < 5 3 < w r 5 5 w , X X < c x M k l l k h k x 4 % r l , o * 6 x 6 r k x l c n j k A K K A A X.H E l U ",
"i v ~ ..L K K K i 9 Z Z E C N ..X.E ^ ] ;.0.o.r * ; C S H ^ ^ J ;.9.X.o.N d x 8 * X 3 A X.9.;.S ] N V K A x N ` E x A O.S M x U ",
"P A ..E K ^ A K N M H D A E A ..X.H ( $.w.w.-.K w < k ~ ~ X./ J 9.t.=.X.K L J h - ; A X.9.r.8.~ Z N n F C E 8 x V h K %.o.T C c ",
"C H K c @.o.H m K ^ T v c N P c n m H A A q h ~ E w > P x 1 1 q < 1 1 1 6 E ^ d > E X.J X.K c c < x S C x A B M h h K O.` A v i ",
"U v L L @.{ K H ' O...Z i k r k r r j C < # < ^ X.w h A w O X X & - % X - r C 6 r ( E z d d r w 8 k 8 f M A ..A h w M ' K L v V ",
"U v ] $.o.A E V V A O.' a 2 ; - = % - q * # 3 A +.c N H t * * = w N r = , x x 5 N E q - X X # o 5 3 $ 4 f A A N N Y a A O.X.v U ",
"T n E ` A l d 6 E ! ` ..' % 6 > > 3 + = > = 5 E $.^ x c k - 5 C J T k > w N > 3 T w X # % & o * % > q w 7 8 B B E X.` ....Y S C ",
"T c ` A H m G H P T ] ' M 5 #.o.+.` r z X.E > w ^ X.c N w * < v D x * # k 6 - k C 3 X * 5 6 6 r C Z +.4.M k ..] X.$.#.#.' N N U ",
"c K ' A ! ~ K ..A E L L { } ` C h h j N x z = < A @.^ k > ; * 4 v < * r c < - r q # # > A X.` O.%.%.#.3.+.A x g N o.X.^ E ` E I ",
"x n ] O. .|  ...[ O...` ..2.^ A x g 1 d 5 6 j 6 d X.X.k * 4 ; % ; * ; x N V c 5 * @ * 8 ] H ^ J X.{ } ! +.K x k A X.#.` ..E v x ",
"i H n V X.#.Q E ....! | } ! Z N K V 8 Z A g K r ; K $.A ; 5 x , # # r P 5 w n d % * > ` =.J ..x N o.@.H D ] w * M ' K @.C D v x ",
"C K N h A L A ` K Y } #.| o.....$.` A ` A v E ..M 6 ! o.w - x 4 # ; x > # # r 8 * % N i.w.@.<.Q #.$.@...] O. .3 < N A %.[ X.' T ",
"U H h g ^ @...` K l A o.} @.:.O.o...A A h F ..O.N - M { n 6 > k k k 6 o % w 8 ; % 8 O.9.+.} ! E O.O.}  .O.O./ < 5 Z 6 A ` +.H U ",
"U v K z ^ >.o.[ { c j J S J L O.&.=...A h x G K o.6 , L ^ k o 6 H N = % h X.x X 5 ..O.#. .E H E >.%. .Z A K ^ N Q ! N H ..C v c ",
"~ h H V P o.K C A E x c ~ ] ^ +.o.L =.O.c k Z ' %.' < M $.E o % j N = % l L 5 * M &.....^ J v A O.O.o.^ A C Z ....T J X.+.H n T ",
"x 1 k K ~ X.C z <.@.L n ~ A ....G K X.O...H r k X.3.V 6 / o.i 0 E k ; 5 i q = , A #.( Z ` H J K A ` ..O.E V j ^ ^ l ..#.5...v x ",
"i 1 K C L K K +.3.#.} K ] A E ' F } #.{ +.X.d 6 C @.Y 5 K ^ E i Z w r A R 8 > r L $.X.A A K D H c ` O.[ ' ^ N ! ! A J L ^ H v i ",
"P k A h X.O.] O.#. .| | { ..x E ` Y K L ( &.' A H ....M M C F d r t x A A l i E }  .o...P A n L ^ A ..E A F A <.5.o.L b m L K c ",
"I k k h K 4.A F o.! } Q E T E l F / J b C ^ ] ] [ E A K M d N u y P l N k M ` #.! Y Y ^ C l N o.( N N Z x j X.4.2.#.} K X...K ~ ",
"I j j d d W ! C ^ O...Y E E K S v ..H J K S n ^ O...n H K M f t a M A ..` B ..=...Z A E K F C Z P x c x C A ] X.@. .|  .#.E v C ",
"I l K k h j K K K O...A A K ` ` c k K X.O./ Y ..O.:.o.! { [ N N x N K ^ o.E ' O.' C A A ` E N l N N N c ` ..n K ..} | | V f v U ",
"I N ..C r n K F ' ` E E Z A A ..Y c [ { o.X.A n { O.#.2.} O...c C S ..Z H ] K A K A l A X.' c ~ E N V Q O.^ l A ..$...! V r c c ",
"t v O.k ; M >.=.] {  .2.+.E Z ] E ^ A E A K ~ ~ F o.#.X.O.....Z K ` #.X.n v H C X.=.D J { ' c Y Y Z E  .} $.] v A O.O.A Y K S V ",
"V n O.l < w K w.q...O.X.H W  .X.2.^ E c I A o.+.E O.$.o.$. .{ O.J E O.J A A [ ..A ' G G ` K V ! c Y ..#.| @.O.K F ..Y c A A A i ",
"j ..} P 6 1 v X.O.O.O.' J A 1.4.2.4.%.K m C Z ..L F $.O.$.O...O.` c N ..O.O.O.K w 6 L X.^ A N N c D { #...H ]  .....! 5.#.C % ; ",
"2.0.q.A c @.@. .9.w.9.>.;.) @.q.e.7.6.3.8.>.@.#.&.3.6.9.7.w.>.4.&.@.^ #.>.q.w.;.L $.>.;./ T ^ _ ( #.9.9.-./ 4.w.q.>.9.q.4.! q Z "
};
