/* XPM */
static char *_365ee94be9e4e00d17379561bea2be0[] = {
/* columns rows colors chars-per-pixel */
"64 64 182 2 ",
"   c #988775",
".  c #9D8975",
"X  c #9F8E7A",
"o  c #AD8D6E",
"O  c #B4946F",
"+  c #A48D75",
"@  c #A28E7C",
"#  c #AC9277",
"$  c #AF9874",
"%  c #A3927D",
"&  c #AB947A",
"*  c #AF997E",
"=  c #BB9C74",
"-  c #B39A7C",
";  c #BA9E7A",
":  c #BDA477",
">  c #BBA17C",
",  c #C69F7A",
"<  c #C3A177",
"1  c #CCA476",
"2  c #C3A37C",
"3  c #CAA57B",
"4  c #C7A87F",
"5  c #CCAA7D",
"6  c #D6A671",
"7  c #D3AD7D",
"8  c #DAAC7E",
"9  c #D1B07E",
"0  c #D9B37C",
"q  c #E1AC78",
"w  c #9C9186",
"e  c #9D948A",
"r  c #9E9891",
"t  c #A39482",
"y  c #A89683",
"u  c #A79984",
"i  c #AB9983",
"p  c #A2968B",
"a  c #A59A8C",
"s  c #AC9D8A",
"d  c #B29C83",
"f  c #B29E8B",
"g  c #A59C94",
"h  c #A99E93",
"j  c #B4A285",
"k  c #BCA484",
"l  c #B5A38C",
"z  c #BDA58C",
"x  c #BCA88D",
"c  c #A7A292",
"v  c #ADA295",
"b  c #A7A29B",
"n  c #ACA49A",
"m  c #B3A594",
"M  c #BCA491",
"N  c #B6A895",
"B  c #BBAA94",
"V  c #B1A69A",
"C  c #B4AA9D",
"Z  c #BBAC9B",
"A  c #BAB09E",
"S  c #AEAAA4",
"D  c #B5ADA3",
"F  c #BAAFA1",
"G  c #BBB2A5",
"H  c #B6B2AA",
"J  c #BAB4AB",
"K  c #BCB7B2",
"L  c #BEBAB4",
"P  c #BFBCB8",
"I  c #C1A681",
"U  c #CFA684",
"Y  c #C6A984",
"T  c #CBAC83",
"R  c #C3AA8E",
"E  c #CEAE89",
"W  c #D7AE86",
"Q  c #D9AE82",
"!  c #CCB08B",
"~  c #D3B083",
"^  c #DCB484",
"/  c #D3B38C",
"(  c #DEB38C",
")  c #DDB88E",
"_  c #C5AE91",
"`  c #C4B094",
"'  c #CAB193",
"]  c #C3B29C",
"[  c #CBB89F",
"{  c #E0B481",
"}  c #E8B686",
"|  c #E1B984",
" . c #EDBC82",
".. c #E0B588",
"X. c #E4BA8B",
"o. c #EBBD8A",
"O. c #F0BC85",
"+. c #F1BE89",
"@. c #E4BD93",
"#. c #EBBE91",
"$. c #C2B3A4",
"%. c #CABAA2",
"&. c #C3B7AB",
"*. c #C4BAAD",
"=. c #C8BBAB",
"-. c #C0B7B0",
";. c #C3BCB4",
":. c #C9BDB3",
">. c #C4BFBA",
",. c #EFC185",
"<. c #EBC18C",
"1. c #F3C384",
"2. c #F4C38B",
"3. c #F9C489",
"4. c #F7CA8E",
"5. c #FECB8B",
"6. c #F7D58F",
"7. c #FED28E",
"8. c #F3C493",
"9. c #F9C792",
"0. c #F2CB90",
"q. c #FDCC92",
"w. c #FFD394",
"e. c #FEDB94",
"r. c #FFD49B",
"t. c #FFDC9A",
"y. c #FFE096",
"u. c #FFE49D",
"i. c #FFEB9E",
"p. c #FFF49F",
"a. c #C9C2B6",
"s. c #C5C1BB",
"d. c #CBC5BD",
"f. c #D0C6BC",
"g. c #FFE5A1",
"h. c #FFECA3",
"j. c #FFEFA8",
"k. c #FEF3A4",
"l. c #FFFBA6",
"z. c #FEF6A9",
"x. c #FEFCAB",
"c. c #FEFFB4",
"v. c #FEFFBB",
"b. c #CAC6C2",
"n. c #CDCAC5",
"m. c #CECCC9",
"M. c #D1CCC4",
"N. c #D2CECA",
"B. c #D4D1CD",
"V. c #DCD6CE",
"C. c #D6D4D2",
"Z. c #D9D6D2",
"A. c #DBD9D5",
"S. c #DDDCDA",
"D. c #E1DEDB",
"F. c #FEFFC4",
"G. c #FEFFCC",
"H. c #E3E1DE",
"J. c #FEFFD4",
"K. c #FEFEDB",
"L. c #DFDFE0",
"P. c #E5E4E4",
"I. c #E9E7E4",
"U. c #EAE9E5",
"Y. c #E6E7E8",
"T. c #E7E8E8",
"R. c #ECECEC",
"E. c #F0ECE7",
"W. c #F0EEEC",
"Q. c #EFF0EE",
"!. c #FEFEE4",
"~. c #F1F1EF",
"^. c #FFFFEA",
"/. c #EFEFF0",
"(. c #EFF0F0",
"). c #F4F4F4",
"_. c #F9F7F5",
"`. c #FBFBF5",
"'. c #F7F7F8",
"]. c #F9F7F9",
"[. c #F7F8F9",
"{. c #FEFEFE",
/* pixels */
"{.{.{.{.{./.R.R.R.~.{.{.{.{.{.(.R.(.R.).{.{.{.{.{.R.R.Q.R.(.{.{.{.{.[.R.R./.R._.{.{.{.{.].R.R.(.R.].{.{.{.{.(.R.R.R.R.{.{.{.{.{.",
"{.{.{.{.{./.R./.R.~.{.{.{.{.{./.R.R.R.(.{.{.{.{.].R.(.R.R.(.{.{.{.{.).R.R.R.R.'.{.{.{.{.).R.Q.R.R.{.{.{.{.{.).R./.(.R.].{.{.{.{.",
"{.{.{.{.{.(.R.(.R.(.{.{.{.{.{.~.R.R.R.).{.{.{.{.].R.R.R.R.(.{.{.{.{.).R.R.R.R.).{.{.{.{._.R.R.R.R.].{.{.{.{.~.R.R.~.R.].{.{.{.{.",
"{.{.{.{.{./.R.R.R.R.{.{.{.{.{.R.R.R.R.(.{.{.{.{.].R.R.R.R.(.{.{.{.{.).R.R.R.R.).{.{.{.{.[.R.R.R.R.{.{.{.{.{.(.R.R.R.R.{.{.{.{.{.",
"{.{.{.{.{.(.R.(.R./.{.{.{.{.{.(.R.(.R.).{.{.{.{.[.R.E.E.U.Q.{.`.`.{.~.R.R.R.R.[.{.].{.{._.R./.(.R.{.{.{.{.{.(.R./.R.R.{.{.{.{.{.",
"/.(.(.R.(.{.{.{.{.{.(./.(.R.(.{.{.{.{.].R./.(.R.(.].)._.`.(.P.H.P.H.R.`.).'.{.).P.R.R.R.[.{.{.{.{.(.R.(.(.R.{.{.{.{.{.).R.(././.",
"R.R.R.R.R.{.{.{.{.{.R.R.R.R.R.{.{.{.{.].R.R.R.P.R.`.`._.).U.Z.B.B.B.H.R.U.R._.R.H.P.R.T.).{.{.{.{.(.R.R.R.R.{.{.{.{.{.(.R.R.R.R.",
"R.~./.R.(.{.{.{.{.{.~.R./.R.(.{.{.{.{.].R.R.Y.S.H.W.U.P.H.S.n.;.;.>.n.Z.V.H.U.S.C.S.P.T.].{.{.{.{.(.R.R./.R.].{.{.{.{.~.R./.R./.",
"R.R.R.R.R.{.{.{.{.{.(.R.R.R./.{.{.{.{.{.R.I.H.A.A.I.S.Z.N.n.L C D D &.d.b.B.A.B.b.N.Z.L.).{.{.{.{.(.R.R.R.R.{.{.{.{.{.(.R.R.R.R.",
"(.(.(.R.(.{.{.{.{.{.(.R.(././.{.{.{.{.].T.R.P.A.Z.Z.M.f.:.J m l M N Z F *.b.N.d.a.b.B.S.).{.{.{.{.(.R.(.R.R.].{.{.{.{.(.R././.~.",
"{.{.{.{.{.(.R.(.R.(.{.{.{.{.{./.R.~.R.).{.].).R.Z.:.G ] Z m B _ ' ` _ j V D J ;.n.M.B.T./.R.W./.R.{.{.{.{.{.).R.(.(.R.].{.{.{.{.",
"{.{.{.{.{./.R.R.R.R.{.{.{.{.{.R.R.R.R.(.{.].(.R.Z.K C B x R _ ) @.@./ f h n n J a.d.m.I.R.P.T.R.R.].{.{.{.{.(.T.R.R.R.{.{.{.{.{.",
"{.{.{.{.{.(.R./.R.(.{.{.{.{.{.(.R.R.R.(.{.`.T.S.M.D N _ k T #.r.r.r.@.; d h h C G -.b.A.I.I.T.R.R.].{.{.{.{.(.R.R.R.R.].{.{.{.{.",
"{.{.{.{.{.R.R.R.R.R.{.{.{.{.{.R.R.R.T.R.{.).P.A.>.h m x I ..r.j.x.g.9.T - f s N N D ;.C.L.S.P.T.R.{.{.{.{.{.).R.R.R.R.{.{.{.{.{.",
"{.{.{.{.{.~.R./.(.(.{.{.{.{.{.(.R.R.I.R._.R.S.B.L v l k 4 2.j.v.v.z.r.Q > > d l M v F N.A.A.H.T.R.{.{.{.{.{.(.R.(.(.R.{.{.{.{.{.",
"(.(.(.R.(.{.{.{.{.{.(.R.(.R.(.{.{.].{.~.H.B.b.;.F Z x k ( e.x.G.G.v.j.9.X.T Y z j u b K C.P.R.~.).(.R.(.~.R.{.{.{.{.{.(.R././.(.",
"R.R.R.R.R.{.{.{.{.{.R.R.R.R./.{.{.{.{.~.S.m.;.H V N z Y <.l.G.G.G.F.c.h.q.#.@.E - t p S b.H.E.).].R.R.R.R.R.{.{.{.{.{.(.R.R.R.R.",
"R./.R.R.~.{.{.{.{.{.(.R.(.R.R.{.{.`._.~.A.m.;.D v l k W 4.c.J.J.J.J.F.z.g.t.8.! - & p b d.D.U.~.{.Q.R.R.R.R.].{.{.{.{.(.R.R.R./.",
"R.R.R.R.R.{.{.{.{.{.R.R.R.R.T.].].`._.R.C.n.L V s j Y <.t.c.F.J.K.K.G.c.l.g.r./ > # w g ;.D.U.~.{.(.R.R.R.R.].{.{.{.{.).R.R.R.R.",
").).(.).).].{.].{.].).(.).).R.R./.E.U.H.N.b.;.V s d 2 ,.h.c.F.G.G.J.G.F.x.h.r.X.2 - t g ;.B.S.R.].).(.(.).(.].'.].{.].)./.).(.).",
"{.{.{.{.{.R.R.R.R.R.{.{.{.{.{.T.H.A.B.V.A.N.a.A s - 2 +.i.v.F.F.G.G.F.F.v.k.w.X.5 k u v J L m.S.Y.].{.{.{.{.~.R.R.R.R.{.{.{.{.{.",
"{.{.{.{.{.(.R.R.R./.{.{.{.{.{.U.H.A.B.M.N.f.=.C f - 5 O.e.x.v.F.G.G.G.F.c.k.q.X.~ > i h H ;.b.C.P.{.{.{.{.{./.R.R.R.R.].{.{.{.{.",
"{.{.{.{.{.R.R.(.R.(.{.{.{.{.{.R.P.A.n.f.f.=.A m j * 3  .7.z.c.F.F.G.G.v.x.h.w.#.^ 3 - a D ;.d.C.S.).{.{.{.{.(.R.R.Q.R.].{.{.{.{.",
"{.{.{.{.{.R.R.R.R.R.{.{.{.{.{.T.P.S.m.d.f.&.N M k ; 9 ,.q.k.c.G.J.J.G.c.c.h.t.q.| 5 - a V H s.m.A.).{.{.{.{.).R.R.R.R.{.{.{.{.{.",
"{.].{.].].).).(.).).].{.{.[.).U.P.P.A.N.a.A B x I 5 o.5.e.x.v.K.K.K.J.v.z.k.g.r.<.9 - t h J f.B.L.Q.].{.{.].).(.(.(.(.{.].].{.].",
"R.R.R.R.R.{.{.{.{.{.R.R.R.R.R.).Q.U.I.B.H N l k Y X.q.r.h.c.G.K.K.K.J.v.z.h.g.r.#.7 = @ h ;.B.H.).R.R.R.R.R.{.{.{.{.{.(.R.R.R.R.",
"R.Q.R.R./.{.{.{.{.{.R.R.Q.R.R.).Q.U.H.M.H v l R T X.7.i.c.F.K.!.!.K.F.v.x.g.t.r.X.7 = % c ;.M.H.(.R.R./.R.R.].{.{.{.{.).R.Q.R.Q.",
"(.R.Q.R.(.{.{.{.{.{.(.R.W.R.R.).).U.I.Z.J v f k 4 X.w.j.c.G.!.!.^.!.G.v.c.u.t.9.{ 5 - @ h :.N.H.~.R.R.R.R.R.{.{.{.{.{.(.R.R.Q.R.",
"R.R.R.R.R.{.{.{.{.{.R.R.R.R.R.`.`.W.E.A.J c f > > ..7.j.c.G.!.!.!.!.J.F.c.k.r.9.{ 2 # @ b ;.B.D.~.R.T.R.R.R.].{.{.{.{.(.Y.R.R.R.",
").(.).(.).].].{.{.].).(.).(.~.).~.H.A.B.;.C l k 2 Q q.j.v.G.^.^.!.!.K.J.v.l.u.9.0 < # % h &.M.Z.U.Q.).(.).(.].].].{.].).(.).).(.",
"{.{.{.{.{.R.R.R.R.R.{.{.{.{.{.T.D.B.b.d.d.&.] x k 8 w.l.v.K.^.^.!.!.J.G.v.z.u.q...3 - y h D >.n.S.).{.{.{.{.(.R.R.R.R.].{.{.{.{.",
"{.{.{.{.{.(.R.R.R.R.{.{.{.{.{.I.D.C.m.d.d.&.F N * 5 7.l.F.!.^.!.K.K.J.G.c.z.h.q.^ 4 - u V F >.B.S.`.{.{.{.{.(.R.R.Q.R.{.{.{.{.{.",
"{.{.{.{.{.R.R.Q.R.(.{.{.{.{.[.I.H.S.B.M.n.=.C m i 4  .y.v.K.^.K.G.J.K.G.v.x.y.o.~ 2 - s N J b.A.H._.{.{.{.{.(.R.R.R.R.].{.{.{.{.",
"{.{.{.{.{.R.R.R.R.R.{.{.{.{.{.I.P.S.C.B.B.:.C m - : 0 3.j.G.K.K.K.!.!.G.v.z.7.o.9 2 i m A K m.A.L.).{.{.{.{.(.R.R.R.R.{.{.{.{.{.",
"]._.).).]._.).].).].).).[.).).).Q.R.P.Z.d.J m s - 2 0 2.u.v.J.!.^.`.^.J.v.z.e.+.4 = # a D b.S.R.R.).).].).).[.).).].).].).).]._.",
"R.R.R.R.R.{.{.{.{.{.R.R.R.R.R.{.{.].).D.L H h t + 2 1.q.i.c.J.`.{.{.^.G.c.x.u.2.7 = + w K A.R.].{.R.R.R.R.R.{.{.{.{.{.(.T.R.R.R.",
"R.R./.R.(.{.{.{.{.{.(.R.R.R.Q.{.{.{.(.H.s.H v y $ 7 5.i.x.v.!.{.{.{.^.v.c.x.k.u.O.= . w L H.~.).{.(.R.Q.R.R.].{.{.{.{.).R.R.R.(.",
"R.Q.(.R.(.{.{.{.{.{.(.R.R.R.(.{.{.].(.P.m.;.n @ < 1.i.c.v.K.{.{.{.{.^.v.x.c.c.k.1.O   p >.P.~.[.{.(.R.R.R.R.{.{.{.{.{.(.R.R.(.R.",
"R.R.R.R.R.{.{.{.{.{.R.R.R.R.R.{.{.{.{.T.B.>.c % 5 y.c.v.F.K.{.{.{.{.!.F.F.F.F.i.q O X r b.R.).{.{.(.R.R.R.T.{.{.{.{.{.(.I.R.R.R.",
").].).)._.].).].)._.].).].].).).).).(.R.S.n.V i < q x.G.G.J.`.{.{.{.K.F.J.G.c.u. .: X S N.T.).).).].).].]._.)._._.].).[.).[.].).",
"{.{.{.{.{.R.R.R.R.R.{.{.{.{.{.R.R.R.Y.R.Q.C.J m - 1 7.c.G.!.^.`.{.K.F.G.G.F.x.e.4.; e b.P.P.I.R.R.{.{.{.{.{.R.R.R.R.T.{.{.{.{.{.",
"{.{.{.{.{.(.R.R.R.(.{.{.{.{.{./.R.R.R.(.).A.;.V y = 8 1.k.K.K.F.F.l.c.F.c.i.t.+.4 & b C.R.P.T.R.R.{.{.{.{.{.(.R.R.R.R.{.{.{.{.{.",
"{.{.{.{.{.R.R.R.R.R.{.{.{.{.{.(.R.R.R./.).H.V.;.b % & o 6 y.c.p.7.e.e.6.2. .} / > a K D.R.L.R.R.R.].{.{.{.{.(.R.Q.R.R.].{.{.{.{.",
"{.{.{.{.{.R.R.R.R.R.{.{.{.{.{.R.R.R.I./.{.(.W.H.P p u u # 8 0.X.W ( U < 4 T T k l V n.R.T.P.R.R.I.{.{.{.{.{.R.R.R.R.T.{.{.{.{.{.",
"`.).].).]._.).].).].].)._.)._.].).].).).)./.I.H.m.H m B ` ' R l B _ ` ` ` _ R v D ;.m.Y./.).]._.).[.).[.).).[.)._.].`.].).).).].",
"R.R.R.R.R.{.{.{.{.{.R.R.R.R.R.{.{.{.{.{.T.I.L.m.m.M.J $.%.[ M N B B ` %.[ ] F J L n.C.A.).{.{.{.{.(.I.R.R.R.{.{.{.{.{.(.R.R.R.R.",
"R.R./.R.(.{.{.{.{.{.(.R.R.R.(.{.{.{.{.[.T.Y.L.A.B.B.d.:.*.$.D J F Z A &.=.&.d.d.b.C.S.P.'.{.{.{.{.).R.R.Q.R.{.{.{.{.{.(.R.R.R.R.",
"R./.R.R.(.{.{.{.{.{.(.R.(.R.(.{.{.{.{.{.R.R.Y.L.S.H.A.B.d.:.*.n.d.L :.f.f.M.B.B.m.B.L.R.'.{.{.{.{.(.R.R.R.R.].{.{.{.{.(.R.(.R.Q.",
"R.R.R.R.R.{.{.{.{.{.R.R.R.R.R.{.{.{.{.{.R.R.R.I.T.).T.H.H.B.b.C.C.n.B.A.A.S.I.S.C.H.R.R.).{.{.{.{.).R.R.R.R.].{.{.{.{.(.R.R.R.R.",
"{.].].].].).(.).(.).{.].].{.].(.(.(.(.).].].].{.[.R.Y.I.H.S.I.Q.(.R.S.S.D.L.P.R.(.).].].].(.).(.(.].].].{.].).(.).).(.].].{.[.`.",
"{.{.{.{.{.R.R.R.R.R.{.{.{.{.{.R.R.R.R.(.{.{.{.{.{.Y.T.I.P.U.`.{.{.{.R.L.I.Y.I.(.{.{.{.{.[.R.R.R.I.{.{.{.{.{.(.U.R.R.R.{.{.{.{.{.",
"{.{.{.{.{.R.R.R.R.(.{.{.{.{.{.(.R.R.R.).{.{.{.{.].R./.R.U.R.{.{.{.{.).R.R.R.R.).{.{.{.{.).R.R.Q.R.{.{.{.{.{.(.R.R.R.R.].{.{.{.{.",
"{.{.{.{.{.(.R.R.R.(.{.{.{.{.{.(.R.R.R.(.{.{.{.{.{.R.R.R.R.(.{.{.{.{.].R.Q.R.R.[.{.{.{.{.[.R.R.R.R.].{.{.{.{.(.R.Q.R.R.].{.{.{.{.",
"{.{.{.{.{.R.R.R.R.R.{.{.{.{.{.R.R.R.U.(.{.{.{.{.{.T.R.R.R.(.{.{.{.{.).R.R.R.R.).{.{.{.{._.R.R.R.R.{.{.{.{.{.(.R.R.R.R.{.{.{.{.{.",
"(.(.).(.).].{.{.].{.(.).).(.).].].{.{.].(.).Q.Q.(.{.].{.].].(.(.).R._.].{.].]._.(.(.(.(._.].].{.[.).(.(.(.(.].].].{.].).(.(.(.).",
"R.R.R.R.R.{.{.{.{.{.R.R.R.R.R.{.{.{.{.].R.R.R.T.(.{.{.{.{.{.R.R.R.R.[.{.{.{.{.).R.R.R.R.].{.{.{.{.(.R.R.R.R.{.{.{.{.{./.R.R.R.R.",
"R.Q.Q.R.(.{.{.{.{.{.R.R.(./.(.{.{.{.{.].R.R.R.R.(.{.{.{.{.{.R.R.R.R.[.{.{.{.{.].R.R.R.R._.{.{.{.{.(.R.Q.R.R.{.{.{.{.{.(.R.(./.R.",
"(.R.R.R./.{.{.{.{.{.Q.R.R.R.~.{.{.{.{.{.R.Q.R.R.).{.{.{.{.].R.R.R.R._.{.{.{.{._.R.R.R.R._.{.{.{.{.(.R.R.R.R.].{.{.{.{.).R.R././.",
"R.R.R.R.R.{.{.{.{.{.R.R.R.R.R.{.{.{.{.{.R.R.R.R.(.{.{.{.{.{.R.R.R.T.).{.{.{.{.[.R.R.R.R.).{.{.{.{.(.T.R.R.R.{.{.{.{.{.(.U.R.R.R.",
"{.].].{.].).(.).(.).{.].].{.].).).).(.(.].].{.].].(.(.).(.).{.].].{.).).).).(._.].{.].].[.(.).).).].{.].{.].).R.).).(.].].{.].].",
"{.{.{.{.{.R.R.R.R.R.{.{.{.{.{.R.R.R.R.~.{.{.{.{.{.R.R.U.R./.{.{.{.{.).R.R.R.R.).{.{.{.{.).R.R.R.R.{.{.{.{.{.(.R.R.R.T.{.{.{.{.{.",
"{.{.{.{.{./.R.R.R.(.{.{.{.{.{.(.R.R.R./.{.{.{.{.{.R.R.R.R.).{.{.{.{.).R.R.R.R.[.{.{.{.{.).R.R.R.R.].{.{.{.{.).R.R.R.R.{.{.{.{.{.",
"{.{.{.{.{./.R.~.R./.{.{.{.{.{.(.R./.R.).{.{.{.{.{.R.R./.R.(.{.{.{.{.).R.(.R.R.).{.{.{.{.].R.R.(.R.].{.{.{.{.(.R.R.R.R.].{.{.{.{.",
"{.{.{.{.{.(.R.R.R./.{.{.{.{.{./.R.R.R.(.{.{.{.{.].R./.R.R.(.{.{.{.{.[.R.R.R.R._.{.{.{.{.).R.Q.R.R.{.{.{.{.{.(.R.~.R.R.{.{.{.{.{."
};
