/* XPM */
static char *_4c07a15ac5b4160b0d57c9dbed00b35[] = {
/* columns rows colors chars-per-pixel */
"63 68 256 2 ",
"   c #030201",
".  c #090100",
"X  c #050A03",
"o  c #080B06",
"O  c #0A0C0A",
"+  c #150C02",
"@  c #1B0E03",
"#  c #150E0A",
"$  c #190E0A",
"%  c #140700",
"&  c #0C1504",
"*  c #0C1907",
"=  c #0E140C",
"-  c #0D1A09",
";  c #071204",
":  c #151204",
">  c #1B1103",
",  c #13130C",
"<  c #1A120B",
"1  c #14190C",
"2  c #0D1312",
"3  c #141412",
"4  c #1A1512",
"5  c #141913",
"6  c #1B1915",
"7  c #161319",
"8  c #19141A",
"9  c #1C1C1C",
"0  c #160F14",
"q  c #240C00",
"w  c #2A0A00",
"e  c #3C0500",
"r  c #3D0B01",
"t  c #350800",
"y  c #231303",
"u  c #261707",
"i  c #321D0F",
"p  c #192018",
"a  c #292606",
"s  c #3B2A0A",
"d  c #3D2C15",
"f  c #342B1B",
"g  c #3B2C1C",
"h  c #332616",
"j  c #3C331C",
"k  c #3B3118",
"l  c #333013",
"z  c #1E1920",
"x  c #281D22",
"c  c #2B2C28",
"v  c #3A2D22",
"b  c #3E3223",
"n  c #440201",
"m  c #4C0202",
"M  c #490B01",
"N  c #540201",
"B  c #5B0201",
"V  c #5C0A01",
"C  c #550705",
"Z  c #481501",
"A  c #640201",
"S  c #6A0201",
"D  c #630A02",
"F  c #660607",
"G  c #730102",
"H  c #760807",
"J  c #6D0F0A",
"K  c #4D2501",
"L  c #482B09",
"P  c #552904",
"I  c #48310B",
"U  c #55320E",
"Y  c #422D14",
"T  c #432B15",
"R  c #443214",
"E  c #4C3313",
"W  c #43321B",
"Q  c #4B361C",
"!  c #4D3A1D",
"~  c #483915",
"^  c #543413",
"/  c #543C1D",
"(  c #5C3B1C",
")  c #593717",
"_  c #552F12",
"`  c #62330D",
"'  c #633B1C",
"]  c #653B15",
"[  c #713D16",
"{  c #433522",
"}  c #443925",
"|  c #4B3B24",
" . c #4B3C2B",
".. c #463928",
"X. c #533D24",
"o. c #583B26",
"O. c #573E31",
"+. c #633D24",
"@. c #7C3F2D",
"#. c #5B441D",
"$. c #65421C",
"%. c #6B451D",
"&. c #684418",
"*. c #72471F",
"=. c #4D412B",
"-. c #564323",
";. c #5C4425",
":. c #54422B",
">. c #5B452B",
",. c #5C4B2B",
"<. c #4E4333",
"1. c #544333",
"2. c #5E4B34",
"3. c #594839",
"4. c #595436",
"5. c #644425",
"6. c #6B4523",
"7. c #6B4A24",
"8. c #63452B",
"9. c #6A462A",
"0. c #624A2B",
"q. c #6B4A2C",
"w. c #634925",
"e. c #734423",
"r. c #744A25",
"t. c #734C2A",
"y. c #7B4D2A",
"u. c #784727",
"i. c #74542D",
"p. c #7C522D",
"a. c #795328",
"s. c #654C34",
"d. c #6C4C31",
"f. c #674935",
"g. c #744D33",
"h. c #7B4C36",
"j. c #6D5233",
"k. c #69533B",
"l. c #735433",
"z. c #7C5433",
"x. c #785839",
"c. c #66512B",
"v. c #7F613F",
"b. c #795B43",
"n. c #665443",
"m. c #7A6249",
"M. c #67644B",
"N. c #5F5E49",
"B. c #854C2A",
"V. c #855326",
"C. c #83532C",
"Z. c #8A552D",
"A. c #8B5B2D",
"S. c #865B2C",
"D. c #884B38",
"F. c #835532",
"G. c #8A5633",
"H. c #855934",
"J. c #8C5B33",
"K. c #835D3C",
"L. c #8C5C3A",
"P. c #86553C",
"I. c #925C34",
"U. c #955A39",
"Y. c #965030",
"T. c #A4523C",
"R. c #8C623C",
"E. c #886336",
"W. c #95623C",
"Q. c #9A653C",
"!. c #9C6A3D",
"~. c #986336",
"^. c #8F602C",
"/. c #A4663C",
"(. c #A46A3C",
"). c #A8683A",
"_. c #B46B36",
"`. c #B9723C",
"'. c #AE682D",
"]. c #C9723D",
"[. c #8A5C45",
"{. c #915146",
"}. c #B15644",
"|. c #8B6348",
" X c #946443",
".X c #9E6C42",
"XX c #996948",
"oX c #9B7348",
"OX c #8A6958",
"+X c #946A54",
"@X c #997758",
"#X c #8E7358",
"$X c #A36C43",
"%X c #AB6C43",
"&X c #A86947",
"*X c #B56D43",
"=X c #B86D45",
"-X c #A47244",
";X c #AC7345",
":X c #A3744D",
">X c #AC734B",
",X c #A77A49",
"<X c #B37345",
"1X c #BA7343",
"2X c #B3734A",
"3X c #B4794D",
"4X c #BC7B4C",
"5X c #BB7647",
"6X c #A66A54",
"7X c #A77954",
"8X c #B67B55",
"9X c #AA7D60",
"0X c #C77B49",
"qX c #C57C54",
"wX c #CE7055",
"eX c #CB7462",
"rX c #D37465",
"tX c #B98259",
"yX c #AE845E",
"uX c #B88764",
"iX c #AF8962",
"pX c #9F8052",
"aX c #CC814C",
"sX c #C6804D",
"dX c #D1824C",
"fX c #CA8354",
"gX c #C98558",
"hX c #D48C5A",
"jX c #DA8B5B",
"kX c #D58856",
"lX c #DB945C",
"zX c #E08A5B",
"xX c #C78B64",
"cX c #D58C63",
"vX c #D98B62",
"bX c #D48365",
"nX c #DB9464",
"mX c #DB9367",
"MX c #CE946F",
"NX c #E38F67",
"BX c #E29364",
"VX c #E79A6C",
"CX c #EB9A6B",
"ZX c #E79867",
"AX c #EC9A74",
"SX c #F39E7A",
"DX c #ECA36D",
"FX c #E9A66F",
"GX c #F1A46C",
"HX c #EDA371",
"JX c #EBA479",
"KX c #F1A374",
"LX c #F2A37B",
"PX c #EB9E81",
"IX c #EFA385",
"UX c None",
/* pixels */
"UXUXUXUXUXUXUXUXUXUXUXUXUXUXUXUXUXUXUXUXUXUXUXUXUXUXUXUXUXUXUXUXUXUXUXUXUXUXUXUXUXUXUXUXUXUXUXUXUXUXUXUXUXUXUXUXUXUXUXUXUXUXUX",
"UXUXUXUXUXUXUXUXUXUXUXUXUXUXUXUXUXUXUXUXUXUX8XhXvXjXzXzXzXjXjXlXhXhXhXlXlXhXnXgXcX8XUXUXUXUXUXUXUXUXUXUXUXUXUXUXUXUXUXUXUXUXUX",
"UXUXUXUXUXUXUXUXUXUXUXUXUXUXUXUXUXUXUXUXUX8X8XvXvXkXzXzXkXzXkXhXhXhXhXfXhXhXhXnXcX8XuXUXUXUXUXUXUXUXUXUXUXUXUXUXUXUXUXUXUXUXUX",
"UXUXUXUXUXUXUXUXUXUXUXUXUXUXUXUXUXUXUXZ 3XtXqXhXhXkXhXhXhXhXjXjXhXhXkXlXkXhXhXhXvXqX8X8XP UXUXUXUXUXUXUXUXUXUXUXUXUXUXUXUXUXUX",
"UXUXUXUXUXUXUXUXUXUXUXUXUXUXUXUXUXUXiXiXMXxXhXCXDXZXHXHXFXFXHXHXGXKXCXGXVXZXjXVXmXcXxXxXtXyXUXUXUXUXUXUXUXUXUXUXUXUXUXUXUXUXUX",
"UXUXUXUXUXUXUXUXUXUXUXUXUXUXUXUX.XgXgXfXkXjXjXZXCXAXLXIXIXIXKXJXKXKXGXCXCXCXBXBXzXvXvXhX4X4X4X<XUXUXUXUXUXUXUXUXUXUXUXUXUXUXUX",
"UXUXUXUXUXUXUXUXUXUXUXUXUXu oX(.-XtXsXaXhXjXzXZXCXAXJXPXPXPXHXFXAXHXCXCXCXCXNXBXBXvXvXhXgX4X4X(.>XUXUXUXUXUXUXUXUXUXUXUXUXUXUX",
"UXUXUXUXUXUXUXUXUXUXUXUX#XXX<X<X`.hXhXkXZXZXZXGXGXGXGXFXFXJXJXPXJXLXKXSXKXKXCXCXCXNXnXnXgXfXdX].`.3XoXUXUXUXUXUXUXUXUXUXUXUXUX",
"UXUXUXUXUXUXUXUXUXUXUX#XOXoX2X1X1XjXkXjXCXZXZXGXGXGXHXHXFXFXJXJXJXLXJXLXHXKXCXCXCXBXBXnXkXqXdX`.`.2X@X@X#XUXUXUXUXUXUXUXUXUXUX",
"UXUXUXUXUXUXUXUXUXUXt 7X(.(.1X1X1XjXhXvXVXCXAXSXSXSXSXSXSXLXHXHXKXKXKXHXKXKXZXZXZXnXNXNXkXdX0X0X0X0X).<X@XK UXUXUXUXUXUXUXUXUX",
"UXUXUXUXUXUXUXUXUXOX+XoX-X<XqXqXqXvXvXvXNXVXNXNXNXNXVXNXNXAXVXZXVXZXZXNXlXBXBXnXBXBXBXBXjXjXlXsX1XqX).!.:X|.#XUXUXUXUXUXUXUXUX",
"UXUXUXUXUXUXUXUXOXOXXX%X`._.dXdXsXjXhXhXmXnXmXmXnXnXlXnXlXZXDXVXVXCXZXBXnXnXmXnXmXcXnXnXhXjXxXgXfXfX_.'.}.XX X|.UXUXUXUXUXUXUX",
"UXUXUXUXUXUXUXh OX+X X%X`._.dXaXaXhXhXhXnXnXmXvXnXnXlXlXlXZXZXZXCXVXZXBXnXnXmXmXmXmXmXmXvXvXgXfXgXqX'.'.}.XX X+XUXUXUXUXUXUXUX",
"UXUXUXUXUXUXUXx OX X X.X(.).1X<X3X;X;X7X$X.X.X$X%X&X%X<X,XtXsX5X<X>X>X$X-X.XQ.Q.Q.(.).).<X3XpXoX=X=X~.&XQ.P.[.b.UXUXUXUXUXUXUX",
"UXUXUXUXUXUXUXx +X X X-X/.(.<X1X2X>X7X>X&XoX&X&X%X%X%X;X%X3X5X5X5X<X,X$XoX.X!.!.Q.(.(./.<X<X,X,X=X=XT.).U.Y.P.b.UXUXUXUXUXUXUX",
"UXUXUXUXUXUXUXh |. XI.;X(.%X;X2X>X>X7X7XXX6X6X&X6X6X6X:X:XuXyXtX7X7X7XXX6X6X6X{.6X6X6X X9X7X@XpX%X(.~.~.Q.I.G.G.i UXUXUXUXUXUX",
"UXUXUXUXUXUXUXi K.J.V.-X).;X^.I.Z.[ [ ` r r r n n n n r M 6.Z.V.p.C.u.M e n m n n e e t ' ] ] a.I.~.-X-X-XG.J.U.m.UXUXUXUXUXUX",
"UXUXUXUXUXUXUXh ^.S.V.,X<X2Xz.z.z.' ( +.r e n n m m m n m D.r.*.u.D.D.n e n m m n m r t o.o.' P.Y.D.oX-X-XI.U.Z.R.UXUXUXUXUXUX",
"UXUXUXUXUXUXi h V.V.A.-X;X&XK.K.K.' ( ( r e n n m m n m m {.h.a.F.h.D.e n m n n e e r r +.+.+.P.{.G.7X,X.X^.B.Y.R.UXUXUXUXUXUX",
"UXUXUXUXf N.M.[.;X(.!.A.L.P.N N C m m C m m C m m m n r e [.z.E.E.P.[.r r e m C C C N m B m m C B V z.H.A.Q.%X%Xy.t.UXUXUXUXUX",
"UXUXUXUXa M.M.b.).(.(.V.P.[.N C m N m n m C m C m m n e e +XE.E.E.L. Xe e n m m C C N C N N N N N B P.H.Z.-X/.%Xr.i.UXUXUXUXUX",
"UXUXUXUXl N.b.P.*X).-Xz.b.b.F F B N C C B B B C N B m n e [.I.I.U.I. Xn m m N B C C B B N B N B B V x.[.z.oX&X2Xr.l.UXUXUXUXUX",
"UXUXUXUXa 4.d.e.*X).-X` ! Q B B F F B F F F J F F N m M Z h.B.B.e.B.D.M C N B B F B F B N B B F B N ) _ U :X&X&Xy.l.UXUXUXUXUX",
"UXUXUXUXa ,.f.u.=X=X:XU Q | C N C m N N F S F F H A B B m D.g.x.D.h.D.m C N F F F F F F B N B B N V ) _ U 7X7X>XC.p.l.UXUXUXUX",
"UXUXUXa a c.7.u.*X=X:X) Q Q C N C N B B D S G S S D D N N D.h.d.h.P.D.M N B F F A A A B N N D N B N _ ( ^ oX&X&XB.h.d.i UXUXUX",
"UXUXi.x.i.i.l.h.%X%X-X$.5.;.N B F A D F S S D A A V @.D.g.q ; - : . q g.P.D.B F S G G G H H D N V N +.5.$.7X>X>XV.C.G.[.UXUXUX",
"UXUXx.S.i.q.z.h.2X;X:X$.w.9.B A B A B A S H S S D C D.g.P.q - & & + q b.h.D.B A S G G S H H S V B N 9.9.#.@X%X;XV.V.C.[.|.UXUX",
"UXUXF.S.C.F.y.p.-X-XoX%.$.] N V N V D D D D D A m M h.x.k.@ $ % u @ > s.j.h.Z Z M V B B H D H A A B ' %.%.oX;X-XS.V.C.J.L.[.UX",
"UXUXB.y.B.J.|.|.Q.Q.R.oXoXoXrXeXeXbXrXeX}.T.T.Y.B.D.' o.X.@ $ q @ y % >.o.' y.D.B.T.T.}.wXrXrXwXrXrX+X+XXX XQ.~.^.^.G.C.p.h.UX",
"UXUXk.p.p.J.I.I.~.Q.!..X.X.X0X].0XfXqXxXU.Q.I.y.B.z.;. .<.@ $ $ $ > + <.:.( x.u.V.U.I.U.8XuX8X8X8X4X%X).%XQ.Q.!.R.L.R.z.C.h.UX",
"UXUXk.l.p.I.E.~.Q.Q..XQ.!.(.0X].0XgXgXxXY.I.U.V.*.t.( X. .+ $ $ # < > ..| / t.y.C.G.I.Q.9X8XtX4X8X3X%X)./.Q.Q.W.I.J.R.p.p.p.UX",
"UXUXs.q.6.C.y.C.E.L.E.C.S.F.q.s.f. . .1.d R I 7.l.x.R Y b : > @ + > : j W Q j.j.8._ L Y >.:.] *.*.u.C.F.Z.R.R.E.H.z.z.e.6.9.UX",
"UXUX2.9.6.C.C.F.R.E.~.a.C.C.0.0.,.=. .<.R R I l.l.j.s Y j % @ > : + @ k R Y d.l.x.E L Y / / #.*.*.*.C.C.F.R.R.J.z.S.p.6.6.9.UX",
"UXUXn.2.d.l.x.x.K.v.v.x.x.l.0.c.0.-./ ~ I L K a.r.r.U ^ L q q q y q u Y E L i.p.t.K L U / -.-.,.,.w.x.x.k.|. Xb.x.x.l.d.q.d.UX",
"UXUXn.f.8.+.) U U E U ~ ^ ^ E ~ ~ s R ~ ,.c.7.R.E.R.+.6.d.m.OXm.m.m.b.s.9.q.R.R. X6.t.w.I s I R I Y R E L _ L L ^ ^ ) 9.q.d.UX",
"UXUXUX2.2.| Q Q d Y d ..b =.Q X.! R E I w.%.r.L.I.R.u.u.u.[.W.L.W. X Xe.e.u.L.L.L.9.q.s.d j j j j b j g W Y T E ! ! ! 2.2.UXUX",
"UXUXUXUXk.Q Q / Y W d | ....Q ! ! Y E T 9.r.%.U.Q.J.e.u.9. XL.I. XR.[.e.e.u.P. X[.9.q.f.d j j f j b f b { T T Y ~ ! W k.UXUXUX",
"UXUXUXUX: j j g @ > % X     # $ $ g d T b.x.p.7X>X2X2X=X2XgX0XdXaXaXfX*X4X=X2X2X>Xz.x.b.s l f > : # . . . @ @ > j j j : UXUXUX",
"UXUXUXUXUXj j j > > % .     < $ $ h h T x.x.z.:X3X3X2X2X3XgX0XdX0XsXgX%X2X=X2X8X>XH.x.k.s f h + $ # . . . > @ y j j b UXUXUXUX",
"UXUXUXUXUXUXj j > > + .     : : % g T T l.l.x.7X7X7XpX:X-XuXiXuXiXiXiX7X9X7X>X7XoXJ.a.a.L s j + # # . . . % @ y k j UXUXUXUXUX",
"UXUXUXUXUXUXb } f b v 4 2 2 > > @ W g T 5.5.$.^ U ` P P P K K K K K L L K P ` ` ` [ $.w.I I l > < 4 # # 4 b g g { j UXUXUXUXUX",
"UXUXUXUXUXUXj { g W { @ @ $ + : @ v W W :.,.,.| Q W W W Y d f g j h h j g W Q ^ ^ 0.;.-.R R R > @ @ $ # $ v W Y W k UXUXUXUXUX",
"UXUXUXUXUXUX{ { g Y b % # # : > > g Y Y :.:.,.W | | T T W d i h f h g j g W | / / 5.;.-.s k k y @ $ # < $ { W g W k UXUXUXUXUX",
"UXUXUXUXUXUX| :.>.8.2.q q @ ..| Q o.;.) t.r.e.p.H.B.XXQ.Q.gXkXkXfXaXtXQ.Q.Q.V.y.p.t.d.d.X.-.! ~ { } > % @ 3.>.>.,.#.UXUXUXUXUX",
"UXUXUXUXUXUX<.;.>.o.1.q y @ } ..| X.$.) 7.e.%.H.C.y.$XQ.Q.xXdX0XaXhXxX~.~.Q.C.F.G.6.9.d.X.:.! ! { b > : @ 3.>.>.-.-.UXUXUXUXUX",
"UXUXUXUXUXUX<.O.9.5.6.w w q ! ~ ! / / ;.w.9.7.z.z.F.W.W..XuXxXxXxXuX8X$XW. XG.z.g.g.w.#.#.) #.~ / U w w t 5.8.8.:.<.UXUXUXUXUX",
"UXUXUXUXUXUX1.O.9.d.q.t.l.x.;.;.;.;.;.>.d.l.i.z.p.y.H.Z.B.I.Z.Z.J.I.G.Z.Z.P.y.z.g.x.i.i.#.#.w.-.w.q.l.x.9.9.d.8.:.=.UXUXUXUXUX",
"UXUXUXUXUXUX1.O.g.t.$.l.l.c.$.%.$.$.$.&.i.z.t.p.r.y.H.L.J.C.Z.Z.A.C.V.A.J.Z.y.z.r.t.r.z.&.&.#.,.w.#.t.x.z.q.d.8.>.<.UXUXUXUXUX",
"UXUXUXUXUXUX3.o.9.9.7.q.i.l.$.%.&.$.$.$.t.r.z.y.p.z.H.J.L.P.Z.I.Z.A.Z.A.J.Z.r.z.y.p.a.a.&.&.>.,.-.5.l.l.g.6.9.d.:. .UXUXUXUXUX",
"UXUXUXUXUXUXUXf.9.9.t.$.$.9.=.=.<.g f f > < o . .                                       c c i / / ;.w.' 6.7.6.9.s.UXUXUXUXUXUX",
"UXUXUXUXUXUXUXk.9.6.6.$.] #.=...<.f f f : : , .             X     X               O     c c k ;./ X.5.6.6.6.t.9.d.UXUXUXUXUXUX",
"UXUXUXUXUXUXUX3.d.q.w.7.;.s.<.<.<.f f f < < = X                           . . .     . . f f h =.1.o.>.( 5.9.8.s.2.UXUXUXUXUXUX",
"UXUXUXUXUXUXUXUXs.w.7.) / ( > i u + : < + # # , 2 0 7 7 2 2 0 , = , , # # # # < 0 0 $ $ $ : > y y u X.( ( 9.d.,.UXUXUXUXUXUXUX",
"UXUXUXUXUXUXUXUXUX2.2.:.:.O.y u q @ @ @ @ q @ @ @ + @ @ $ $ $ 0 $ $ @ # > < $ # $ $ @ $ @ > $ 6 u y <.:.O.2.2.UXUXUXUXUXUXUXUX",
"UXUXUXUXUXUXUXUXUXUX2.:.o. .u u y y @ @ @ @ @ @ @ > @ @ @ $ 0 $ < $ # $ $ # $ $ $ $ $ # $ > : 6 u u <.:.:.2.UXUXUXUXUXUXUXUXUX",
"UXUXUXUXUXUXUXUXUXUXu > < 4 7 3 3 , # , , # , , # , , , # $ $ $ $ @ @ > $ + @ + $ $ $ @ @ @ 2 4 5 # 4 : : < UXUXUXUXUXUXUXUXUX",
"UXUXUXUXUXUXUXUXUXUXUX> < $ 0 3 0 , = , , , # # < # # # # # $ $ $ @ @ > + @ + + # $ $ @ + @ 2 4 = 4 < < : UXUXUXUXUXUXUXUXUXUX",
"UXUXUXUXUXUXUXUXUXUXUXUX8 8 3 3 4 2 , 0 $ $ $ < 3 # 3 # 3 3 < 3 # # : * , = = 2 2 3 0 , 0 2 3 3 3 5 = 5 UXUXUXUXUXUXUXUXUXUXUX",
"UXUXUXUXUXUXUXUXUXUXUXUX7 7 9 9 6 4 0 , 2 # < 6 6 6 6 , < 6 6 5 = , , < 1 = 3 3 7 9 9 4 3 3 2 3 = 5 = 5 UXUXUXUXUXUXUXUXUXUXUX",
"UXUXUXUXUXUXUXUXUXUXUXUXUX8 9 z 9 3 4 3 4 0 4 6 9 9 7 3 5 9 p 5 - 1 * * * , 1 = 5 9 9 9 4 4 4 4 3 3 5 UXUXUXUXUXUXUXUXUXUXUXUX",
"UXUXUXUXUXUXUXUXUXUXUXUXUX7 z z p 3 0 3 4 3 0 6 9 6 4 2 5 9 p 1 1 = & & * , 1 = 7 9 9 9 7 7 , 5 3 3 5 UXUXUXUXUXUXUXUXUXUXUXUX",
"UXUXUXUXUXUXUXUXUXUXUXUXUXO * * * - - * * - - * * * ; X ; ; 3 = X . X o o o , = , o   X X X X 2 5 = X UXUXUXUXUXUXUXUXUXUXUXUX",
"UXUXUXUXUXUXUXUXUXUXUXUXUXX - - - - - * * - * * - * ; X ; = 3 , o o o X o X 3 5 , O X o X X X 2 2 = X UXUXUXUXUXUXUXUXUXUXUXUX",
"UXUXUXUXUXUXUXUXUXUXUXUXUXUX- = = 1 2 = 3 = = 3 5 = X X O , , O o X X o   X = , # o X X X X & = = = UXUXUXUXUXUXUXUXUXUXUXUXUX",
"UXUXUXUXUXUXUXUXUXUXUXUXUXUX2 5 = = 5 = 3 = 5 5 3 = p p 7 5 5 3 , 3 = 2 5 = 3 4 3 3 = 3 = = = 5 = 5 UXUXUXUXUXUXUXUXUXUXUXUXUX",
"UXUXUXUXUXUXUXUXUXUXUXUXUXUX7 7 7 7 7 7 8 7 7 7 0 7 z x z 7 , < * , < < < < * 1 < * : < < * * < * 1 UXUXUXUXUXUXUXUXUXUXUXUXUX",
"UXUXUXUXUXUXUXUXUXUXUXUXUXUX7 7 7 3 3 7 7 0 7 8 8 8 z z z 8 , * < 1 < 3 1 < , , , < 1 < < , 1 1 < 1 UXUXUXUXUXUXUXUXUXUXUXUXUX",
"UXUXUXUXUXUXUXUXUXUXUXUXUXUXUXUXUXUXUXUXUXUXUXUXUXUXUXUXUXUXUXUXUXUXUXUXUXUXUXUXUXUXUXUXUXUXUXUXUXUXUXUXUXUXUXUXUXUXUXUXUXUXUX"
};
